<?xml version="1.0" encoding="UTF-8" standalone="no"?>
<svg
   xmlns:dc="http://purl.org/dc/elements/1.1/"
   xmlns:cc="http://creativecommons.org/ns#"
   xmlns:rdf="http://www.w3.org/1999/02/22-rdf-syntax-ns#"
   xmlns:svg="http://www.w3.org/2000/svg"
   xmlns="http://www.w3.org/2000/svg"
   xmlns:xlink="http://www.w3.org/1999/xlink"
   xmlns:sodipodi="http://sodipodi.sourceforge.net/DTD/sodipodi-0.dtd"
   xmlns:inkscape="http://www.inkscape.org/namespaces/inkscape"
   version="1.0"
   id="Layer_1"
   width="48"
   height="48"
   viewBox="0 0 128 128"
   style="overflow:visible"
   xml:space="preserve"
   sodipodi:version="0.32"
   inkscape:version="0.46"
   sodipodi:docname="gnome-display-properties.svg"
   inkscape:output_extension="org.inkscape.output.svg.inkscape"
   inkscape:export-filename="/home/kwwii/bzr/human-icon-theme/48x48/apps/gnome-display-properties.png"
   inkscape:export-xdpi="90"
   inkscape:export-ydpi="90"><metadata
   id="metadata129"><rdf:RDF><cc:Work
       rdf:about=""><dc:format>image/svg+xml</dc:format><dc:type
         rdf:resource="http://purl.org/dc/dcmitype/StillImage" /></cc:Work></rdf:RDF></metadata><defs
   id="defs127"><linearGradient
     id="linearGradient7025"
     inkscape:collect="always"><stop
       id="stop7027"
       offset="0"
       style="stop-color:#e6ce46;stop-opacity:1" /><stop
       id="stop7029"
       offset="1"
       style="stop-color:#d6ba1c;stop-opacity:1" /></linearGradient><linearGradient
     inkscape:collect="always"
     xlink:href="#linearGradient7025"
     id="linearGradient4136"
     gradientUnits="userSpaceOnUse"
     gradientTransform="translate(53,1.428571)"
     x1="13.630114"
     y1="28.5"
     x2="25.208096"
     y2="41.180992" /><linearGradient
     inkscape:collect="always"
     id="linearGradient4309"><stop
       style="stop-color:#ffffff;stop-opacity:1;"
       offset="0"
       id="stop4311" /><stop
       style="stop-color:#ffffff;stop-opacity:0;"
       offset="1"
       id="stop4313" /></linearGradient><linearGradient
     inkscape:collect="always"
     id="linearGradient4299"><stop
       style="stop-color:#ffffff;stop-opacity:1;"
       offset="0"
       id="stop4301" /><stop
       style="stop-color:#ffffff;stop-opacity:0;"
       offset="1"
       id="stop4303" /></linearGradient><linearGradient
     id="linearGradient3467"><stop
       id="stop3469"
       offset="0"
       style="stop-color:#600000;stop-opacity:1;" /><stop
       id="stop3471"
       offset="1"
       style="stop-color:#b14700;stop-opacity:1;" /></linearGradient><linearGradient
     inkscape:collect="always"
     xlink:href="#XMLID_14_"
     id="linearGradient5661"
     gradientUnits="userSpaceOnUse"
     gradientTransform="matrix(9.0067402e-2,0,0,9.0067402e-2,82.224569,17.968058)"
     x1="53.915501"
     y1="91.115196"
     x2="55.820202"
     y2="110.6698" /><linearGradient
     inkscape:collect="always"
     xlink:href="#XMLID_15_"
     id="linearGradient5663"
     gradientUnits="userSpaceOnUse"
     gradientTransform="matrix(9.0067402e-2,0,0,9.0067402e-2,82.224569,17.968058)"
     x1="56.851101"
     y1="91.507797"
     x2="58.826099"
     y2="111.7843" /><linearGradient
     inkscape:collect="always"
     xlink:href="#XMLID_17_"
     id="linearGradient5665"
     gradientUnits="userSpaceOnUse"
     gradientTransform="matrix(9.0067402e-2,0,0,9.0067402e-2,82.224569,17.968058)"
     x1="47.311501"
     y1="10.7583"
     x2="58.862999"
     y2="110.2979" /><linearGradient
     inkscape:collect="always"
     xlink:href="#XMLID_18_"
     id="linearGradient5667"
     gradientUnits="userSpaceOnUse"
     gradientTransform="matrix(9.0067402e-2,0,0,9.0067402e-2,82.224569,17.968058)"
     x1="35.979"
     y1="15.0229"
     x2="68.9291"
     y2="107.2834" /><linearGradient
     inkscape:collect="always"
     xlink:href="#XMLID_19_"
     id="linearGradient5669"
     gradientUnits="userSpaceOnUse"
     gradientTransform="matrix(9.0067402e-2,0,0,9.0067402e-2,82.224569,17.968058)"
     x1="49.921902"
     y1="23.2446"
     x2="58.3703"
     y2="104.0195" /><linearGradient
     inkscape:collect="always"
     xlink:href="#XMLID_20_"
     id="linearGradient5671"
     gradientUnits="userSpaceOnUse"
     gradientTransform="matrix(9.0067402e-2,0,0,9.0067402e-2,82.224569,17.968058)"
     x1="54.9907"
     y1="39.262199"
     x2="63.210098"
     y2="110.0893" /><radialGradient
     inkscape:collect="always"
     xlink:href="#XMLID_21_"
     id="radialGradient5673"
     gradientUnits="userSpaceOnUse"
     gradientTransform="matrix(9.0067402e-2,0,0,9.0067402e-2,82.224569,17.968058)"
     cx="79.615196"
     cy="116.7344"
     r="88.041702" /><radialGradient
     inkscape:collect="always"
     xlink:href="#XMLID_22_"
     id="radialGradient5675"
     gradientUnits="userSpaceOnUse"
     gradientTransform="matrix(9.0067402e-2,0,0,9.0067402e-2,82.224569,17.968058)"
     cx="126.5"
     cy="130.1982"
     r="82.374199" /><linearGradient
     inkscape:collect="always"
     xlink:href="#XMLID_23_"
     id="linearGradient5677"
     gradientUnits="userSpaceOnUse"
     gradientTransform="matrix(9.0067402e-2,0,0,9.0067402e-2,82.224569,17.968058)"
     x1="132.50591"
     y1="35.3008"
     x2="40.759701"
     y2="115.4526" /><radialGradient
     inkscape:collect="always"
     xlink:href="#XMLID_24_"
     id="radialGradient5679"
     gradientUnits="userSpaceOnUse"
     gradientTransform="matrix(9.0067402e-2,0,0,9.0067402e-2,82.224569,17.968058)"
     cx="87.546898"
     cy="108.1338"
     r="112.4545" /><linearGradient
     inkscape:collect="always"
     xlink:href="#XMLID_25_"
     id="linearGradient5681"
     gradientUnits="userSpaceOnUse"
     gradientTransform="matrix(9.0067402e-2,0,0,9.0067402e-2,82.224569,17.968058)"
     x1="59.637199"
     y1="28.6401"
     x2="65.511497"
     y2="120.5861" /><linearGradient
     inkscape:collect="always"
     xlink:href="#XMLID_26_"
     id="linearGradient5683"
     gradientUnits="userSpaceOnUse"
     gradientTransform="matrix(9.0067402e-2,0,0,9.0067402e-2,82.224569,17.968058)"
     x1="103.9541"
     y1="11.4053"
     x2="108.0303"
     y2="106.0095" /><linearGradient
     inkscape:collect="always"
     xlink:href="#XMLID_14_"
     id="linearGradient5685"
     gradientUnits="userSpaceOnUse"
     gradientTransform="matrix(9.0067402e-2,0,0,9.0067402e-2,82.224569,17.968058)"
     x1="53.915501"
     y1="91.115196"
     x2="55.820202"
     y2="110.6698" /><linearGradient
     inkscape:collect="always"
     xlink:href="#XMLID_15_"
     id="linearGradient5687"
     gradientUnits="userSpaceOnUse"
     gradientTransform="matrix(9.0067402e-2,0,0,9.0067402e-2,82.224569,17.968058)"
     x1="56.851101"
     y1="91.507797"
     x2="58.826099"
     y2="111.7843" /><linearGradient
     inkscape:collect="always"
     xlink:href="#XMLID_17_"
     id="linearGradient5689"
     gradientUnits="userSpaceOnUse"
     gradientTransform="matrix(9.0067402e-2,0,0,9.0067402e-2,82.224569,17.968058)"
     x1="47.311501"
     y1="10.7583"
     x2="58.862999"
     y2="110.2979" /><linearGradient
     inkscape:collect="always"
     xlink:href="#XMLID_18_"
     id="linearGradient5691"
     gradientUnits="userSpaceOnUse"
     gradientTransform="matrix(9.0067402e-2,0,0,9.0067402e-2,82.224569,17.968058)"
     x1="35.979"
     y1="15.0229"
     x2="68.9291"
     y2="107.2834" /><linearGradient
     inkscape:collect="always"
     xlink:href="#XMLID_19_"
     id="linearGradient5693"
     gradientUnits="userSpaceOnUse"
     gradientTransform="matrix(9.0067402e-2,0,0,9.0067402e-2,82.224569,17.968058)"
     x1="49.921902"
     y1="23.2446"
     x2="58.3703"
     y2="104.0195" /><linearGradient
     inkscape:collect="always"
     xlink:href="#XMLID_20_"
     id="linearGradient5695"
     gradientUnits="userSpaceOnUse"
     gradientTransform="matrix(9.0067402e-2,0,0,9.0067402e-2,82.224569,17.968058)"
     x1="54.9907"
     y1="39.262199"
     x2="63.210098"
     y2="110.0893" /><radialGradient
     inkscape:collect="always"
     xlink:href="#XMLID_21_"
     id="radialGradient5697"
     gradientUnits="userSpaceOnUse"
     gradientTransform="matrix(9.0067402e-2,0,0,9.0067402e-2,82.224569,17.968058)"
     cx="79.615196"
     cy="116.7344"
     r="88.041702" /><radialGradient
     inkscape:collect="always"
     xlink:href="#XMLID_22_"
     id="radialGradient5699"
     gradientUnits="userSpaceOnUse"
     gradientTransform="matrix(9.0067402e-2,0,0,9.0067402e-2,82.224569,17.968058)"
     cx="126.5"
     cy="130.1982"
     r="82.374199" /><linearGradient
     inkscape:collect="always"
     xlink:href="#XMLID_23_"
     id="linearGradient5701"
     gradientUnits="userSpaceOnUse"
     gradientTransform="matrix(9.0067402e-2,0,0,9.0067402e-2,82.224569,17.968058)"
     x1="132.50591"
     y1="35.3008"
     x2="40.759701"
     y2="115.4526" /><radialGradient
     inkscape:collect="always"
     xlink:href="#XMLID_24_"
     id="radialGradient5703"
     gradientUnits="userSpaceOnUse"
     gradientTransform="matrix(9.0067402e-2,0,0,9.0067402e-2,82.224569,17.968058)"
     cx="87.546898"
     cy="108.1338"
     r="112.4545" /><linearGradient
     inkscape:collect="always"
     xlink:href="#XMLID_25_"
     id="linearGradient5705"
     gradientUnits="userSpaceOnUse"
     gradientTransform="matrix(9.0067402e-2,0,0,9.0067402e-2,82.224569,17.968058)"
     x1="59.637199"
     y1="28.6401"
     x2="65.511497"
     y2="120.5861" /><linearGradient
     inkscape:collect="always"
     xlink:href="#XMLID_26_"
     id="linearGradient5707"
     gradientUnits="userSpaceOnUse"
     gradientTransform="matrix(9.0067402e-2,0,0,9.0067402e-2,82.224569,17.968058)"
     x1="103.9541"
     y1="11.4053"
     x2="108.0303"
     y2="106.0095" /><linearGradient
     inkscape:collect="always"
     xlink:href="#XMLID_14_"
     id="linearGradient5709"
     gradientUnits="userSpaceOnUse"
     gradientTransform="matrix(9.0067402e-2,0,0,9.0067402e-2,82.224569,17.968058)"
     x1="53.915501"
     y1="91.115196"
     x2="55.820202"
     y2="110.6698" /><linearGradient
     inkscape:collect="always"
     xlink:href="#XMLID_15_"
     id="linearGradient5711"
     gradientUnits="userSpaceOnUse"
     gradientTransform="matrix(9.0067402e-2,0,0,9.0067402e-2,82.224569,17.968058)"
     x1="56.851101"
     y1="91.507797"
     x2="58.826099"
     y2="111.7843" /><linearGradient
     inkscape:collect="always"
     xlink:href="#XMLID_17_"
     id="linearGradient5713"
     gradientUnits="userSpaceOnUse"
     gradientTransform="matrix(9.0067402e-2,0,0,9.0067402e-2,82.224569,17.968058)"
     x1="47.311501"
     y1="10.7583"
     x2="58.862999"
     y2="110.2979" /><linearGradient
     inkscape:collect="always"
     xlink:href="#XMLID_18_"
     id="linearGradient5715"
     gradientUnits="userSpaceOnUse"
     gradientTransform="matrix(9.0067402e-2,0,0,9.0067402e-2,82.224569,17.968058)"
     x1="35.979"
     y1="15.0229"
     x2="68.9291"
     y2="107.2834" /><linearGradient
     inkscape:collect="always"
     xlink:href="#XMLID_19_"
     id="linearGradient5717"
     gradientUnits="userSpaceOnUse"
     gradientTransform="matrix(9.0067402e-2,0,0,9.0067402e-2,82.224569,17.968058)"
     x1="49.921902"
     y1="23.2446"
     x2="58.3703"
     y2="104.0195" /><linearGradient
     inkscape:collect="always"
     xlink:href="#XMLID_20_"
     id="linearGradient5719"
     gradientUnits="userSpaceOnUse"
     gradientTransform="matrix(9.0067402e-2,0,0,9.0067402e-2,82.224569,17.968058)"
     x1="54.9907"
     y1="39.262199"
     x2="63.210098"
     y2="110.0893" /><radialGradient
     inkscape:collect="always"
     xlink:href="#XMLID_21_"
     id="radialGradient5721"
     gradientUnits="userSpaceOnUse"
     gradientTransform="matrix(9.0067402e-2,0,0,9.0067402e-2,82.224569,17.968058)"
     cx="79.615196"
     cy="116.7344"
     r="88.041702" /><radialGradient
     inkscape:collect="always"
     xlink:href="#XMLID_22_"
     id="radialGradient5723"
     gradientUnits="userSpaceOnUse"
     gradientTransform="matrix(9.0067402e-2,0,0,9.0067402e-2,82.224569,17.968058)"
     cx="126.5"
     cy="130.1982"
     r="82.374199" /><linearGradient
     inkscape:collect="always"
     xlink:href="#XMLID_23_"
     id="linearGradient5725"
     gradientUnits="userSpaceOnUse"
     gradientTransform="matrix(9.0067402e-2,0,0,9.0067402e-2,82.224569,17.968058)"
     x1="132.50591"
     y1="35.3008"
     x2="40.759701"
     y2="115.4526" /><radialGradient
     inkscape:collect="always"
     xlink:href="#XMLID_24_"
     id="radialGradient5727"
     gradientUnits="userSpaceOnUse"
     gradientTransform="matrix(9.0067402e-2,0,0,9.0067402e-2,82.224569,17.968058)"
     cx="87.546898"
     cy="108.1338"
     r="112.4545" /><linearGradient
     inkscape:collect="always"
     xlink:href="#XMLID_25_"
     id="linearGradient5729"
     gradientUnits="userSpaceOnUse"
     gradientTransform="matrix(9.0067402e-2,0,0,9.0067402e-2,82.224569,17.968058)"
     x1="59.637199"
     y1="28.6401"
     x2="65.511497"
     y2="120.5861" /><linearGradient
     inkscape:collect="always"
     xlink:href="#XMLID_26_"
     id="linearGradient5731"
     gradientUnits="userSpaceOnUse"
     gradientTransform="matrix(9.0067402e-2,0,0,9.0067402e-2,82.224569,17.968058)"
     x1="103.9541"
     y1="11.4053"
     x2="108.0303"
     y2="106.0095" /><linearGradient
     inkscape:collect="always"
     xlink:href="#linearGradient4299"
     id="linearGradient4509"
     gradientUnits="userSpaceOnUse"
     gradientTransform="matrix(1.0020168,0,0,1.0020168,-68.536711,14.134085)"
     x1="124.63371"
     y1="12.844601"
     x2="128.5047"
     y2="49.127014" /><linearGradient
     inkscape:collect="always"
     xlink:href="#linearGradient4309"
     id="linearGradient4513"
     gradientUnits="userSpaceOnUse"
     gradientTransform="translate(-68.262536,15.133)"
     x1="185.29352"
     y1="61.772274"
     x2="169.54645"
     y2="23.374943" /><linearGradient
     inkscape:collect="always"
     xlink:href="#linearGradient3467"
     id="linearGradient4517"
     gradientUnits="userSpaceOnUse"
     gradientTransform="matrix(2.6569884,0,0,2.6569884,253.51037,103.23754)"
     x1="-92.454216"
     y1="-29.745321"
     x2="-50.454216"
     y2="-8.7453213" /></defs><sodipodi:namedview
   inkscape:window-height="1093"
   inkscape:window-width="1568"
   inkscape:pageshadow="2"
   inkscape:pageopacity="0.0"
   guidetolerance="10.0"
   gridtolerance="10.0"
   objecttolerance="10.0"
   borderopacity="1.0"
   bordercolor="#666666"
   pagecolor="#ffffff"
   id="base"
   showgrid="false"
   inkscape:zoom="1"
   inkscape:cx="-124.2868"
   inkscape:cy="17.800837"
   inkscape:window-x="256"
   inkscape:window-y="57"
   inkscape:current-layer="Layer_1"
   showguides="true"
   inkscape:guide-bbox="true" />
<linearGradient
   id="XMLID_14_"
   gradientUnits="userSpaceOnUse"
   x1="53.915501"
   y1="91.115196"
   x2="55.820202"
   y2="110.6698">
	<stop
   offset="0"
   style="stop-color: rgb(153, 153, 153);"
   id="stop4" />
	<stop
   offset="1"
   style="stop-color: rgb(77, 77, 77);"
   id="stop6" />
</linearGradient>

<linearGradient
   id="XMLID_15_"
   gradientUnits="userSpaceOnUse"
   x1="56.851101"
   y1="91.507797"
   x2="58.826099"
   y2="111.7843">
	<stop
   offset="0"
   style="stop-color: rgb(153, 153, 153);"
   id="stop11" />
	<stop
   offset="1"
   style="stop-color: rgb(77, 77, 77);"
   id="stop13" />
</linearGradient>

<linearGradient
   id="XMLID_16_"
   gradientUnits="userSpaceOnUse"
   x1="57.940899"
   y1="89.600601"
   x2="60.232399"
   y2="113.1264">
	<stop
   offset="0"
   style="stop-color: rgb(153, 153, 153);"
   id="stop18" />
	<stop
   offset="1"
   style="stop-color: rgb(77, 77, 77);"
   id="stop20" />
</linearGradient>

<linearGradient
   id="XMLID_17_"
   gradientUnits="userSpaceOnUse"
   x1="47.311501"
   y1="10.7583"
   x2="58.862999"
   y2="110.2979">
	<stop
   offset="0"
   style="stop-color: rgb(153, 153, 153);"
   id="stop25" />
	<stop
   offset="1"
   style="stop-color: rgb(77, 77, 77);"
   id="stop27" />
</linearGradient>

<linearGradient
   id="XMLID_18_"
   gradientUnits="userSpaceOnUse"
   x1="35.979"
   y1="15.0229"
   x2="68.9291"
   y2="107.2834">
	<stop
   offset="0"
   style="stop-color: rgb(255, 255, 255);"
   id="stop32" />
	<stop
   offset="0.2191"
   style="stop-color: rgb(244, 244, 244);"
   id="stop34" />
	<stop
   offset="0.6013"
   style="stop-color: rgb(216, 216, 216);"
   id="stop36" />
	<stop
   offset="1"
   style="stop-color: rgb(179, 179, 179);"
   id="stop38" />
</linearGradient>


<linearGradient
   id="XMLID_19_"
   gradientUnits="userSpaceOnUse"
   x1="49.921902"
   y1="23.2446"
   x2="58.3703"
   y2="104.0195">
	<stop
   offset="0"
   style="stop-color: rgb(217, 217, 217);"
   id="stop45" />
	<stop
   offset="0.3749"
   style="stop-color: rgb(206, 206, 206);"
   id="stop47" />
	<stop
   offset="1"
   style="stop-color: rgb(179, 179, 179);"
   id="stop49" />
</linearGradient>

<linearGradient
   id="XMLID_20_"
   gradientUnits="userSpaceOnUse"
   x1="54.9907"
   y1="39.262199"
   x2="63.210098"
   y2="110.0893">
	<stop
   offset="0"
   style="stop-color: rgb(153, 153, 153);"
   id="stop54" />
	<stop
   offset="1"
   style="stop-color: rgb(77, 77, 77);"
   id="stop56" />
</linearGradient>

<radialGradient
   id="XMLID_21_"
   cx="79.615196"
   cy="116.7344"
   r="88.041702"
   gradientUnits="userSpaceOnUse">
	<stop
   offset="0"
   style="stop-color: rgb(255, 221, 112);"
   id="stop61" />
	<stop
   offset="0.4225"
   style="stop-color: rgb(255, 171, 67);"
   id="stop63" />
	<stop
   offset="0.8022"
   style="stop-color: rgb(255, 132, 31);"
   id="stop65" />
	<stop
   offset="1"
   style="stop-color: rgb(255, 117, 18);"
   id="stop67" />
</radialGradient>

<radialGradient
   id="XMLID_22_"
   cx="126.5"
   cy="130.1982"
   r="82.374199"
   gradientUnits="userSpaceOnUse">
	<stop
   offset="0"
   style="stop-color: rgb(242, 210, 106);"
   id="stop72" />
	<stop
   offset="0.2621"
   style="stop-color: rgb(246, 182, 80);"
   id="stop74" />
	<stop
   offset="0.7541"
   style="stop-color: rgb(252, 135, 35);"
   id="stop76" />
	<stop
   offset="1"
   style="stop-color: rgb(255, 117, 18);"
   id="stop78" />
</radialGradient>

<linearGradient
   id="XMLID_23_"
   gradientUnits="userSpaceOnUse"
   x1="132.50591"
   y1="35.3008"
   x2="40.759701"
   y2="115.4526">
	<stop
   offset="0"
   style="stop-color: rgb(255, 221, 112);"
   id="stop83" />
	<stop
   offset="0.3826"
   style="stop-color: rgb(255, 176, 71);"
   id="stop85" />
	<stop
   offset="0.791"
   style="stop-color: rgb(255, 133, 33);"
   id="stop87" />
	<stop
   offset="1"
   style="stop-color: rgb(255, 117, 18);"
   id="stop89" />
</linearGradient>

<radialGradient
   id="XMLID_24_"
   cx="87.546898"
   cy="108.1338"
   r="112.4545"
   gradientUnits="userSpaceOnUse">
	<stop
   offset="0"
   style="stop-color: rgb(255, 243, 204);"
   id="stop94" />
	<stop
   offset="0.1912"
   style="stop-color: rgb(255, 219, 170);"
   id="stop96" />
	<stop
   offset="0.5738"
   style="stop-color: rgb(255, 176, 108);"
   id="stop98" />
	<stop
   offset="0.854"
   style="stop-color: rgb(255, 148, 69);"
   id="stop100" />
	<stop
   offset="1"
   style="stop-color: rgb(255, 138, 54);"
   id="stop102" />
</radialGradient>

<linearGradient
   id="XMLID_25_"
   gradientUnits="userSpaceOnUse"
   x1="59.637199"
   y1="28.6401"
   x2="65.511497"
   y2="120.5861">
	<stop
   offset="0"
   style="stop-color: rgb(235, 219, 166);"
   id="stop107" />
	<stop
   offset="1"
   style="stop-color: rgb(255, 117, 18);"
   id="stop109" />
</linearGradient>

<linearGradient
   id="XMLID_26_"
   gradientUnits="userSpaceOnUse"
   x1="103.9541"
   y1="11.4053"
   x2="108.0303"
   y2="106.0095">
	<stop
   offset="0"
   style="stop-color: rgb(153, 153, 153);"
   id="stop114" />
	<stop
   offset="1"
   style="stop-color: rgb(77, 77, 77);"
   id="stop116" />
</linearGradient>




<g
   id="layer1"
   inkscape:label="Shadow"
   transform="matrix(1.0978097,0,0,1.0978097,-82.041039,3.1215153)" /><g
   transform="matrix(1.0978097,0,0,1.0978097,-82.041039,19.661151)"
   inkscape:label="Shadow"
   id="g2611" /><g
   transform="matrix(1.0978097,0,0,1.0978097,-82.041039,19.661151)"
   style="display:inline"
   inkscape:label="Lavoro"
   id="g2613" /><rect
   y="16.781261"
   x="4.1925254"
   height="80.037605"
   width="118.92959"
   id="rect3485"
   style="fill:#d7d9d4;fill-opacity:1;stroke:#868982;stroke-width:2.66666675;stroke-linejoin:round;stroke-miterlimit:4;stroke-dasharray:none;stroke-opacity:1;display:inline"
   ry="1.3061265"
   rx="1.3061265" /><rect
   style="fill:#868982;fill-opacity:1;stroke:none;stroke-width:0.972;stroke-linejoin:round;stroke-miterlimit:4;stroke-dasharray:none;stroke-opacity:1;overflow:visible"
   id="rect4421"
   width="117.33334"
   height="2.6666667"
   x="4.7365394"
   y="24.371452" /><rect
   y="80.484306"
   x="7.5692501"
   height="14.968589"
   width="111.59467"
   id="rect4692"
   style="fill:#c5c8bf;fill-opacity:1;stroke:none;stroke-width:1;stroke-linejoin:miter;stroke-miterlimit:4;stroke-dasharray:none;stroke-opacity:1;display:inline;overflow:visible" /><rect
   y="82.684914"
   x="5.3372626"
   height="8"
   width="116.26667"
   id="rect4596"
   style="fill:#c5c8bf;fill-opacity:1;stroke:none;stroke-width:1;stroke-linejoin:miter;stroke-miterlimit:4;stroke-dasharray:none;stroke-opacity:1;display:inline;overflow:visible" /><rect
   y="82.888855"
   x="7.6071377"
   height="8"
   width="111.59467"
   id="rect4317"
   style="fill:#b4b7af;fill-opacity:1;stroke:none;stroke-width:1;stroke-linejoin:miter;stroke-miterlimit:4;stroke-dasharray:none;stroke-opacity:1;display:inline;overflow:visible" /><rect
   style="fill:#868982;fill-opacity:1;stroke:none;stroke-width:0.972;stroke-linejoin:round;stroke-miterlimit:4;stroke-dasharray:none;stroke-opacity:1"
   id="rect4417"
   width="117.33334"
   height="2.6666667"
   x="4.9699759"
   y="77.478035" /><rect
   y="24.204557"
   x="7.8605394"
   height="55.796749"
   width="111.59349"
   id="rect3441"
   style="fill:url(#linearGradient4517);fill-opacity:1;stroke:none;stroke-width:5;stroke-linejoin:round;stroke-miterlimit:4;stroke-dasharray:none;stroke-opacity:1" /><path
   style="opacity:0.61764706;fill:#b14700;fill-opacity:1;stroke:none;stroke-width:2;stroke-linejoin:round;stroke-miterlimit:4;stroke-dasharray:none;stroke-opacity:1"
   d="M 97.921382,26.865562 C 70.420925,36.88013 54.425928,52.450214 45.921388,76.782229 L 116.83806,76.782229 L 117.00472,61.865563 L 117.00472,26.865562 L 97.921382,26.865562 z"
   id="rect5002"
   sodipodi:nodetypes="cccccc" /><rect
   y="28.90527"
   x="10.364325"
   height="48"
   width="106.66666"
   id="rect4307"
   style="opacity:0.16176471;fill:url(#linearGradient4513);fill-opacity:1;stroke:none;stroke-width:1;stroke-linejoin:miter;stroke-miterlimit:4;stroke-dasharray:none;stroke-opacity:1;display:inline;overflow:visible" /><path
   style="opacity:0.14705882;fill:#b44e0a;fill-opacity:1;stroke:none;stroke-width:2;stroke-linejoin:round;stroke-miterlimit:4;stroke-dasharray:none;stroke-opacity:1;overflow:visible"
   d="M 13.728021,26.833336 C 27.207203,49.601726 67.336425,66.903132 116.72803,70.333337 L 116.72803,26.833336 L 13.728021,26.833336 z"
   id="rect5009" /><path
   style="opacity:0.45;fill:url(#linearGradient4509);fill-opacity:1"
   d="M 10.364318,27.004594 L 10.364318,63.360185 C 49.966008,44.150356 80.136565,46.495592 117.03099,48.454996 L 117.03099,27.004594 L 10.364318,27.004594 z"
   id="path4213"
   sodipodi:nodetypes="ccccc" /><g
   id="g5059"
   transform="matrix(0.824908,0,0,0.824908,-54.280175,16.918797)"><path
     id="path8"
     d="M 82.224569,26.701804 C 82.224569,27.133857 82.631674,27.335068 82.810007,27.335068 L 91.667416,27.335068 C 92.02066,27.313632 92.041916,27.032712 92.041916,26.695229 L 92.041916,26.705046 C 92.041916,26.36207 82.224569,26.701804 82.224569,26.701804 z"
     style="opacity:0.2;fill:url(#linearGradient5661)" /><path
     id="path15"
     d="M 82.224569,26.791871 C 82.224569,27.161958 82.518729,27.425135 82.810007,27.425135 L 91.956622,27.425135 C 92.309866,27.403699 92.597361,27.357224 92.597361,27.019832 L 92.58232,26.795114 C 92.58232,26.461054 82.224569,26.602009 82.224569,26.791871 z"
     style="opacity:0.2;fill:url(#linearGradient5663)" /><path
     id="path29"
     d="M 82.850177,19.418143 C 82.505219,19.418143 82.224569,19.698163 82.224569,20.0424 L 82.224569,26.620743 C 82.224569,26.964981 82.505219,27.245 82.850177,27.245 L 91.236173,27.245 C 91.581131,27.245 91.861691,26.964981 91.861691,26.620743 L 91.861691,20.858951 C 91.861691,20.514714 91.581131,20.234694 91.236173,20.234694 L 87.874407,20.234694 C 87.622849,20.234694 87.30428,20.100314 87.081724,19.900274 C 87.081724,19.900274 86.988504,19.816691 86.988504,19.816691 C 86.798102,19.645653 86.504662,19.418143 86.155741,19.418143 L 82.850177,19.418143 L 82.850177,19.418143 z"
     style="opacity:0.75;fill:url(#linearGradient5665)" /><path
     id="path40"
     d="M 91.771714,26.620743 C 91.771714,26.914633 91.530693,27.154933 91.236263,27.154933 L 82.850177,27.154933 C 82.555657,27.154933 82.314636,26.914633 82.314636,26.620743 L 82.314636,20.0424 C 82.314636,19.7486 82.555657,19.508211 82.850177,19.508211 L 86.155741,19.508211 C 86.450351,19.508211 86.709565,19.687175 86.928339,19.883702 L 87.021469,19.967284 C 87.240242,20.163811 87.579887,20.324762 87.874407,20.324762 L 91.236263,20.324762 C 91.530783,20.324762 91.771714,20.565061 91.771714,20.858951 L 91.771714,26.620743 z"
     style="fill:url(#linearGradient5667)" /><path
     id="path42"
     d="M 91.236263,20.324852 L 87.874407,20.324852 C 87.579887,20.324852 87.240242,20.163901 87.021469,19.967374 L 86.928339,19.883792 C 86.709655,19.687265 86.450351,19.508301 86.155741,19.508301 L 82.850177,19.508301 C 82.555657,19.508211 82.314636,19.7486 82.314636,20.0424 L 82.314636,20.132468 C 82.314636,19.838668 82.555657,19.598278 82.850177,19.598278 L 86.155741,19.598278 C 86.450351,19.598278 86.709565,19.777242 86.928339,19.973769 L 87.021469,20.057352 C 87.240242,20.253879 87.579887,20.414829 87.874407,20.414829 L 91.236263,20.414829 C 91.530783,20.414829 91.771714,20.655129 91.771714,20.949019 L 91.771714,20.858951 C 91.771714,20.565152 91.530693,20.324852 91.236263,20.324852 z"
     style="fill:#ffffff" /><path
     id="path51"
     d="M 82.525754,26.958226 C 82.525754,26.958226 82.614381,26.973357 82.671213,26.932647 C 82.731198,26.889594 82.764973,26.767193 82.764973,26.605162 L 82.764973,22.843587 C 82.764973,22.50061 83.045714,22.221671 83.390672,22.221671 L 86.750906,22.221671 C 87.020748,22.221671 87.34373,22.040906 87.54413,21.861672 L 87.63717,21.77845 C 87.922143,21.523469 88.194507,21.399536 88.470023,21.399536 L 91.771714,21.399536 L 91.771714,21.345496 L 88.379955,21.345496 C 88.104439,21.345496 87.832075,21.469428 87.547102,21.724409 L 87.454062,21.807631 C 87.253663,21.986775 86.930681,22.167631 86.660839,22.167631 L 83.300604,22.167631 C 82.955646,22.167631 82.674906,22.44666 82.674906,22.789636 L 82.674906,26.551121 C 82.68049,26.732787 82.630323,26.900403 82.569797,26.943004 C 82.557908,26.951291 82.525754,26.958226 82.525754,26.958226 z"
     style="fill:url(#linearGradient5669)" /><path
     id="path58"
     d="M 88.470023,21.399626 C 88.194507,21.399626 87.922143,21.523559 87.63717,21.77854 L 87.54413,21.861762 C 87.34373,22.040906 87.020748,22.221671 86.750906,22.221671 L 83.390672,22.221671 C 83.045714,22.221671 82.764973,22.5007 82.764973,22.843587 L 82.764973,26.605072 C 82.764973,26.771426 82.731648,26.890135 82.673555,26.931025 C 82.63951,26.954983 82.579435,26.972096 82.510173,26.954983 C 82.441541,26.938051 82.414071,26.904365 82.369397,26.862934 C 82.347691,26.900853 82.3993,27.052436 82.432895,27.080357 C 82.45262,27.09684 82.618614,27.235183 82.824148,27.235183 L 92.046689,27.245 C 92.400024,27.223564 92.672388,26.942554 92.672388,26.605162 L 92.672388,22.021541 C 92.672388,21.678655 92.391738,21.399626 92.046689,21.399626 L 88.470023,21.399626 z"
     style="opacity:0.75;fill:url(#linearGradient5671)" /><path
     id="path69"
     d="M 82.855041,26.605162 C 82.855041,26.912922 82.718499,27.131065 82.490538,27.015689 C 82.490538,27.015689 82.657973,27.155023 82.810007,27.155023 C 82.962041,27.155023 92.046689,27.155023 92.046689,27.155023 C 92.3413,27.13701 92.58232,26.897701 92.58232,26.605252 L 92.58232,22.021541 C 92.58232,21.729003 92.3413,21.489693 92.046689,21.489693 L 88.470023,21.489693 C 88.175412,21.489693 87.916018,21.649923 87.697244,21.84564 L 87.604205,21.928862 C 87.385341,22.124488 87.045607,22.311739 86.750906,22.311739 L 83.390672,22.311739 C 83.096061,22.311739 82.855041,22.551048 82.855041,22.843587 L 82.855041,26.605162 z"
     style="fill:url(#radialGradient5673)" /><path
     id="path80"
     d="M 92.046689,21.489693 L 91.771714,21.489693 L 91.771714,27.154933 C 92.003907,27.154933 92.046689,27.154933 92.046689,27.154933 C 92.3413,27.13692 92.58232,26.89761 92.58232,26.605162 L 92.58232,22.021541 C 92.58232,21.729003 92.3413,21.489693 92.046689,21.489693 z"
     style="fill:url(#radialGradient5675)" /><path
     id="path91"
     d="M 92.046689,26.974798 C 92.046689,26.974798 82.954655,26.927963 82.810007,26.974798 C 82.780825,26.984165 82.755246,26.991821 82.732009,26.998216 C 82.675897,27.041358 82.575382,27.074773 82.494411,27.015329 C 82.537913,27.049554 82.682382,27.154933 82.810007,27.154933 C 82.962041,27.154933 92.046689,27.154933 92.046689,27.154933 C 92.3413,27.13692 92.58232,26.89761 92.58232,26.605162 L 92.58232,26.515094 C 92.58232,26.807543 92.3413,26.956785 92.046689,26.974798 z"
     style="fill:url(#linearGradient5677)" /><path
     id="path104"
     d="M 87.505761,24.262959 C 90.037916,23.95754 92.58232,23.88999 92.58232,23.88999 L 92.58232,22.021541 C 92.58232,21.729003 92.3413,21.489693 92.046689,21.489693 L 88.470023,21.489693 C 88.175412,21.489693 87.916018,21.649923 87.697244,21.84564 L 87.604205,21.928862 C 87.385341,22.124488 87.045607,22.311739 86.750906,22.311739 L 83.390672,22.311739 C 83.096061,22.311739 82.855041,22.551048 82.855041,22.843587 L 82.855041,25.60127 C 82.855041,25.60127 84.973516,24.568287 87.505761,24.262959 z"
     style="fill:url(#radialGradient5679)" /><path
     id="path111"
     d="M 92.046689,21.489693 L 88.470023,21.489693 C 88.175412,21.489693 87.916018,21.649923 87.697244,21.84564 L 87.604205,21.928862 C 87.385341,22.124488 87.045607,22.311739 86.750906,22.311739 L 83.390672,22.311739 C 83.096061,22.311739 82.855041,22.551048 82.855041,22.843587 L 82.855041,22.933654 C 82.855041,22.641115 83.096061,22.401806 83.390672,22.401806 L 86.750906,22.401806 C 87.045517,22.401806 87.385341,22.214556 87.604205,22.018929 L 87.697244,21.935707 C 87.916018,21.739991 88.175412,21.579761 88.470023,21.579761 L 92.046689,21.579761 C 92.3413,21.579761 92.58232,21.81907 92.58232,22.111609 L 92.58232,22.021541 C 92.58232,21.729003 92.3413,21.489693 92.046689,21.489693 z"
     style="fill:url(#linearGradient5681)" /><rect
     id="rect118"
     height="5.6742463"
     width="0.090067402"
     style="opacity:0.15;fill:url(#linearGradient5683)"
     y="21.480686"
     x="91.771713" /><path
     id="path120"
     d="M 85.984063,20.129676 C 85.984063,20.22875 85.903002,20.30981 85.803928,20.30981 L 83.011838,20.30981 C 82.912764,20.30981 82.831704,20.22875 82.831704,20.129676 L 82.831704,19.949541 C 82.831704,19.850467 82.912764,19.769406 83.011838,19.769406 L 85.803928,19.769406 C 85.903002,19.769406 85.984063,19.850467 85.984063,19.949541 L 85.984063,20.129676 z"
     style="fill:#f3af61" /></g><g
   style="overflow:visible"
   id="g5075"
   transform="matrix(0.824908,0,0,0.824908,-54.280175,34.069318)"><path
     id="path5077"
     d="M 82.224569,26.701804 C 82.224569,27.133857 82.631674,27.335068 82.810007,27.335068 L 91.667416,27.335068 C 92.02066,27.313632 92.041916,27.032712 92.041916,26.695229 L 92.041916,26.705046 C 92.041916,26.36207 82.224569,26.701804 82.224569,26.701804 z"
     style="opacity:0.2;fill:url(#linearGradient5685)" /><path
     id="path5079"
     d="M 82.224569,26.791871 C 82.224569,27.161958 82.518729,27.425135 82.810007,27.425135 L 91.956622,27.425135 C 92.309866,27.403699 92.597361,27.357224 92.597361,27.019832 L 92.58232,26.795114 C 92.58232,26.461054 82.224569,26.602009 82.224569,26.791871 z"
     style="opacity:0.2;fill:url(#linearGradient5687)" /><path
     id="path5081"
     d="M 82.850177,19.418143 C 82.505219,19.418143 82.224569,19.698163 82.224569,20.0424 L 82.224569,26.620743 C 82.224569,26.964981 82.505219,27.245 82.850177,27.245 L 91.236173,27.245 C 91.581131,27.245 91.861691,26.964981 91.861691,26.620743 L 91.861691,20.858951 C 91.861691,20.514714 91.581131,20.234694 91.236173,20.234694 L 87.874407,20.234694 C 87.622849,20.234694 87.30428,20.100314 87.081724,19.900274 C 87.081724,19.900274 86.988504,19.816691 86.988504,19.816691 C 86.798102,19.645653 86.504662,19.418143 86.155741,19.418143 L 82.850177,19.418143 L 82.850177,19.418143 z"
     style="opacity:0.75;fill:url(#linearGradient5689)" /><path
     id="path5083"
     d="M 91.771714,26.620743 C 91.771714,26.914633 91.530693,27.154933 91.236263,27.154933 L 82.850177,27.154933 C 82.555657,27.154933 82.314636,26.914633 82.314636,26.620743 L 82.314636,20.0424 C 82.314636,19.7486 82.555657,19.508211 82.850177,19.508211 L 86.155741,19.508211 C 86.450351,19.508211 86.709565,19.687175 86.928339,19.883702 L 87.021469,19.967284 C 87.240242,20.163811 87.579887,20.324762 87.874407,20.324762 L 91.236263,20.324762 C 91.530783,20.324762 91.771714,20.565061 91.771714,20.858951 L 91.771714,26.620743 z"
     style="fill:url(#linearGradient5691)" /><path
     id="path5085"
     d="M 91.236263,20.324852 L 87.874407,20.324852 C 87.579887,20.324852 87.240242,20.163901 87.021469,19.967374 L 86.928339,19.883792 C 86.709655,19.687265 86.450351,19.508301 86.155741,19.508301 L 82.850177,19.508301 C 82.555657,19.508211 82.314636,19.7486 82.314636,20.0424 L 82.314636,20.132468 C 82.314636,19.838668 82.555657,19.598278 82.850177,19.598278 L 86.155741,19.598278 C 86.450351,19.598278 86.709565,19.777242 86.928339,19.973769 L 87.021469,20.057352 C 87.240242,20.253879 87.579887,20.414829 87.874407,20.414829 L 91.236263,20.414829 C 91.530783,20.414829 91.771714,20.655129 91.771714,20.949019 L 91.771714,20.858951 C 91.771714,20.565152 91.530693,20.324852 91.236263,20.324852 z"
     style="fill:#ffffff" /><path
     id="path5087"
     d="M 82.525754,26.958226 C 82.525754,26.958226 82.614381,26.973357 82.671213,26.932647 C 82.731198,26.889594 82.764973,26.767193 82.764973,26.605162 L 82.764973,22.843587 C 82.764973,22.50061 83.045714,22.221671 83.390672,22.221671 L 86.750906,22.221671 C 87.020748,22.221671 87.34373,22.040906 87.54413,21.861672 L 87.63717,21.77845 C 87.922143,21.523469 88.194507,21.399536 88.470023,21.399536 L 91.771714,21.399536 L 91.771714,21.345496 L 88.379955,21.345496 C 88.104439,21.345496 87.832075,21.469428 87.547102,21.724409 L 87.454062,21.807631 C 87.253663,21.986775 86.930681,22.167631 86.660839,22.167631 L 83.300604,22.167631 C 82.955646,22.167631 82.674906,22.44666 82.674906,22.789636 L 82.674906,26.551121 C 82.68049,26.732787 82.630323,26.900403 82.569797,26.943004 C 82.557908,26.951291 82.525754,26.958226 82.525754,26.958226 z"
     style="fill:url(#linearGradient5693)" /><path
     id="path5089"
     d="M 88.470023,21.399626 C 88.194507,21.399626 87.922143,21.523559 87.63717,21.77854 L 87.54413,21.861762 C 87.34373,22.040906 87.020748,22.221671 86.750906,22.221671 L 83.390672,22.221671 C 83.045714,22.221671 82.764973,22.5007 82.764973,22.843587 L 82.764973,26.605072 C 82.764973,26.771426 82.731648,26.890135 82.673555,26.931025 C 82.63951,26.954983 82.579435,26.972096 82.510173,26.954983 C 82.441541,26.938051 82.414071,26.904365 82.369397,26.862934 C 82.347691,26.900853 82.3993,27.052436 82.432895,27.080357 C 82.45262,27.09684 82.618614,27.235183 82.824148,27.235183 L 92.046689,27.245 C 92.400024,27.223564 92.672388,26.942554 92.672388,26.605162 L 92.672388,22.021541 C 92.672388,21.678655 92.391738,21.399626 92.046689,21.399626 L 88.470023,21.399626 z"
     style="opacity:0.75;fill:url(#linearGradient5695)" /><path
     id="path5091"
     d="M 82.855041,26.605162 C 82.855041,26.912922 82.718499,27.131065 82.490538,27.015689 C 82.490538,27.015689 82.657973,27.155023 82.810007,27.155023 C 82.962041,27.155023 92.046689,27.155023 92.046689,27.155023 C 92.3413,27.13701 92.58232,26.897701 92.58232,26.605252 L 92.58232,22.021541 C 92.58232,21.729003 92.3413,21.489693 92.046689,21.489693 L 88.470023,21.489693 C 88.175412,21.489693 87.916018,21.649923 87.697244,21.84564 L 87.604205,21.928862 C 87.385341,22.124488 87.045607,22.311739 86.750906,22.311739 L 83.390672,22.311739 C 83.096061,22.311739 82.855041,22.551048 82.855041,22.843587 L 82.855041,26.605162 z"
     style="fill:url(#radialGradient5697)" /><path
     id="path5093"
     d="M 92.046689,21.489693 L 91.771714,21.489693 L 91.771714,27.154933 C 92.003907,27.154933 92.046689,27.154933 92.046689,27.154933 C 92.3413,27.13692 92.58232,26.89761 92.58232,26.605162 L 92.58232,22.021541 C 92.58232,21.729003 92.3413,21.489693 92.046689,21.489693 z"
     style="fill:url(#radialGradient5699)" /><path
     id="path5095"
     d="M 92.046689,26.974798 C 92.046689,26.974798 82.954655,26.927963 82.810007,26.974798 C 82.780825,26.984165 82.755246,26.991821 82.732009,26.998216 C 82.675897,27.041358 82.575382,27.074773 82.494411,27.015329 C 82.537913,27.049554 82.682382,27.154933 82.810007,27.154933 C 82.962041,27.154933 92.046689,27.154933 92.046689,27.154933 C 92.3413,27.13692 92.58232,26.89761 92.58232,26.605162 L 92.58232,26.515094 C 92.58232,26.807543 92.3413,26.956785 92.046689,26.974798 z"
     style="fill:url(#linearGradient5701)" /><path
     id="path5097"
     d="M 87.505761,24.262959 C 90.037916,23.95754 92.58232,23.88999 92.58232,23.88999 L 92.58232,22.021541 C 92.58232,21.729003 92.3413,21.489693 92.046689,21.489693 L 88.470023,21.489693 C 88.175412,21.489693 87.916018,21.649923 87.697244,21.84564 L 87.604205,21.928862 C 87.385341,22.124488 87.045607,22.311739 86.750906,22.311739 L 83.390672,22.311739 C 83.096061,22.311739 82.855041,22.551048 82.855041,22.843587 L 82.855041,25.60127 C 82.855041,25.60127 84.973516,24.568287 87.505761,24.262959 z"
     style="fill:url(#radialGradient5703)" /><path
     id="path5099"
     d="M 92.046689,21.489693 L 88.470023,21.489693 C 88.175412,21.489693 87.916018,21.649923 87.697244,21.84564 L 87.604205,21.928862 C 87.385341,22.124488 87.045607,22.311739 86.750906,22.311739 L 83.390672,22.311739 C 83.096061,22.311739 82.855041,22.551048 82.855041,22.843587 L 82.855041,22.933654 C 82.855041,22.641115 83.096061,22.401806 83.390672,22.401806 L 86.750906,22.401806 C 87.045517,22.401806 87.385341,22.214556 87.604205,22.018929 L 87.697244,21.935707 C 87.916018,21.739991 88.175412,21.579761 88.470023,21.579761 L 92.046689,21.579761 C 92.3413,21.579761 92.58232,21.81907 92.58232,22.111609 L 92.58232,22.021541 C 92.58232,21.729003 92.3413,21.489693 92.046689,21.489693 z"
     style="fill:url(#linearGradient5705)" /><rect
     id="rect5101"
     height="5.6742463"
     width="0.090067402"
     style="opacity:0.15;fill:url(#linearGradient5707)"
     y="21.480686"
     x="91.771713" /><path
     id="path5103"
     d="M 85.984063,20.129676 C 85.984063,20.22875 85.903002,20.30981 85.803928,20.30981 L 83.011838,20.30981 C 82.912764,20.30981 82.831704,20.22875 82.831704,20.129676 L 82.831704,19.949541 C 82.831704,19.850467 82.912764,19.769406 83.011838,19.769406 L 85.803928,19.769406 C 85.903002,19.769406 85.984063,19.850467 85.984063,19.949541 L 85.984063,20.129676 z"
     style="fill:#f3af61" /></g><g
   style="overflow:visible"
   id="g5129"
   transform="matrix(0.824908,0,0,0.824908,-54.280175,49.761417)"><path
     id="path5131"
     d="M 82.224569,26.701804 C 82.224569,27.133857 82.631674,27.335068 82.810007,27.335068 L 91.667416,27.335068 C 92.02066,27.313632 92.041916,27.032712 92.041916,26.695229 L 92.041916,26.705046 C 92.041916,26.36207 82.224569,26.701804 82.224569,26.701804 z"
     style="opacity:0.2;fill:url(#linearGradient5709)" /><path
     id="path5133"
     d="M 82.224569,26.791871 C 82.224569,27.161958 82.518729,27.425135 82.810007,27.425135 L 91.956622,27.425135 C 92.309866,27.403699 92.597361,27.357224 92.597361,27.019832 L 92.58232,26.795114 C 92.58232,26.461054 82.224569,26.602009 82.224569,26.791871 z"
     style="opacity:0.2;fill:url(#linearGradient5711)" /><path
     id="path5135"
     d="M 82.850177,19.418143 C 82.505219,19.418143 82.224569,19.698163 82.224569,20.0424 L 82.224569,26.620743 C 82.224569,26.964981 82.505219,27.245 82.850177,27.245 L 91.236173,27.245 C 91.581131,27.245 91.861691,26.964981 91.861691,26.620743 L 91.861691,20.858951 C 91.861691,20.514714 91.581131,20.234694 91.236173,20.234694 L 87.874407,20.234694 C 87.622849,20.234694 87.30428,20.100314 87.081724,19.900274 C 87.081724,19.900274 86.988504,19.816691 86.988504,19.816691 C 86.798102,19.645653 86.504662,19.418143 86.155741,19.418143 L 82.850177,19.418143 L 82.850177,19.418143 z"
     style="opacity:0.75;fill:url(#linearGradient5713)" /><path
     id="path5137"
     d="M 91.771714,26.620743 C 91.771714,26.914633 91.530693,27.154933 91.236263,27.154933 L 82.850177,27.154933 C 82.555657,27.154933 82.314636,26.914633 82.314636,26.620743 L 82.314636,20.0424 C 82.314636,19.7486 82.555657,19.508211 82.850177,19.508211 L 86.155741,19.508211 C 86.450351,19.508211 86.709565,19.687175 86.928339,19.883702 L 87.021469,19.967284 C 87.240242,20.163811 87.579887,20.324762 87.874407,20.324762 L 91.236263,20.324762 C 91.530783,20.324762 91.771714,20.565061 91.771714,20.858951 L 91.771714,26.620743 z"
     style="fill:url(#linearGradient5715)" /><path
     id="path5139"
     d="M 91.236263,20.324852 L 87.874407,20.324852 C 87.579887,20.324852 87.240242,20.163901 87.021469,19.967374 L 86.928339,19.883792 C 86.709655,19.687265 86.450351,19.508301 86.155741,19.508301 L 82.850177,19.508301 C 82.555657,19.508211 82.314636,19.7486 82.314636,20.0424 L 82.314636,20.132468 C 82.314636,19.838668 82.555657,19.598278 82.850177,19.598278 L 86.155741,19.598278 C 86.450351,19.598278 86.709565,19.777242 86.928339,19.973769 L 87.021469,20.057352 C 87.240242,20.253879 87.579887,20.414829 87.874407,20.414829 L 91.236263,20.414829 C 91.530783,20.414829 91.771714,20.655129 91.771714,20.949019 L 91.771714,20.858951 C 91.771714,20.565152 91.530693,20.324852 91.236263,20.324852 z"
     style="fill:#ffffff" /><path
     id="path5141"
     d="M 82.525754,26.958226 C 82.525754,26.958226 82.614381,26.973357 82.671213,26.932647 C 82.731198,26.889594 82.764973,26.767193 82.764973,26.605162 L 82.764973,22.843587 C 82.764973,22.50061 83.045714,22.221671 83.390672,22.221671 L 86.750906,22.221671 C 87.020748,22.221671 87.34373,22.040906 87.54413,21.861672 L 87.63717,21.77845 C 87.922143,21.523469 88.194507,21.399536 88.470023,21.399536 L 91.771714,21.399536 L 91.771714,21.345496 L 88.379955,21.345496 C 88.104439,21.345496 87.832075,21.469428 87.547102,21.724409 L 87.454062,21.807631 C 87.253663,21.986775 86.930681,22.167631 86.660839,22.167631 L 83.300604,22.167631 C 82.955646,22.167631 82.674906,22.44666 82.674906,22.789636 L 82.674906,26.551121 C 82.68049,26.732787 82.630323,26.900403 82.569797,26.943004 C 82.557908,26.951291 82.525754,26.958226 82.525754,26.958226 z"
     style="fill:url(#linearGradient5717)" /><path
     id="path5143"
     d="M 88.470023,21.399626 C 88.194507,21.399626 87.922143,21.523559 87.63717,21.77854 L 87.54413,21.861762 C 87.34373,22.040906 87.020748,22.221671 86.750906,22.221671 L 83.390672,22.221671 C 83.045714,22.221671 82.764973,22.5007 82.764973,22.843587 L 82.764973,26.605072 C 82.764973,26.771426 82.731648,26.890135 82.673555,26.931025 C 82.63951,26.954983 82.579435,26.972096 82.510173,26.954983 C 82.441541,26.938051 82.414071,26.904365 82.369397,26.862934 C 82.347691,26.900853 82.3993,27.052436 82.432895,27.080357 C 82.45262,27.09684 82.618614,27.235183 82.824148,27.235183 L 92.046689,27.245 C 92.400024,27.223564 92.672388,26.942554 92.672388,26.605162 L 92.672388,22.021541 C 92.672388,21.678655 92.391738,21.399626 92.046689,21.399626 L 88.470023,21.399626 z"
     style="opacity:0.75;fill:url(#linearGradient5719)" /><path
     id="path5145"
     d="M 82.855041,26.605162 C 82.855041,26.912922 82.718499,27.131065 82.490538,27.015689 C 82.490538,27.015689 82.657973,27.155023 82.810007,27.155023 C 82.962041,27.155023 92.046689,27.155023 92.046689,27.155023 C 92.3413,27.13701 92.58232,26.897701 92.58232,26.605252 L 92.58232,22.021541 C 92.58232,21.729003 92.3413,21.489693 92.046689,21.489693 L 88.470023,21.489693 C 88.175412,21.489693 87.916018,21.649923 87.697244,21.84564 L 87.604205,21.928862 C 87.385341,22.124488 87.045607,22.311739 86.750906,22.311739 L 83.390672,22.311739 C 83.096061,22.311739 82.855041,22.551048 82.855041,22.843587 L 82.855041,26.605162 z"
     style="fill:url(#radialGradient5721)" /><path
     id="path5147"
     d="M 92.046689,21.489693 L 91.771714,21.489693 L 91.771714,27.154933 C 92.003907,27.154933 92.046689,27.154933 92.046689,27.154933 C 92.3413,27.13692 92.58232,26.89761 92.58232,26.605162 L 92.58232,22.021541 C 92.58232,21.729003 92.3413,21.489693 92.046689,21.489693 z"
     style="fill:url(#radialGradient5723)" /><path
     id="path5149"
     d="M 92.046689,26.974798 C 92.046689,26.974798 82.954655,26.927963 82.810007,26.974798 C 82.780825,26.984165 82.755246,26.991821 82.732009,26.998216 C 82.675897,27.041358 82.575382,27.074773 82.494411,27.015329 C 82.537913,27.049554 82.682382,27.154933 82.810007,27.154933 C 82.962041,27.154933 92.046689,27.154933 92.046689,27.154933 C 92.3413,27.13692 92.58232,26.89761 92.58232,26.605162 L 92.58232,26.515094 C 92.58232,26.807543 92.3413,26.956785 92.046689,26.974798 z"
     style="fill:url(#linearGradient5725)" /><path
     id="path5151"
     d="M 87.505761,24.262959 C 90.037916,23.95754 92.58232,23.88999 92.58232,23.88999 L 92.58232,22.021541 C 92.58232,21.729003 92.3413,21.489693 92.046689,21.489693 L 88.470023,21.489693 C 88.175412,21.489693 87.916018,21.649923 87.697244,21.84564 L 87.604205,21.928862 C 87.385341,22.124488 87.045607,22.311739 86.750906,22.311739 L 83.390672,22.311739 C 83.096061,22.311739 82.855041,22.551048 82.855041,22.843587 L 82.855041,25.60127 C 82.855041,25.60127 84.973516,24.568287 87.505761,24.262959 z"
     style="fill:url(#radialGradient5727)" /><path
     id="path5153"
     d="M 92.046689,21.489693 L 88.470023,21.489693 C 88.175412,21.489693 87.916018,21.649923 87.697244,21.84564 L 87.604205,21.928862 C 87.385341,22.124488 87.045607,22.311739 86.750906,22.311739 L 83.390672,22.311739 C 83.096061,22.311739 82.855041,22.551048 82.855041,22.843587 L 82.855041,22.933654 C 82.855041,22.641115 83.096061,22.401806 83.390672,22.401806 L 86.750906,22.401806 C 87.045517,22.401806 87.385341,22.214556 87.604205,22.018929 L 87.697244,21.935707 C 87.916018,21.739991 88.175412,21.579761 88.470023,21.579761 L 92.046689,21.579761 C 92.3413,21.579761 92.58232,21.81907 92.58232,22.111609 L 92.58232,22.021541 C 92.58232,21.729003 92.3413,21.489693 92.046689,21.489693 z"
     style="fill:url(#linearGradient5729)" /><rect
     id="rect5155"
     height="5.6742463"
     width="0.090067402"
     style="opacity:0.15;fill:url(#linearGradient5731)"
     y="21.480686"
     x="91.771713" /><path
     id="path5157"
     d="M 85.984063,20.129676 C 85.984063,20.22875 85.903002,20.30981 85.803928,20.30981 L 83.011838,20.30981 C 82.912764,20.30981 82.831704,20.22875 82.831704,20.129676 L 82.831704,19.949541 C 82.831704,19.850467 82.912764,19.769406 83.011838,19.769406 L 85.803928,19.769406 C 85.903002,19.769406 85.984063,19.850467 85.984063,19.949541 L 85.984063,20.129676 z"
     style="fill:#f3af61" /></g><g
   id="g3683"
   transform="translate(-68.320222,13.333334)"><g
     id="g3295"
     transform="matrix(2.6778786,0,0,2.6778786,275.16572,65.217358)"><g
       id="g3285"><rect
         style="opacity:1;fill:#868982;fill-opacity:1;stroke:none;stroke-width:5;stroke-linejoin:round;stroke-miterlimit:4;stroke-dasharray:none;stroke-opacity:1"
         id="rect3269"
         width="1"
         height="1"
         x="-72.543587"
         y="2.6212144" /><rect
         style="opacity:1;fill:#868982;fill-opacity:1;stroke:none;stroke-width:5;stroke-linejoin:round;stroke-miterlimit:4;stroke-dasharray:none;stroke-opacity:1;display:inline"
         id="rect3271"
         width="1"
         height="1"
         x="-70.546021"
         y="2.6212144" /><rect
         style="opacity:1;fill:#868982;fill-opacity:1;stroke:none;stroke-width:5;stroke-linejoin:round;stroke-miterlimit:4;stroke-dasharray:none;stroke-opacity:1;display:inline"
         id="rect3273"
         width="1"
         height="1"
         x="-73.53405"
         y="3.6074431" /><rect
         style="opacity:1;fill:#868982;fill-opacity:1;stroke:none;stroke-width:5;stroke-linejoin:round;stroke-miterlimit:4;stroke-dasharray:none;stroke-opacity:1;display:inline"
         id="rect3275"
         width="1"
         height="1"
         x="-71.546844"
         y="3.6074431" /><rect
         style="opacity:1;fill:#868982;fill-opacity:1;stroke:none;stroke-width:5;stroke-linejoin:round;stroke-miterlimit:4;stroke-dasharray:none;stroke-opacity:1;display:inline"
         id="rect3277"
         width="1"
         height="1"
         x="-69.548592"
         y="3.6074431" /><rect
         style="opacity:1;fill:#868982;fill-opacity:1;stroke:none;stroke-width:5;stroke-linejoin:round;stroke-miterlimit:4;stroke-dasharray:none;stroke-opacity:1;display:inline"
         id="rect3279"
         width="1"
         height="1"
         x="-73.53405"
         y="1.6200037" /><rect
         style="opacity:1;fill:#868982;fill-opacity:1;stroke:none;stroke-width:5;stroke-linejoin:round;stroke-miterlimit:4;stroke-dasharray:none;stroke-opacity:1;display:inline"
         id="rect3281"
         width="1"
         height="1"
         x="-71.546844"
         y="1.6200037" /><rect
         style="opacity:1;fill:#868982;fill-opacity:1;stroke:none;stroke-width:5;stroke-linejoin:round;stroke-miterlimit:4;stroke-dasharray:none;stroke-opacity:1;display:inline"
         id="rect3283"
         width="1"
         height="1"
         x="-69.548592"
         y="1.6200037" /></g></g><g
     style="display:inline"
     id="g3306"
     transform="matrix(2.6778786,0,0,2.6778786,368.76374,65.217358)"><g
       id="g3308"><rect
         style="opacity:1;fill:#868982;fill-opacity:1;stroke:none;stroke-width:5;stroke-linejoin:round;stroke-miterlimit:4;stroke-dasharray:none;stroke-opacity:1"
         id="rect3310"
         width="1"
         height="1"
         x="-72.543587"
         y="2.6212144" /><rect
         style="opacity:1;fill:#868982;fill-opacity:1;stroke:none;stroke-width:5;stroke-linejoin:round;stroke-miterlimit:4;stroke-dasharray:none;stroke-opacity:1;display:inline"
         id="rect3312"
         width="1"
         height="1"
         x="-70.546021"
         y="2.6212144" /><rect
         style="opacity:1;fill:#868982;fill-opacity:1;stroke:none;stroke-width:5;stroke-linejoin:round;stroke-miterlimit:4;stroke-dasharray:none;stroke-opacity:1;display:inline"
         id="rect3314"
         width="1"
         height="1"
         x="-73.53405"
         y="3.6074431" /><rect
         style="opacity:1;fill:#868982;fill-opacity:1;stroke:none;stroke-width:5;stroke-linejoin:round;stroke-miterlimit:4;stroke-dasharray:none;stroke-opacity:1;display:inline"
         id="rect3316"
         width="1"
         height="1"
         x="-71.546844"
         y="3.6074431" /><rect
         style="opacity:1;fill:#868982;fill-opacity:1;stroke:none;stroke-width:5;stroke-linejoin:round;stroke-miterlimit:4;stroke-dasharray:none;stroke-opacity:1;display:inline"
         id="rect3318"
         width="1"
         height="1"
         x="-69.548592"
         y="3.6074431" /><rect
         style="opacity:1;fill:#868982;fill-opacity:1;stroke:none;stroke-width:5;stroke-linejoin:round;stroke-miterlimit:4;stroke-dasharray:none;stroke-opacity:1;display:inline"
         id="rect3320"
         width="1"
         height="1"
         x="-73.53405"
         y="1.6200037" /><rect
         style="opacity:1;fill:#868982;fill-opacity:1;stroke:none;stroke-width:5;stroke-linejoin:round;stroke-miterlimit:4;stroke-dasharray:none;stroke-opacity:1;display:inline"
         id="rect3322"
         width="1"
         height="1"
         x="-71.546844"
         y="1.6200037" /><rect
         style="opacity:1;fill:#868982;fill-opacity:1;stroke:none;stroke-width:5;stroke-linejoin:round;stroke-miterlimit:4;stroke-dasharray:none;stroke-opacity:1;display:inline"
         id="rect3324"
         width="1"
         height="1"
         x="-69.548592"
         y="1.6200037" /></g></g><g
     id="g3397"
     transform="matrix(2.6778786,0,0,2.6778786,226.53205,-72.245137)"><rect
       y="54.938412"
       x="-29.391191"
       height="1"
       width="1"
       id="rect3334"
       style="fill:#cdd2c8;fill-opacity:1;stroke:none;stroke-width:5;stroke-linejoin:round;stroke-miterlimit:4;stroke-dasharray:none;stroke-opacity:1;display:inline" /><rect
       y="54.938412"
       x="-27.403986"
       height="1"
       width="1"
       id="rect3336"
       style="fill:#cdd2c8;fill-opacity:1;stroke:none;stroke-width:5;stroke-linejoin:round;stroke-miterlimit:4;stroke-dasharray:none;stroke-opacity:1;display:inline" /><rect
       y="54.938412"
       x="-25.405733"
       height="1"
       width="1"
       id="rect3338"
       style="fill:#cdd2c8;fill-opacity:1;stroke:none;stroke-width:5;stroke-linejoin:round;stroke-miterlimit:4;stroke-dasharray:none;stroke-opacity:1;display:inline" /><rect
       y="52.954254"
       x="-29.391191"
       height="2"
       width="1"
       id="rect3340"
       style="fill:#868982;fill-opacity:1;stroke:none;stroke-width:5;stroke-linejoin:round;stroke-miterlimit:4;stroke-dasharray:none;stroke-opacity:1;display:inline" /><rect
       y="52.954254"
       x="-27.403986"
       height="2"
       width="1"
       id="rect3342"
       style="fill:#868982;fill-opacity:1;stroke:none;stroke-width:5;stroke-linejoin:round;stroke-miterlimit:4;stroke-dasharray:none;stroke-opacity:1;display:inline" /><rect
       y="52.954254"
       x="-25.405733"
       height="2"
       width="1"
       id="rect3344"
       style="fill:#868982;fill-opacity:1;stroke:none;stroke-width:5;stroke-linejoin:round;stroke-miterlimit:4;stroke-dasharray:none;stroke-opacity:1;display:inline" /></g><g
     id="g3405"
     transform="matrix(2.6778786,0,0,2.6778786,258.2856,-73.661194)"><rect
       transform="scale(1,-1)"
       y="-54.483051"
       x="-35.201279"
       height="1"
       width="1"
       id="rect3393"
       style="fill:#66cc00;fill-opacity:1;stroke:none;stroke-width:5;stroke-linejoin:round;stroke-miterlimit:4;stroke-dasharray:none;stroke-opacity:1;display:inline" /><rect
       transform="scale(1,-1)"
       y="-56.467209"
       x="-35.201279"
       height="2"
       width="1"
       id="rect3395"
       style="fill:#99ff00;fill-opacity:1;stroke:none;stroke-width:5;stroke-linejoin:round;stroke-miterlimit:4;stroke-dasharray:none;stroke-opacity:1;display:inline" /></g></g><g
   id="g4125"
   transform="matrix(2.6666667,0,0,2.6666667,177.55087,-23.085546)"><path
     style="opacity:0.1;fill:#000000;fill-opacity:1;fill-rule:evenodd;stroke:#000000;stroke-width:1.00000024px;stroke-linecap:butt;stroke-linejoin:miter;stroke-opacity:1;display:inline"
     d="M -57.923691,22.327005 L -57.923691,52.327005 C -47.257861,52.248124 -36.588734,52.44985 -25.923691,52.295755 C -25.923691,52.295755 -25.923691,49.457283 -25.923691,46.827005 L -57.923691,22.327005 z M -51.923691,35.327005 L -36.923691,46.327005 L -51.923691,46.327005 L -51.923691,35.327005 z"
     id="path15577"
     sodipodi:nodetypes="ccccccccc" /><g
     style="display:inline"
     id="g10824"
     transform="translate(-116.42369,6.3984344)"><path
       id="path4319"
       d="M 57.5,14.928571 L 57.5,44.928571 L 96.5,44.928571 L 57.5,14.928571 z M 63.5,27.928571 L 78.5,38.928571 L 63.5,38.928571 L 63.5,27.928571 z"
       style="fill:url(#linearGradient4136);fill-opacity:1;fill-rule:evenodd;stroke:#a38503;stroke-width:1.00000024px;stroke-linecap:butt;stroke-linejoin:miter;stroke-opacity:1" /><path
       sodipodi:nodetypes="cc"
       id="path4326"
       d="M 61.5,44.928571 L 61.5,41.928571"
       style="fill:none;fill-opacity:0.75;fill-rule:evenodd;stroke:#a38503;stroke-width:1px;stroke-linecap:round;stroke-linejoin:miter;stroke-opacity:1" /><path
       sodipodi:nodetypes="cc"
       id="path4328"
       d="M 67.5,44.928571 L 67.5,41.928571"
       style="fill:none;fill-opacity:0.75;fill-rule:evenodd;stroke:#a38503;stroke-width:1px;stroke-linecap:round;stroke-linejoin:miter;stroke-opacity:1" /><path
       sodipodi:nodetypes="cc"
       id="path4330"
       d="M 73.5,44.928571 L 73.5,41.964285"
       style="fill:none;fill-opacity:0.75;fill-rule:evenodd;stroke:#a38503;stroke-width:1px;stroke-linecap:round;stroke-linejoin:miter;stroke-opacity:1" /><path
       sodipodi:nodetypes="cc"
       id="path4332"
       d="M 79.5,44.928571 L 79.5,41.928571"
       style="fill:none;fill-opacity:0.75;fill-rule:evenodd;stroke:#a38503;stroke-width:1px;stroke-linecap:round;stroke-linejoin:miter;stroke-opacity:1" /><path
       sodipodi:nodetypes="cc"
       id="path4334"
       d="M 85.5,44.928571 L 85.5,41.928571"
       style="fill:none;fill-opacity:0.75;fill-rule:evenodd;stroke:#a38503;stroke-width:1px;stroke-linecap:round;stroke-linejoin:miter;stroke-opacity:1" /></g><path
     sodipodi:type="inkscape:offset"
     inkscape:radius="-0.9375"
     inkscape:original="M 7.5 11.5 L 7.5 41.5 L 46.5 41.5 L 7.5 11.5 z M 13.5 24.5 L 28.5 35.5 L 13.5 35.5 L 13.5 24.5 z "
     style="opacity:0.41700404;fill:none;fill-opacity:1;fill-rule:evenodd;stroke:#ffffff;stroke-width:1.00000024px;stroke-linecap:butt;stroke-linejoin:miter;stroke-opacity:1;display:inline"
     id="path14994"
     d="M 8.4375,13.40625 L 8.4375,40.5625 L 43.75,40.5625 L 8.4375,13.40625 z M 13.34375,23.5625 C 13.59893,23.523383 13.858947,23.591214 14.0625,23.75 L 29.0625,34.75 C 29.3852,34.992176 29.516785,35.413639 29.389198,35.796399 C 29.261611,36.17916 28.903465,36.437379 28.5,36.4375 L 13.5,36.4375 C 12.982254,36.437448 12.562552,36.017746 12.5625,35.5 L 12.5625,24.5 C 12.556079,24.037595 12.887768,23.639569 13.34375,23.5625 L 13.34375,23.5625 z"
     transform="translate(-66.423691,9.8046844)" /></g></svg>