<?xml version="1.0" encoding="UTF-8" standalone="no"?>
<!-- Created with Inkscape (http://www.inkscape.org/) -->
<svg
   xmlns:dc="http://purl.org/dc/elements/1.1/"
   xmlns:cc="http://creativecommons.org/ns#"
   xmlns:rdf="http://www.w3.org/1999/02/22-rdf-syntax-ns#"
   xmlns:svg="http://www.w3.org/2000/svg"
   xmlns="http://www.w3.org/2000/svg"
   xmlns:sodipodi="http://sodipodi.sourceforge.net/DTD/sodipodi-0.dtd"
   xmlns:inkscape="http://www.inkscape.org/namespaces/inkscape"
   width="16"
   height="16"
   id="svg2"
   sodipodi:version="0.32"
   inkscape:version="0.46"
   version="1.0"
   sodipodi:docname="user-available.svg"
   inkscape:output_extension="org.inkscape.output.svg.inkscape">
  <sodipodi:namedview
     id="base"
     pagecolor="#efebe7"
     bordercolor="#666666"
     borderopacity="1.0"
     gridtolerance="10000"
     guidetolerance="10"
     objecttolerance="10"
     inkscape:pageopacity="0"
     inkscape:pageshadow="2"
     inkscape:zoom="8.5849057"
     inkscape:cx="15.12753"
     inkscape:cy="-7.5259385"
     inkscape:document-units="px"
     inkscape:current-layer="layer1"
     showgrid="false"
     inkscape:showpageshadow="false"
     showborder="true"
     inkscape:window-width="1332"
     inkscape:window-height="813"
     inkscape:window-x="8"
     inkscape:window-y="22"
     inkscape:object-nodes="false">
    <inkscape:grid
       type="xygrid"
       id="grid2383"
       visible="true"
       enabled="true" />
  </sodipodi:namedview>
  <defs
     id="defs4" />
  <metadata
     id="metadata7">
    <rdf:RDF>
      <cc:Work
         rdf:about="">
        <dc:format>image/svg+xml</dc:format>
        <dc:type
           rdf:resource="http://purl.org/dc/dcmitype/StillImage" />
      </cc:Work>
    </rdf:RDF>
  </metadata>
  <g
     inkscape:label="Layer 1"
     inkscape:groupmode="layer"
     id="layer1">
    <g
       id="g2707"
       transform="translate(-0.35,-0.546875)">
      <path
         id="path3465"
         d="M 9.85,4.59375 C 6.538,4.59375 3.85,6.572571 3.85,9.03125 C 3.85,9.612188 4.01459,10.178497 4.2875,10.6875 L 1.35,12.5 L 6.1,12.5 C 7.13028,13.118424 8.42285,13.5 9.85,13.5 C 13.162,13.5 15.85,11.489929 15.85,9.03125 C 15.85,6.572571 13.162,4.59375 9.85,4.59375 z"
         style="opacity:0.4;fill:#4d4d4d;fill-opacity:1;fill-rule:evenodd;stroke:#4d4d4d;stroke-width:0.69999999;stroke-linecap:round;stroke-linejoin:round;stroke-miterlimit:4;stroke-dasharray:none;stroke-opacity:1" />
      <path
         id="path3467"
         d="M 9.35,3.59375 C 6.038,3.59375 3.35,5.572571 3.35,8.03125 C 3.35,8.612188 3.51459,9.178497 3.7875,9.6875 L 0.84999999,11.5 L 5.6,11.5 C 6.63028,12.118424 7.92285,12.5 9.35,12.5 C 12.662,12.5 15.35,10.489929 15.35,8.03125 C 15.35,5.572571 12.662,3.59375 9.35,3.59375 z"
         style="fill:#b6e089;fill-opacity:1;fill-rule:evenodd;stroke:#75c143;stroke-width:0.69999999;stroke-linecap:round;stroke-linejoin:round;stroke-miterlimit:4;stroke-dasharray:none;stroke-opacity:0.50442475" />
      <path
         style="opacity:1;fill:#217821;fill-opacity:1;fill-rule:evenodd;stroke:#217821;stroke-width:0.5;stroke-linecap:round;stroke-linejoin:round;marker:none;marker-start:none;marker-mid:none;marker-end:none;stroke-miterlimit:4;stroke-dasharray:none;stroke-dashoffset:0;stroke-opacity:1;visibility:visible;display:inline;overflow:visible;enable-background:accumulate"
         d="M 8.85,5.5 L 8.85,7.5 L 6.85,7.5 L 6.85,8.5 L 8.85,8.5 L 8.85,10.5 L 9.85,10.5 L 9.85,8.5 L 11.85,8.5 L 11.85,7.5 L 9.85,7.5 L 9.85,5.5 L 8.85,5.5 z"
         id="rect3481" />
    </g>
  </g>
</svg>
