<?xml version="1.0" encoding="UTF-8" standalone="no"?>
<svg
   xmlns:dc="http://purl.org/dc/elements/1.1/"
   xmlns:cc="http://web.resource.org/cc/"
   xmlns:rdf="http://www.w3.org/1999/02/22-rdf-syntax-ns#"
   xmlns:svg="http://www.w3.org/2000/svg"
   xmlns="http://www.w3.org/2000/svg"
   xmlns:xlink="http://www.w3.org/1999/xlink"
   xmlns:sodipodi="http://sodipodi.sourceforge.net/DTD/sodipodi-0.dtd"
   xmlns:inkscape="http://www.inkscape.org/namespaces/inkscape"
   width="5.54313in"
   height="5.54703in"
   viewBox="0 0 400 400"
   id="svg2"
   sodipodi:version="0.32"
   inkscape:version="0.44.1"
   sodipodi:docname="parsix-logo.svg"
   sodipodi:docbase="/home/alan/parsix-graphics-0.6.2"
   inkscape:export-filename="/home/alan/parsix-logo.png"
   inkscape:export-xdpi="90"
   inkscape:export-ydpi="90">
  <metadata
     id="metadata16">
    <rdf:RDF>
      <cc:Work
         rdf:about="">
        <dc:format>image/svg+xml</dc:format>
        <dc:type
           rdf:resource="http://purl.org/dc/dcmitype/StillImage" />
      </cc:Work>
    </rdf:RDF>
  </metadata>
  <defs
     id="defs14">
    <linearGradient
       inkscape:collect="always"
       id="linearGradient14955">
      <stop
         style="stop-color:white;stop-opacity:1;"
         offset="0"
         id="stop14957" />
      <stop
         style="stop-color:white;stop-opacity:0;"
         offset="1"
         id="stop14959" />
    </linearGradient>
    <linearGradient
       inkscape:collect="always"
       xlink:href="#linearGradient14955"
       id="linearGradient14961"
       x1="291.77133"
       y1="316.97418"
       x2="163.84119"
       y2="59.318104"
       gradientUnits="userSpaceOnUse" />
  </defs>
  <sodipodi:namedview
     inkscape:window-height="693"
     inkscape:window-width="1014"
     inkscape:pageshadow="2"
     inkscape:pageopacity="0.0"
     borderopacity="1.0"
     bordercolor="#666666"
     pagecolor="#ffffff"
     id="base"
     inkscape:zoom="1.1416081"
     inkscape:cx="392.92782"
     inkscape:cy="253.3149"
     inkscape:window-x="0"
     inkscape:window-y="25"
     inkscape:current-layer="svg2" />
  <g
     id="g22579"
     transform="translate(1170.621,0)">
    <path
       style="fill:#e6e6e6;fill-opacity:1;stroke:black;stroke-width:0;stroke-miterlimit:4;stroke-dasharray:none"
       d="M -990.12085,266.48513 C -1007.1209,259.48513 -1015.1209,249.48513 -1025.1209,234.48513 C -1031.1209,236.48513 -1041.1209,241.48513 -1047.1209,244.48513 C -1064.1209,252.48513 -1077.1209,260.48513 -1090.1209,273.48513 C -1099.1209,282.48513 -1105.1209,292.48513 -1105.1209,305.48513 C -1104.1209,331.48513 -1077.1209,355.48513 -1051.1209,346.48513 C -1037.1209,342.48513 -1025.1209,327.48513 -1017.1209,315.48513 C -1006.1209,300.48513 -997.12085,283.48513 -990.12085,266.48513 z "
       id="path3066" />
    <path
       style="fill:#e6e6e6;fill-opacity:1;stroke:black;stroke-width:0;stroke-miterlimit:4;stroke-dasharray:none"
       d="M -985.72445,267.88154 C -985.72445,267.88154 -994.72445,292.88154 -994.72445,292.88154 C -998.72445,304.88154 -1006.7245,333.88154 -1006.7245,344.88154 C -1006.7245,353.88154 -1002.7245,362.88154 -997.72445,369.88154 C -972.72446,403.88154 -916.72446,385.88154 -917.72446,342.88154 C -917.72446,333.88154 -921.72446,318.88154 -924.72446,310.88154 C -924.72446,310.88154 -938.72446,267.88154 -938.72446,267.88154 C -945.72446,268.88154 -949.72446,270.88154 -957.72446,270.88154 C -973.72445,270.88154 -970.72446,270.88154 -985.72445,267.88154 z "
       id="path3068" />
    <path
       style="fill:#e6e6e6;fill-opacity:1;stroke:black;stroke-width:0;stroke-miterlimit:4;stroke-dasharray:none"
       d="M -898.72446,233.48513 C -906.72446,249.48513 -917.72446,257.48513 -932.72446,266.48513 C -924.72446,285.48513 -914.72446,306.48513 -901.72446,323.48513 C -894.72446,332.48513 -885.72446,341.48513 -874.72446,346.48513 C -847.72446,356.48513 -818.72446,333.48513 -816.72446,305.48513 C -815.72446,292.48513 -823.72446,281.48513 -832.72446,272.48513 C -849.72446,255.48513 -876.72446,242.48513 -898.72446,233.48513 z "
       id="path3070" />
    <path
       style="fill:#e6e6e6;fill-opacity:1;stroke:black;stroke-width:0;stroke-miterlimit:4;stroke-dasharray:none"
       d="M -897.32805,179.48513 C -891.32805,196.48513 -891.32805,210.48513 -897.32805,227.48513 C -897.32805,227.48513 -874.32805,235.48513 -874.32805,235.48513 C -874.32805,235.48513 -850.32805,242.48513 -850.32805,242.48513 C -831.32805,247.48513 -811.32805,252.48513 -794.32805,238.48513 C -780.32805,226.48513 -775.32805,207.48513 -780.32805,189.48513 C -785.32805,172.48513 -806.32805,157.48513 -824.32805,158.48513 C -835.32805,159.48513 -845.32805,162.48513 -855.32805,165.48513 C -855.32805,165.48513 -897.32805,179.48513 -897.32805,179.48513 z "
       id="path3072" />
    <path
       style="fill:#e6e6e6;fill-opacity:1;stroke:black;stroke-width:0;stroke-miterlimit:4;stroke-dasharray:none"
       d="M -934.32805,140.48513 C -919.32805,149.48513 -908.32805,157.48513 -900.32805,173.48513 C -900.32805,173.48513 -883.32805,165.48513 -883.32805,165.48513 C -864.32805,157.48513 -852.32805,151.48513 -836.32805,136.48513 C -826.32805,128.48513 -817.32805,114.48513 -818.32805,101.48513 C -820.32805,72.48513 -851.32805,48.48513 -879.32805,61.48513 C -889.32805,66.48513 -900.32805,78.48513 -906.32805,87.48513 C -917.32805,103.48513 -926.32805,122.48513 -934.32805,140.48513 z "
       id="path3074" />
    <path
       style="fill:#e6e6e6;fill-opacity:1;stroke:black;stroke-width:0;stroke-miterlimit:4;stroke-dasharray:none"
       d="M -1028.1597,180.69122 C -1034.1597,197.69122 -1034.1597,211.69122 -1028.1597,228.69122 C -1028.1597,228.69122 -1051.1597,236.69122 -1051.1597,236.69122 C -1051.1597,236.69122 -1075.1597,243.69122 -1075.1597,243.69122 C -1094.1597,248.69122 -1114.1597,253.69122 -1131.1597,239.69122 C -1145.1597,227.69122 -1150.1597,208.69122 -1145.1597,190.69122 C -1140.1597,173.69122 -1119.1597,158.69122 -1101.1597,159.69122 C -1090.1597,160.69122 -1080.1597,163.69122 -1070.1597,166.69122 C -1070.1597,166.69122 -1028.1597,180.69122 -1028.1597,180.69122 z "
       id="path3076" />
    <path
       style="fill:#e6e6e6;fill-opacity:1;stroke:#f40ff0;stroke-width:2.80627656;stroke-miterlimit:4;stroke-dasharray:none;stroke-opacity:0"
       d="M -993.31985,140.39035 C -1009.3198,148.39035 -1017.3198,159.39035 -1026.3198,174.39035 C -1045.3198,166.39035 -1066.3198,156.39035 -1083.3198,143.39035 C -1092.3198,136.39035 -1101.3198,127.39035 -1106.3198,116.39035 C -1116.3198,89.39034 -1093.3198,60.39035 -1065.3198,58.39035 C -1052.3198,57.39035 -1041.3198,65.39035 -1032.3198,74.39034 C -1015.3198,91.39034 -1002.3198,118.39035 -993.31985,140.39035 z "
       id="path3078" />
    <path
       style="fill:#e6e6e6;fill-opacity:1;stroke:black;stroke-width:0;stroke-miterlimit:4;stroke-dasharray:none"
       d="M -986.72765,137.84494 C -986.72765,137.84494 -995.72765,112.84494 -995.72765,112.84494 C -999.72765,100.84493 -1007.7276,71.84493 -1007.7276,60.84493 C -1007.7276,51.84493 -1003.7276,42.84493 -998.72765,35.84493 C -973.72765,1.84493 -917.72767,19.84493 -918.72767,62.84493 C -918.72767,71.84493 -922.72767,86.84493 -925.72767,94.84493 C -925.72767,94.84493 -939.72767,137.84494 -939.72767,137.84494 C -946.72767,136.84494 -950.72767,134.84494 -958.72767,134.84494 C -974.72765,134.84494 -971.72767,134.84494 -986.72765,137.84494 z "
       id="path3080" />
    <path
       transform="matrix(0.879713,0,0,0.846769,-1153.87,26.9908)"
       d="M 273.14491 208.19435 A 56.61549 58.850311 0 1 1  159.91393,208.19435 A 56.61549 58.850311 0 1 1  273.14491 208.19435 z"
       sodipodi:ry="58.850311"
       sodipodi:rx="56.61549"
       sodipodi:cy="208.19435"
       sodipodi:cx="216.52942"
       id="path3082"
       style="fill:none;fill-opacity:0.94117647;stroke:#e6e6e6;stroke-width:26.29689217;marker-start:none;marker-mid:none;marker-end:none;stroke-miterlimit:4;stroke-dasharray:none;stroke-opacity:1"
       sodipodi:type="arc" />
  </g>
  <g
     id="g22557"
     transform="translate(785.7584,0)">
    <path
       style="fill:#b3b3b3;fill-opacity:1;stroke:black;stroke-width:0;stroke-miterlimit:4;stroke-dasharray:none"
       d="M -605.2623,263.27797 C -622.2623,256.27797 -630.2623,246.27797 -640.2623,231.27797 C -646.2623,233.27797 -656.2623,238.27797 -662.2623,241.27797 C -679.2623,249.27797 -692.2623,257.27797 -705.2623,270.27797 C -714.2623,279.27797 -720.2623,289.27797 -720.2623,302.27797 C -719.2623,328.27797 -692.2623,352.27797 -666.2623,343.27797 C -652.2623,339.27797 -640.2623,324.27797 -632.2623,312.27797 C -621.2623,297.27797 -612.2623,280.27797 -605.2623,263.27797 z "
       id="path2112" />
    <path
       style="fill:#b3b3b3;fill-opacity:1;stroke:black;stroke-width:0;stroke-miterlimit:4;stroke-dasharray:none"
       d="M -600.8659,264.67438 C -600.8659,264.67438 -609.8659,289.67438 -609.8659,289.67438 C -613.8659,301.67438 -621.8659,330.67438 -621.8659,341.67438 C -621.8659,350.67438 -617.8659,359.67438 -612.8659,366.67438 C -587.8659,400.67438 -531.8659,382.67438 -532.8659,339.67438 C -532.8659,330.67438 -536.8659,315.67438 -539.8659,307.67438 C -539.8659,307.67438 -553.8659,264.67438 -553.8659,264.67438 C -560.8659,265.67438 -564.8659,267.67438 -572.8659,267.67438 C -588.8659,267.67438 -585.8659,267.67438 -600.8659,264.67438 z "
       id="path2114" />
    <path
       style="fill:#b3b3b3;fill-opacity:1;stroke:black;stroke-width:0;stroke-miterlimit:4;stroke-dasharray:none"
       d="M -513.8659,230.27797 C -521.8659,246.27797 -532.8659,254.27797 -547.8659,263.27797 C -539.8659,282.27797 -529.8659,303.27797 -516.8659,320.27797 C -509.8659,329.27797 -500.8659,338.27797 -489.8659,343.27797 C -462.86587,353.27797 -433.86587,330.27797 -431.86587,302.27797 C -430.86587,289.27797 -438.86587,278.27797 -447.86587,269.27797 C -464.86587,252.27797 -491.8659,239.27797 -513.8659,230.27797 z "
       id="path2116" />
    <path
       style="fill:#b3b3b3;fill-opacity:1;stroke:black;stroke-width:0;stroke-miterlimit:4;stroke-dasharray:none"
       d="M -512.4695,176.27797 C -506.4695,193.27797 -506.4695,207.27797 -512.4695,224.27797 C -512.4695,224.27797 -489.4695,232.27797 -489.4695,232.27797 C -489.4695,232.27797 -465.46946,239.27797 -465.46946,239.27797 C -446.46946,244.27797 -426.46946,249.27797 -409.46946,235.27797 C -395.46946,223.27797 -390.46946,204.27797 -395.46946,186.27797 C -400.46946,169.27797 -421.46946,154.27797 -439.46946,155.27797 C -450.46946,156.27797 -460.46946,159.27797 -470.46946,162.27797 C -470.46946,162.27797 -512.4695,176.27797 -512.4695,176.27797 z "
       id="path2118" />
    <path
       style="fill:#b3b3b3;fill-opacity:1;stroke:black;stroke-width:0;stroke-miterlimit:4;stroke-dasharray:none"
       d="M -549.4695,137.27797 C -534.4695,146.27797 -523.4695,154.27797 -515.4695,170.27797 C -515.4695,170.27797 -498.4695,162.27797 -498.4695,162.27797 C -479.46946,154.27797 -467.46946,148.27797 -451.46946,133.27797 C -441.46946,125.27797 -432.46946,111.27797 -433.46946,98.27797 C -435.46946,69.27797 -466.46946,45.27797 -494.4695,58.27797 C -504.4695,63.27797 -515.4695,75.27797 -521.4695,84.27797 C -532.4695,100.27797 -541.4695,119.27797 -549.4695,137.27797 z "
       id="path2120" />
    <path
       style="fill:#b3b3b3;fill-opacity:1;stroke:black;stroke-width:0;stroke-miterlimit:4;stroke-dasharray:none"
       d="M -643.3012,177.48406 C -649.3012,194.48406 -649.3012,208.48406 -643.3012,225.48406 C -643.3012,225.48406 -666.3012,233.48406 -666.3012,233.48406 C -666.3012,233.48406 -690.3012,240.48406 -690.3012,240.48406 C -709.3012,245.48406 -729.3012,250.48406 -746.3012,236.48406 C -760.3012,224.48406 -765.3012,205.48406 -760.3012,187.48406 C -755.3012,170.48406 -734.3012,155.48406 -716.3012,156.48406 C -705.3012,157.48406 -695.3012,160.48406 -685.3012,163.48406 C -685.3012,163.48406 -643.3012,177.48406 -643.3012,177.48406 z "
       id="path2122" />
    <path
       style="fill:#b3b3b3;fill-opacity:1;stroke:#f40ff0;stroke-width:2.80627656;stroke-miterlimit:4;stroke-dasharray:none;stroke-opacity:0"
       d="M -608.4613,137.18319 C -624.4613,145.18319 -632.4613,156.18319 -641.4613,171.18319 C -660.4613,163.18319 -681.4613,153.18319 -698.4613,140.18319 C -707.4613,133.18319 -716.4613,124.18319 -721.4613,113.18319 C -731.4613,86.18319 -708.4613,57.18319 -680.4613,55.18319 C -667.4613,54.18319 -656.4613,62.18319 -647.4613,71.18319 C -630.4613,88.18319 -617.4613,115.18319 -608.4613,137.18319 z "
       id="path2124" />
    <path
       style="fill:#b3b3b3;fill-opacity:1;stroke:black;stroke-width:0;stroke-miterlimit:4;stroke-dasharray:none"
       d="M -601.8691,134.63778 C -601.8691,134.63778 -610.8691,109.63778 -610.8691,109.63778 C -614.8691,97.63777 -622.8691,68.63777 -622.8691,57.63777 C -622.8691,48.63777 -618.8691,39.63777 -613.8691,32.63777 C -588.8691,-1.3622296 -532.8691,16.63777 -533.8691,59.63777 C -533.8691,68.63777 -537.8691,83.63777 -540.8691,91.63777 C -540.8691,91.63777 -554.8691,134.63778 -554.8691,134.63778 C -561.8691,133.63778 -565.8691,131.63778 -573.8691,131.63778 C -589.8691,131.63778 -586.8691,131.63778 -601.8691,134.63778 z "
       id="path2126" />
    <path
       transform="matrix(0.879713,0,0,0.846769,-769.0109,23.7836)"
       d="M 273.14491 208.19435 A 56.61549 58.850311 0 1 1  159.91393,208.19435 A 56.61549 58.850311 0 1 1  273.14491 208.19435 z"
       sodipodi:ry="58.850311"
       sodipodi:rx="56.61549"
       sodipodi:cy="208.19435"
       sodipodi:cx="216.52942"
       id="path2128"
       style="fill:none;fill-opacity:0.94117647;stroke:#b3b3b3;stroke-width:26.29689217;marker-start:none;marker-mid:none;marker-end:none;stroke-miterlimit:4;stroke-dasharray:none;stroke-opacity:1"
       sodipodi:type="arc" />
  </g>
  <g
     id="g22568"
     transform="translate(1170.621,368.8255)">
    <path
       style="fill:gray;fill-opacity:1;stroke:black;stroke-width:0;stroke-miterlimit:4;stroke-dasharray:none"
       d="M -990.12382,-108.75475 C -1007.1238,-115.75475 -1015.1238,-125.75475 -1025.1238,-140.75475 C -1031.1238,-138.75475 -1041.1238,-133.75475 -1047.1238,-130.75475 C -1064.1238,-122.75475 -1077.1238,-114.75475 -1090.1238,-101.75475 C -1099.1238,-92.75475 -1105.1238,-82.75475 -1105.1238,-69.75475 C -1104.1238,-43.75475 -1077.1238,-19.75475 -1051.1238,-28.75475 C -1037.1238,-32.75475 -1025.1238,-47.75475 -1017.1238,-59.75475 C -1006.1238,-74.75475 -997.12382,-91.75475 -990.12382,-108.75475 z "
       id="path3084" />
    <path
       style="fill:gray;fill-opacity:1;stroke:black;stroke-width:0;stroke-miterlimit:4;stroke-dasharray:none"
       d="M -985.72741,-107.35834 C -985.72741,-107.35834 -994.72741,-82.35834 -994.72741,-82.35834 C -998.72741,-70.35834 -1006.7274,-41.35834 -1006.7274,-30.35834 C -1006.7274,-21.35834 -1002.7274,-12.35834 -997.72741,-5.35834 C -972.72741,28.64166 -916.72741,10.64166 -917.72741,-32.35834 C -917.72741,-41.35834 -921.72741,-56.35834 -924.72741,-64.35834 C -924.72741,-64.35834 -938.72741,-107.35834 -938.72741,-107.35834 C -945.72741,-106.35834 -949.72741,-104.35834 -957.72741,-104.35834 C -973.72741,-104.35834 -970.72741,-104.35834 -985.72741,-107.35834 z "
       id="path3086" />
    <path
       style="fill:gray;fill-opacity:1;stroke:black;stroke-width:0;stroke-miterlimit:4;stroke-dasharray:none"
       d="M -898.72741,-141.75475 C -906.72741,-125.75475 -917.72741,-117.75475 -932.72741,-108.75475 C -924.72741,-89.75475 -914.72741,-68.75475 -901.72741,-51.75475 C -894.72741,-42.75475 -885.72741,-33.75475 -874.72741,-28.75475 C -847.72741,-18.75475 -818.72741,-41.75475 -816.72741,-69.75475 C -815.72741,-82.75475 -823.72741,-93.75475 -832.72741,-102.75475 C -849.72741,-119.75475 -876.72741,-132.75475 -898.72741,-141.75475 z "
       id="path3088" />
    <path
       style="fill:gray;fill-opacity:1;stroke:black;stroke-width:0;stroke-miterlimit:4;stroke-dasharray:none"
       d="M -897.331,-195.75475 C -891.331,-178.75475 -891.331,-164.75475 -897.331,-147.75475 C -897.331,-147.75475 -874.331,-139.75475 -874.331,-139.75475 C -874.331,-139.75475 -850.331,-132.75475 -850.331,-132.75475 C -831.331,-127.75475 -811.331,-122.75475 -794.331,-136.75475 C -780.331,-148.75475 -775.331,-167.75475 -780.331,-185.75475 C -785.331,-202.75475 -806.331,-217.75475 -824.331,-216.75475 C -835.331,-215.75475 -845.331,-212.75475 -855.331,-209.75475 C -855.331,-209.75475 -897.331,-195.75475 -897.331,-195.75475 z "
       id="path3090" />
    <path
       style="fill:gray;fill-opacity:1;stroke:black;stroke-width:0;stroke-miterlimit:4;stroke-dasharray:none"
       d="M -934.331,-234.75475 C -919.331,-225.75475 -908.331,-217.75475 -900.331,-201.75475 C -900.331,-201.75475 -883.331,-209.75475 -883.331,-209.75475 C -864.331,-217.75475 -852.331,-223.75475 -836.331,-238.75475 C -826.331,-246.75475 -817.331,-260.75475 -818.331,-273.75475 C -820.331,-302.75475 -851.331,-326.75475 -879.331,-313.75475 C -889.331,-308.75475 -900.331,-296.75475 -906.331,-287.75475 C -917.331,-271.75475 -926.331,-252.75475 -934.331,-234.75475 z "
       id="path3092" />
    <path
       style="fill:gray;fill-opacity:1;stroke:black;stroke-width:0;stroke-miterlimit:4;stroke-dasharray:none"
       d="M -1028.1627,-194.54866 C -1034.1627,-177.54866 -1034.1627,-163.54866 -1028.1627,-146.54866 C -1028.1627,-146.54866 -1051.1627,-138.54866 -1051.1627,-138.54866 C -1051.1627,-138.54866 -1075.1627,-131.54866 -1075.1627,-131.54866 C -1094.1627,-126.54866 -1114.1627,-121.54866 -1131.1627,-135.54866 C -1145.1627,-147.54866 -1150.1627,-166.54866 -1145.1627,-184.54866 C -1140.1627,-201.54866 -1119.1627,-216.54866 -1101.1627,-215.54866 C -1090.1627,-214.54866 -1080.1627,-211.54866 -1070.1627,-208.54866 C -1070.1627,-208.54866 -1028.1627,-194.54866 -1028.1627,-194.54866 z "
       id="path3094" />
    <path
       style="fill:gray;fill-opacity:1;stroke:#f40ff0;stroke-width:2.80627656;stroke-miterlimit:4;stroke-dasharray:none;stroke-opacity:0"
       d="M -993.32283,-234.84953 C -1009.3228,-226.84953 -1017.3228,-215.84953 -1026.3228,-200.84953 C -1045.3228,-208.84953 -1066.3228,-218.84953 -1083.3228,-231.84953 C -1092.3228,-238.84953 -1101.3228,-247.84953 -1106.3228,-258.84953 C -1116.3228,-285.84953 -1093.3228,-314.84953 -1065.3228,-316.84953 C -1052.3228,-317.84953 -1041.3228,-309.84953 -1032.3228,-300.84953 C -1015.3228,-283.84953 -1002.3228,-256.84953 -993.32283,-234.84953 z "
       id="path3096" />
    <path
       style="fill:gray;fill-opacity:1;stroke:black;stroke-width:0;stroke-miterlimit:4;stroke-dasharray:none"
       d="M -986.73062,-237.39494 C -986.73062,-237.39494 -995.73062,-262.39494 -995.73062,-262.39494 C -999.73062,-274.39495 -1007.7306,-303.39495 -1007.7306,-314.39495 C -1007.7306,-323.39495 -1003.7306,-332.39495 -998.73062,-339.39495 C -973.73062,-373.39495 -917.73062,-355.39495 -918.73062,-312.39495 C -918.73062,-303.39495 -922.73062,-288.39495 -925.73062,-280.39495 C -925.73062,-280.39495 -939.73062,-237.39494 -939.73062,-237.39494 C -946.73062,-238.39494 -950.73062,-240.39494 -958.73062,-240.39494 C -974.73062,-240.39494 -971.73062,-240.39494 -986.73062,-237.39494 z "
       id="path3098" />
    <path
       transform="matrix(0.879713,0,0,0.846769,-1153.872,-348.2491)"
       d="M 273.14491 208.19435 A 56.61549 58.850311 0 1 1  159.91393,208.19435 A 56.61549 58.850311 0 1 1  273.14491 208.19435 z"
       sodipodi:ry="58.850311"
       sodipodi:rx="56.61549"
       sodipodi:cy="208.19435"
       sodipodi:cx="216.52942"
       id="path3100"
       style="fill:none;fill-opacity:0.94117647;stroke:gray;stroke-width:26.29689217;marker-start:none;marker-mid:none;marker-end:none;stroke-miterlimit:4;stroke-dasharray:none;stroke-opacity:1"
       sodipodi:type="arc" />
  </g>
  <path
     sodipodi:type="arc"
     style="fill:#56ba75;fill-opacity:1;stroke:#00000f;stroke-width:1.53499997;stroke-miterlimit:4;stroke-dasharray:none;stroke-opacity:0.94117647"
     id="path6642"
     sodipodi:cx="213.05302"
     sodipodi:cy="234.51558"
     sodipodi:rx="0"
     sodipodi:ry="2.7314491"
     d="M 213.05302 234.51558 A 0 2.7314491 0 1 1  213.05302,234.51558 A 0 2.7314491 0 1 1  213.05302 234.51558 z"
     transform="translate(193.4417,-192.4667)" />
  <g
     id="g2099"
     transform="translate(3.893443,-6.136348)">
    <path
       style="fill:#f44b00;fill-opacity:1;stroke:black;stroke-width:0;stroke-miterlimit:4;stroke-dasharray:none"
       d="M 176.60359,263 C 159.60359,256 151.60359,246 141.60359,231 C 135.60359,233 125.60359,238 119.60359,241 C 102.60359,249 89.603587,257 76.603587,270 C 67.603587,279 61.603587,289 61.603587,302 C 62.603587,328 89.603587,352 115.60359,343 C 129.60359,339 141.60359,324 149.60359,312 C 160.60359,297 169.60359,280 176.60359,263 z "
       id="selection_to_path#5" />
    <path
       style="fill:#d50000;fill-opacity:1;stroke:black;stroke-width:0;stroke-miterlimit:4;stroke-dasharray:none"
       d="M 181,264.39641 C 181,264.39641 172,289.39641 172,289.39641 C 168,301.39641 160,330.39641 160,341.39641 C 160,350.39641 164,359.39641 169,366.39641 C 194,400.39641 250,382.39641 249,339.39641 C 249,330.39641 245,315.39641 242,307.39641 C 242,307.39641 228,264.39641 228,264.39641 C 221,265.39641 217,267.39641 209,267.39641 C 193,267.39641 196,267.39641 181,264.39641 z "
       id="selection_to_path#4" />
    <path
       style="fill:#f44b00;fill-opacity:1;stroke:black;stroke-width:0;stroke-miterlimit:4;stroke-dasharray:none"
       d="M 268,230 C 260,246 249,254 234,263 C 242,282 252,303 265,320 C 272,329 281,338 292,343 C 319,353 348,330 350,302 C 351,289 343,278 334,269 C 317,252 290,239 268,230 z "
       id="selection_to_path#3" />
    <path
       style="fill:#fb7e00;fill-opacity:1;stroke:black;stroke-width:0;stroke-miterlimit:4;stroke-dasharray:none"
       d="M 269.39641,176 C 275.39641,193 275.39641,207 269.39641,224 C 269.39641,224 292.39641,232 292.39641,232 C 292.39641,232 316.39641,239 316.39641,239 C 335.39641,244 355.39641,249 372.39641,235 C 386.39641,223 391.39641,204 386.39641,186 C 381.39641,169 360.39641,154 342.39641,155 C 331.39641,156 321.39641,159 311.39641,162 C 311.39641,162 269.39641,176 269.39641,176 z "
       id="selection_to_path#2" />
    <path
       style="fill:#f44b00;fill-opacity:1;stroke:black;stroke-width:0;stroke-miterlimit:4;stroke-dasharray:none"
       d="M 232.39641,137 C 247.39641,146 258.39641,154 266.39641,170 C 266.39641,170 283.39641,162 283.39641,162 C 302.39641,154 314.39641,148 330.39641,133 C 340.39641,125 349.39641,111 348.39641,98 C 346.39641,69 315.39641,45 287.39641,58 C 277.39641,63 266.39641,75 260.39641,84 C 249.39641,100 240.39641,119 232.39641,137 z "
       id="selection_to_path#1" />
    <path
       style="fill:#fb7e00;fill-opacity:1;stroke:black;stroke-width:0;stroke-miterlimit:4;stroke-dasharray:none"
       d="M 138.56468,177.20609 C 132.56468,194.20609 132.56468,208.20609 138.56468,225.20609 C 138.56468,225.20609 115.56468,233.20609 115.56468,233.20609 C 115.56468,233.20609 91.564685,240.20609 91.564685,240.20609 C 72.564685,245.20609 52.564682,250.20609 35.564682,236.20609 C 21.564682,224.20609 16.564682,205.20609 21.564682,187.20609 C 26.564682,170.20609 47.564682,155.20609 65.564685,156.20609 C 76.564685,157.20609 86.564685,160.20609 96.564689,163.20609 C 96.564689,163.20609 138.56468,177.20609 138.56468,177.20609 z "
       id="path7517" />
    <path
       style="fill:#f44b00;fill-opacity:1;stroke:#f40ff0;stroke-width:2.80627656;stroke-miterlimit:4;stroke-dasharray:none;stroke-opacity:0"
       d="M 173.40458,136.90522 C 157.40458,144.90522 149.40458,155.90522 140.40458,170.90522 C 121.40458,162.90522 100.40458,152.90522 83.404581,139.90522 C 74.404581,132.90522 65.404581,123.90522 60.404581,112.90522 C 50.404581,85.905218 73.404581,56.905225 101.40458,54.905225 C 114.40458,53.905225 125.40458,61.905225 134.40458,70.905218 C 151.40458,87.905218 164.40458,114.90522 173.40458,136.90522 z "
       id="path7519" />
    <path
       style="fill:#d50000;fill-opacity:1;stroke:black;stroke-width:0;stroke-miterlimit:4;stroke-dasharray:none"
       d="M 179.99679,134.35981 C 179.99679,134.35981 170.99679,109.35981 170.99679,109.35981 C 166.99679,97.359802 158.99679,68.359802 158.99679,57.359802 C 158.99679,48.359802 162.99679,39.359802 167.99679,32.359802 C 192.99679,-1.6401985 248.99679,16.359802 247.99679,59.359802 C 247.99679,68.359802 243.99679,83.359802 240.99679,91.359802 C 240.99679,91.359802 226.99679,134.35981 226.99679,134.35981 C 219.99679,133.35981 215.99679,131.35981 207.99679,131.35981 C 191.99679,131.35981 194.99679,131.35981 179.99679,134.35981 z "
       id="path7521" />
    <path
       transform="matrix(0.879713,0,0,0.846769,12.85512,23.50565)"
       d="M 273.14491 208.19435 A 56.61549 58.850311 0 1 1  159.91393,208.19435 A 56.61549 58.850311 0 1 1  273.14491 208.19435 z"
       sodipodi:ry="58.850311"
       sodipodi:rx="56.61549"
       sodipodi:cy="208.19435"
       sodipodi:cx="216.52942"
       id="path4019"
       style="fill:none;fill-opacity:0.94117647;stroke:#dbba75;stroke-width:26.29689217;marker-start:none;marker-mid:none;marker-end:none;stroke-miterlimit:4;stroke-dasharray:none;stroke-opacity:1"
       sodipodi:type="arc" />
  </g>
  <path
     style="opacity:0.19186048;fill:white;fill-opacity:1;stroke:white;stroke-width:0;stroke-miterlimit:4;stroke-dasharray:none"
     d="M 257.6875 23.34375 C 244.21051 23.385799 230.66216 29.116985 221.28125 41.875 C 216.06057 49.183938 211.87504 58.602804 211.875 68 C 211.87499 79.485474 220.2297 109.75161 224.40625 122.28125 C 224.40626 122.28125 233.81248 148.375 233.8125 148.375 C 249.47451 145.24258 246.32507 145.25 263.03125 145.25 C 271.38434 145.25001 275.56603 147.33088 282.875 148.375 C 282.87501 148.375 297.50001 103.50001 297.5 103.5 C 300.6324 95.146928 304.81249 79.459697 304.8125 70.0625 C 305.48139 41.299849 281.71166 23.268789 257.6875 23.34375 z M 134 72.25 C 133.5799 72.264531 133.14292 72.279869 132.71875 72.3125 C 103.48292 74.400769 79.464913 104.68338 89.90625 132.875 C 95.126915 144.36047 104.54029 153.75356 113.9375 161.0625 C 131.68784 174.63626 153.59897 185.08444 173.4375 193.4375 C 182.8347 177.77549 191.20012 166.29055 207.90625 157.9375 C 198.50904 134.96653 184.9378 106.78152 167.1875 89.03125 C 158.08399 79.927695 147.02306 71.799571 134 72.25 z M 380.96875 72.65625 C 375.48703 72.70519 369.88796 73.89242 364.40625 76.4375 C 353.96492 81.658156 342.48356 94.196553 336.21875 103.59375 C 324.73329 120.29991 315.32183 140.11183 306.96875 158.90625 C 322.63078 168.30347 334.11567 176.66885 342.46875 193.375 C 342.46876 193.375 360.21875 185.03125 360.21875 185.03125 C 380.05729 176.67816 392.60635 170.41202 409.3125 154.75 C 419.75385 146.39691 429.13788 131.76123 428.09375 118.1875 C 426.39703 93.585085 404.7228 72.44417 380.96875 72.65625 z M 258.53125 180.375 C 224.24243 180.37499 196.43749 208.22366 196.4375 242.53125 C 196.4375 276.83885 224.24244 304.6875 258.53125 304.6875 C 292.8201 304.6875 320.65626 276.83884 320.65625 242.53125 C 320.65624 208.22367 292.82011 180.37499 258.53125 180.375 z M 258.59375 193.875 C 285.02459 193.875 306.46875 215.32209 306.46875 241.75 C 306.46874 268.17791 285.02458 289.625 258.59375 289.625 C 232.16294 289.625 210.6875 268.17791 210.6875 241.75 C 210.68751 215.32209 232.16292 193.875 258.59375 193.875 z M 432.28125 195.625 C 431.68842 195.62545 431.08733 195.65487 430.5 195.6875 C 419.01454 196.73164 408.56633 199.86761 398.125 203 C 398.125 203.00001 354.28125 217.59375 354.28125 217.59375 C 360.54603 235.34405 360.54606 249.96848 354.28125 267.71875 C 354.28122 267.71876 378.28125 276.0625 378.28125 276.0625 C 378.28124 276.06249 403.34375 283.375 403.34375 283.375 C 423.18225 288.59569 444.06221 293.83664 461.8125 279.21875 C 476.43037 266.68916 481.65817 246.82567 476.4375 228.03125 C 471.37999 210.83564 450.65923 195.61117 432.28125 195.625 z M 85.65625 197.6875 C 67.278207 197.67367 46.526258 212.89818 41.46875 230.09375 C 36.248084 248.88818 41.475886 268.72037 56.09375 281.25 C 73.844082 295.86785 94.723959 290.65817 114.5625 285.4375 C 114.5625 285.4375 139.62498 278.125 139.625 278.125 C 139.625 278.12501 163.65625 269.78125 163.65625 269.78125 C 157.39143 252.03098 157.39142 237.40655 163.65625 219.65625 C 163.65626 219.65626 119.78126 205.03125 119.78125 205.03125 C 109.33991 201.89885 98.922976 198.7629 87.4375 197.71875 C 86.850168 197.68612 86.24909 197.68795 85.65625 197.6875 z M 346 294.4375 C 337.64692 311.14365 326.16202 319.4778 310.5 328.875 C 318.85309 348.71355 329.30125 370.65596 342.875 388.40625 C 350.18399 397.80346 359.57702 407.18558 371.0625 412.40625 C 399.25414 422.84758 429.53672 398.82951 431.625 369.59375 C 432.66912 356.02001 424.30346 344.55347 414.90625 335.15625 C 397.15596 317.40598 368.97094 303.83471 346 294.4375 z M 173.71875 295.96875 C 167.45391 298.05703 157.01482 303.27386 150.75 306.40625 C 132.99966 314.75932 119.41744 323.11374 105.84375 336.6875 C 96.446412 346.08469 90.1875 356.52 90.1875 370.09375 C 91.231656 397.24126 119.41498 422.30346 146.5625 412.90625 C 161.18034 408.72971 173.70945 393.09211 182.0625 380.5625 C 193.54799 364.90048 202.9723 347.1253 210.28125 329.375 C 192.53097 322.06605 184.16007 311.63077 173.71875 295.96875 z M 234.71875 337.78125 C 234.71875 337.78124 225.34375 363.875 225.34375 363.875 C 221.16723 376.40462 212.8125 406.70201 212.8125 418.1875 C 212.81249 427.5847 216.96684 436.97231 222.1875 444.28125 C 248.29087 479.78183 306.76287 460.99153 305.71875 416.09375 C 305.71876 406.69653 301.53865 391.00933 298.40625 382.65625 C 298.40622 382.65625 283.8125 337.78125 283.8125 337.78125 C 276.50356 338.82538 272.32184 340.90625 263.96875 340.90625 C 247.26261 340.90624 250.38078 340.91364 234.71875 337.78125 z "
     id="path3193"
     transform="matrix(0.801793,0,0,0.801793,0,-0.14072)" />
  <path
     style="opacity:0.29186048;fill:url(#linearGradient14961);fill-opacity:1.0;stroke:none;stroke-width:0;stroke-miterlimit:4;stroke-dasharray:none"
     d="M 257.6875 23.34375 C 244.2105 23.385794 230.66216 29.116993 221.28125 41.875 C 216.06058 49.183938 211.87504 58.602807 211.875 68 C 211.875 79.485466 220.2297 109.75161 224.40625 122.28125 C 224.40626 122.28125 233.81248 148.375 233.8125 148.375 C 249.4745 145.24257 246.32508 145.25 263.03125 145.25 C 271.38432 145.24999 275.56603 147.33088 282.875 148.375 C 282.87502 148.375 297.50001 103.50001 297.5 103.5 C 300.6324 95.146928 304.81249 79.459693 304.8125 70.0625 C 305.48139 41.299878 281.71165 23.268793 257.6875 23.34375 z M 134 72.25 C 133.57989 72.264532 133.14292 72.279873 132.71875 72.3125 C 103.48292 74.400767 79.464912 104.68341 89.90625 132.875 C 95.126912 144.36047 104.5403 153.75356 113.9375 161.0625 C 131.68783 174.63625 153.59898 185.08444 173.4375 193.4375 C 182.8347 177.7755 191.20013 166.29055 207.90625 157.9375 C 198.50904 134.96653 184.93779 106.78152 167.1875 89.03125 C 158.08399 79.927703 147.02305 71.799572 134 72.25 z M 380.96875 72.65625 C 375.48703 72.705194 369.88796 73.892419 364.40625 76.4375 C 353.96493 81.658158 342.48356 94.196544 336.21875 103.59375 C 324.73328 120.2999 315.32183 140.11183 306.96875 158.90625 C 322.63077 168.30346 334.11567 176.66886 342.46875 193.375 C 342.46875 193.375 360.21875 185.03125 360.21875 185.03125 C 380.05729 176.67817 392.60636 170.41201 409.3125 154.75 C 419.75384 146.39691 429.13788 131.76122 428.09375 118.1875 C 426.39704 93.58511 404.72279 72.444163 380.96875 72.65625 z M 258.53125 180.375 C 224.24243 180.37499 196.43749 208.22367 196.4375 242.53125 C 196.4375 262.45398 205.8286 280.1847 220.40625 291.5625 C 225.04449 288.64546 229.73523 285.86243 234.46875 283.15625 C 220.18101 274.8689 210.5625 259.41266 210.5625 241.71875 C 210.5625 215.29084 232.00667 193.84375 258.4375 193.84375 C 284.86833 193.84375 306.3125 215.29084 306.3125 241.71875 C 306.3125 245.2228 305.93457 248.64691 305.21875 251.9375 C 310.25433 250.33628 315.33167 248.84032 320.4375 247.46875 C 320.56636 245.83547 320.65625 244.19744 320.65625 242.53125 C 320.65624 208.22368 292.8201 180.37499 258.53125 180.375 z M 432.28125 195.625 C 431.68843 195.62545 431.08733 195.65487 430.5 195.6875 C 419.01456 196.73164 408.56633 199.86761 398.125 203 C 398.12499 203.00001 354.28125 217.59375 354.28125 217.59375 C 357.00202 225.30262 358.54871 232.42694 358.90625 239.46875 C 375.35765 237.01942 392.08896 235.75 409.0625 235.75 C 432.679 235.75 455.84311 238.18671 478.40625 242.875 C 478.45416 237.95417 477.80562 232.95647 476.4375 228.03125 C 471.37999 210.83565 450.65922 195.61117 432.28125 195.625 z M 85.65625 197.6875 C 67.278211 197.67367 46.526256 212.89819 41.46875 230.09375 C 36.248085 248.88817 41.475892 268.72037 56.09375 281.25 C 73.844076 295.86785 94.723967 290.65817 114.5625 285.4375 C 114.5625 285.43751 139.62498 278.125 139.625 278.125 C 139.62501 278.12502 163.65625 269.78125 163.65625 269.78125 C 157.39143 252.031 157.39142 237.40654 163.65625 219.65625 C 163.65626 219.65626 119.78126 205.03125 119.78125 205.03125 C 109.33992 201.89885 98.922975 198.7629 87.4375 197.71875 C 86.850172 197.68612 86.24909 197.68795 85.65625 197.6875 z M 173.71875 295.96875 C 167.45392 298.05703 157.01482 303.27386 150.75 306.40625 C 132.99967 314.75932 119.41744 323.11375 105.84375 336.6875 C 96.446412 346.08467 90.1875 356.52001 90.1875 370.09375 C 90.619002 381.31252 95.693667 392.15325 103.40625 400.375 C 128.42665 367.38169 156.77674 338.42257 187.8125 314.375 C 182.816 309.2019 178.48802 303.12268 173.71875 295.96875 z "
     transform="matrix(0.801793,0,0,0.801793,0,-0.14072)"
     id="path13174" />
</svg>
