<?xml version="1.0" encoding="UTF-8" standalone="no"?>
<svg
   xmlns:dc="http://purl.org/dc/elements/1.1/"
   xmlns:cc="http://creativecommons.org/ns#"
   xmlns:rdf="http://www.w3.org/1999/02/22-rdf-syntax-ns#"
   xmlns:svg="http://www.w3.org/2000/svg"
   xmlns="http://www.w3.org/2000/svg"
   xmlns:xlink="http://www.w3.org/1999/xlink"
   xmlns:sodipodi="http://sodipodi.sourceforge.net/DTD/sodipodi-0.dtd"
   xmlns:inkscape="http://www.inkscape.org/namespaces/inkscape"
   version="1.0"
   id="Layer_1"
   width="48"
   height="48"
   viewBox="0 0 128 128"
   style="overflow:visible"
   xml:space="preserve"
   sodipodi:version="0.32"
   inkscape:version="0.46"
   sodipodi:docname="calibrate.svg"
   inkscape:output_extension="org.inkscape.output.svg.inkscape"
   inkscape:export-filename="/home/kwwii/bzr/human-icon-theme/48x48/actions/calibrate.png"
   inkscape:export-xdpi="90"
   inkscape:export-ydpi="90"><metadata
   id="metadata129"><rdf:RDF><cc:Work
       rdf:about=""><dc:format>image/svg+xml</dc:format><dc:type
         rdf:resource="http://purl.org/dc/dcmitype/StillImage" /></cc:Work></rdf:RDF></metadata><defs
   id="defs127"><linearGradient
     id="linearGradient3773"><stop
       id="stop3775"
       offset="0"
       style="stop-color:#b9a065;stop-opacity:1;" /><stop
       id="stop3777"
       offset="1"
       style="stop-color:#ddd1b5;stop-opacity:1;" /></linearGradient><linearGradient
     id="linearGradient3901"><stop
       style="stop-color:#ffffff;stop-opacity:0;"
       offset="0"
       id="stop3903" /><stop
       id="stop3909"
       offset="0.5"
       style="stop-color:#ffffff;stop-opacity:1;" /><stop
       style="stop-color:#ffffff;stop-opacity:0;"
       offset="1"
       id="stop3905" /></linearGradient><linearGradient
     id="linearGradient3865"><stop
       style="stop-color:#ffffff;stop-opacity:0.42519686;"
       offset="0"
       id="stop3867" /><stop
       style="stop-color:#ffffff;stop-opacity:0;"
       offset="1"
       id="stop3869" /></linearGradient><linearGradient
     id="linearGradient3838"><stop
       style="stop-color:#ffffff;stop-opacity:0.60629922;"
       offset="0"
       id="stop3840" /><stop
       style="stop-color:#ffffff;stop-opacity:0;"
       offset="1"
       id="stop3842" /></linearGradient><linearGradient
     id="linearGradient3830"><stop
       style="stop-color:#000000;stop-opacity:0.50393701;"
       offset="0"
       id="stop3832" /><stop
       style="stop-color:#000000;stop-opacity:0;"
       offset="1"
       id="stop3834" /></linearGradient><linearGradient
     id="linearGradient3776"><stop
       style="stop-color:#000000;stop-opacity:0.60629922;"
       offset="0"
       id="stop3778" /><stop
       id="stop3784"
       offset="0.23349234"
       style="stop-color:#000000;stop-opacity:0;" /><stop
       style="stop-color:#000000;stop-opacity:0;"
       offset="0.48642099"
       id="stop3786" /><stop
       id="stop3788"
       offset="0.71245962"
       style="stop-color:#000000;stop-opacity:0;" /><stop
       style="stop-color:#000000;stop-opacity:0.14173229;"
       offset="1"
       id="stop3780" /></linearGradient><linearGradient
     id="linearGradient3654"><stop
       style="stop-color:#000000;stop-opacity:0.60629922;"
       offset="0"
       id="stop3656" /><stop
       style="stop-color:#000000;stop-opacity:0;"
       offset="1"
       id="stop3658" /></linearGradient><linearGradient
     id="linearGradient3435"><stop
       style="stop-color:#b9a065;stop-opacity:1;"
       offset="0"
       id="stop3437" /><stop
       style="stop-color:#ddd1b5;stop-opacity:0;"
       offset="1"
       id="stop3439" /></linearGradient><linearGradient
     id="linearGradient3427"><stop
       style="stop-color:#ede3da;stop-opacity:1;"
       offset="0"
       id="stop3429" /><stop
       style="stop-color:#d1c19a;stop-opacity:1;"
       offset="1"
       id="stop3431" /></linearGradient><linearGradient
     id="linearGradient3386"><stop
       style="stop-color:#000000;stop-opacity:1;"
       offset="0"
       id="stop3388" /><stop
       style="stop-color:#000000;stop-opacity:0;"
       offset="1"
       id="stop3390" /></linearGradient><linearGradient
     inkscape:collect="always"
     id="linearGradient4309"><stop
       style="stop-color:#ffffff;stop-opacity:1;"
       offset="0"
       id="stop4311" /><stop
       style="stop-color:#ffffff;stop-opacity:0;"
       offset="1"
       id="stop4313" /></linearGradient><linearGradient
     inkscape:collect="always"
     id="linearGradient4299"><stop
       style="stop-color:#ffffff;stop-opacity:1;"
       offset="0"
       id="stop4301" /><stop
       style="stop-color:#ffffff;stop-opacity:0;"
       offset="1"
       id="stop4303" /></linearGradient><linearGradient
     id="linearGradient3467"><stop
       id="stop3469"
       offset="0"
       style="stop-color:#600000;stop-opacity:1;" /><stop
       id="stop3471"
       offset="1"
       style="stop-color:#b14700;stop-opacity:1;" /></linearGradient><linearGradient
     inkscape:collect="always"
     xlink:href="#XMLID_14_"
     id="linearGradient5661"
     gradientUnits="userSpaceOnUse"
     gradientTransform="matrix(9.0067402e-2,0,0,9.0067402e-2,82.224569,17.968058)"
     x1="53.915501"
     y1="91.115196"
     x2="55.820202"
     y2="110.6698" /><linearGradient
     inkscape:collect="always"
     xlink:href="#XMLID_15_"
     id="linearGradient5663"
     gradientUnits="userSpaceOnUse"
     gradientTransform="matrix(9.0067402e-2,0,0,9.0067402e-2,82.224569,17.968058)"
     x1="56.851101"
     y1="91.507797"
     x2="58.826099"
     y2="111.7843" /><linearGradient
     inkscape:collect="always"
     xlink:href="#XMLID_17_"
     id="linearGradient5665"
     gradientUnits="userSpaceOnUse"
     gradientTransform="matrix(9.0067402e-2,0,0,9.0067402e-2,82.224569,17.968058)"
     x1="47.311501"
     y1="10.7583"
     x2="58.862999"
     y2="110.2979" /><linearGradient
     inkscape:collect="always"
     xlink:href="#XMLID_18_"
     id="linearGradient5667"
     gradientUnits="userSpaceOnUse"
     gradientTransform="matrix(9.0067402e-2,0,0,9.0067402e-2,82.224569,17.968058)"
     x1="35.979"
     y1="15.0229"
     x2="68.9291"
     y2="107.2834" /><linearGradient
     inkscape:collect="always"
     xlink:href="#XMLID_19_"
     id="linearGradient5669"
     gradientUnits="userSpaceOnUse"
     gradientTransform="matrix(9.0067402e-2,0,0,9.0067402e-2,82.224569,17.968058)"
     x1="49.921902"
     y1="23.2446"
     x2="58.3703"
     y2="104.0195" /><linearGradient
     inkscape:collect="always"
     xlink:href="#XMLID_20_"
     id="linearGradient5671"
     gradientUnits="userSpaceOnUse"
     gradientTransform="matrix(9.0067402e-2,0,0,9.0067402e-2,82.224569,17.968058)"
     x1="54.9907"
     y1="39.262199"
     x2="63.210098"
     y2="110.0893" /><radialGradient
     inkscape:collect="always"
     xlink:href="#XMLID_21_"
     id="radialGradient5673"
     gradientUnits="userSpaceOnUse"
     gradientTransform="matrix(9.0067402e-2,0,0,9.0067402e-2,82.224569,17.968058)"
     cx="79.615196"
     cy="116.7344"
     r="88.041702" /><radialGradient
     inkscape:collect="always"
     xlink:href="#XMLID_22_"
     id="radialGradient5675"
     gradientUnits="userSpaceOnUse"
     gradientTransform="matrix(9.0067402e-2,0,0,9.0067402e-2,82.224569,17.968058)"
     cx="126.5"
     cy="130.1982"
     r="82.374199" /><linearGradient
     inkscape:collect="always"
     xlink:href="#XMLID_23_"
     id="linearGradient5677"
     gradientUnits="userSpaceOnUse"
     gradientTransform="matrix(9.0067402e-2,0,0,9.0067402e-2,82.224569,17.968058)"
     x1="132.50591"
     y1="35.3008"
     x2="40.759701"
     y2="115.4526" /><radialGradient
     inkscape:collect="always"
     xlink:href="#XMLID_24_"
     id="radialGradient5679"
     gradientUnits="userSpaceOnUse"
     gradientTransform="matrix(9.0067402e-2,0,0,9.0067402e-2,82.224569,17.968058)"
     cx="87.546898"
     cy="108.1338"
     r="112.4545" /><linearGradient
     inkscape:collect="always"
     xlink:href="#XMLID_25_"
     id="linearGradient5681"
     gradientUnits="userSpaceOnUse"
     gradientTransform="matrix(9.0067402e-2,0,0,9.0067402e-2,82.224569,17.968058)"
     x1="59.637199"
     y1="28.6401"
     x2="65.511497"
     y2="120.5861" /><linearGradient
     inkscape:collect="always"
     xlink:href="#XMLID_26_"
     id="linearGradient5683"
     gradientUnits="userSpaceOnUse"
     gradientTransform="matrix(9.0067402e-2,0,0,9.0067402e-2,82.224569,17.968058)"
     x1="103.9541"
     y1="11.4053"
     x2="108.0303"
     y2="106.0095" /><linearGradient
     inkscape:collect="always"
     xlink:href="#XMLID_14_"
     id="linearGradient5685"
     gradientUnits="userSpaceOnUse"
     gradientTransform="matrix(9.0067402e-2,0,0,9.0067402e-2,82.224569,17.968058)"
     x1="53.915501"
     y1="91.115196"
     x2="55.820202"
     y2="110.6698" /><linearGradient
     inkscape:collect="always"
     xlink:href="#XMLID_15_"
     id="linearGradient5687"
     gradientUnits="userSpaceOnUse"
     gradientTransform="matrix(9.0067402e-2,0,0,9.0067402e-2,82.224569,17.968058)"
     x1="56.851101"
     y1="91.507797"
     x2="58.826099"
     y2="111.7843" /><linearGradient
     inkscape:collect="always"
     xlink:href="#XMLID_17_"
     id="linearGradient5689"
     gradientUnits="userSpaceOnUse"
     gradientTransform="matrix(9.0067402e-2,0,0,9.0067402e-2,82.224569,17.968058)"
     x1="47.311501"
     y1="10.7583"
     x2="58.862999"
     y2="110.2979" /><linearGradient
     inkscape:collect="always"
     xlink:href="#XMLID_18_"
     id="linearGradient5691"
     gradientUnits="userSpaceOnUse"
     gradientTransform="matrix(9.0067402e-2,0,0,9.0067402e-2,82.224569,17.968058)"
     x1="35.979"
     y1="15.0229"
     x2="68.9291"
     y2="107.2834" /><linearGradient
     inkscape:collect="always"
     xlink:href="#XMLID_19_"
     id="linearGradient5693"
     gradientUnits="userSpaceOnUse"
     gradientTransform="matrix(9.0067402e-2,0,0,9.0067402e-2,82.224569,17.968058)"
     x1="49.921902"
     y1="23.2446"
     x2="58.3703"
     y2="104.0195" /><linearGradient
     inkscape:collect="always"
     xlink:href="#XMLID_20_"
     id="linearGradient5695"
     gradientUnits="userSpaceOnUse"
     gradientTransform="matrix(9.0067402e-2,0,0,9.0067402e-2,82.224569,17.968058)"
     x1="54.9907"
     y1="39.262199"
     x2="63.210098"
     y2="110.0893" /><radialGradient
     inkscape:collect="always"
     xlink:href="#XMLID_21_"
     id="radialGradient5697"
     gradientUnits="userSpaceOnUse"
     gradientTransform="matrix(9.0067402e-2,0,0,9.0067402e-2,82.224569,17.968058)"
     cx="79.615196"
     cy="116.7344"
     r="88.041702" /><radialGradient
     inkscape:collect="always"
     xlink:href="#XMLID_22_"
     id="radialGradient5699"
     gradientUnits="userSpaceOnUse"
     gradientTransform="matrix(9.0067402e-2,0,0,9.0067402e-2,82.224569,17.968058)"
     cx="126.5"
     cy="130.1982"
     r="82.374199" /><linearGradient
     inkscape:collect="always"
     xlink:href="#XMLID_23_"
     id="linearGradient5701"
     gradientUnits="userSpaceOnUse"
     gradientTransform="matrix(9.0067402e-2,0,0,9.0067402e-2,82.224569,17.968058)"
     x1="132.50591"
     y1="35.3008"
     x2="40.759701"
     y2="115.4526" /><radialGradient
     inkscape:collect="always"
     xlink:href="#XMLID_24_"
     id="radialGradient5703"
     gradientUnits="userSpaceOnUse"
     gradientTransform="matrix(9.0067402e-2,0,0,9.0067402e-2,82.224569,17.968058)"
     cx="87.546898"
     cy="108.1338"
     r="112.4545" /><linearGradient
     inkscape:collect="always"
     xlink:href="#XMLID_25_"
     id="linearGradient5705"
     gradientUnits="userSpaceOnUse"
     gradientTransform="matrix(9.0067402e-2,0,0,9.0067402e-2,82.224569,17.968058)"
     x1="59.637199"
     y1="28.6401"
     x2="65.511497"
     y2="120.5861" /><linearGradient
     inkscape:collect="always"
     xlink:href="#XMLID_26_"
     id="linearGradient5707"
     gradientUnits="userSpaceOnUse"
     gradientTransform="matrix(9.0067402e-2,0,0,9.0067402e-2,82.224569,17.968058)"
     x1="103.9541"
     y1="11.4053"
     x2="108.0303"
     y2="106.0095" /><linearGradient
     inkscape:collect="always"
     xlink:href="#XMLID_14_"
     id="linearGradient5709"
     gradientUnits="userSpaceOnUse"
     gradientTransform="matrix(9.0067402e-2,0,0,9.0067402e-2,82.224569,17.968058)"
     x1="53.915501"
     y1="91.115196"
     x2="55.820202"
     y2="110.6698" /><linearGradient
     inkscape:collect="always"
     xlink:href="#XMLID_15_"
     id="linearGradient5711"
     gradientUnits="userSpaceOnUse"
     gradientTransform="matrix(9.0067402e-2,0,0,9.0067402e-2,82.224569,17.968058)"
     x1="56.851101"
     y1="91.507797"
     x2="58.826099"
     y2="111.7843" /><linearGradient
     inkscape:collect="always"
     xlink:href="#XMLID_17_"
     id="linearGradient5713"
     gradientUnits="userSpaceOnUse"
     gradientTransform="matrix(9.0067402e-2,0,0,9.0067402e-2,82.224569,17.968058)"
     x1="47.311501"
     y1="10.7583"
     x2="58.862999"
     y2="110.2979" /><linearGradient
     inkscape:collect="always"
     xlink:href="#XMLID_18_"
     id="linearGradient5715"
     gradientUnits="userSpaceOnUse"
     gradientTransform="matrix(9.0067402e-2,0,0,9.0067402e-2,82.224569,17.968058)"
     x1="35.979"
     y1="15.0229"
     x2="68.9291"
     y2="107.2834" /><linearGradient
     inkscape:collect="always"
     xlink:href="#XMLID_19_"
     id="linearGradient5717"
     gradientUnits="userSpaceOnUse"
     gradientTransform="matrix(9.0067402e-2,0,0,9.0067402e-2,82.224569,17.968058)"
     x1="49.921902"
     y1="23.2446"
     x2="58.3703"
     y2="104.0195" /><linearGradient
     inkscape:collect="always"
     xlink:href="#XMLID_20_"
     id="linearGradient5719"
     gradientUnits="userSpaceOnUse"
     gradientTransform="matrix(9.0067402e-2,0,0,9.0067402e-2,82.224569,17.968058)"
     x1="54.9907"
     y1="39.262199"
     x2="63.210098"
     y2="110.0893" /><radialGradient
     inkscape:collect="always"
     xlink:href="#XMLID_21_"
     id="radialGradient5721"
     gradientUnits="userSpaceOnUse"
     gradientTransform="matrix(9.0067402e-2,0,0,9.0067402e-2,82.224569,17.968058)"
     cx="79.615196"
     cy="116.7344"
     r="88.041702" /><radialGradient
     inkscape:collect="always"
     xlink:href="#XMLID_22_"
     id="radialGradient5723"
     gradientUnits="userSpaceOnUse"
     gradientTransform="matrix(9.0067402e-2,0,0,9.0067402e-2,82.224569,17.968058)"
     cx="126.5"
     cy="130.1982"
     r="82.374199" /><linearGradient
     inkscape:collect="always"
     xlink:href="#XMLID_23_"
     id="linearGradient5725"
     gradientUnits="userSpaceOnUse"
     gradientTransform="matrix(9.0067402e-2,0,0,9.0067402e-2,82.224569,17.968058)"
     x1="132.50591"
     y1="35.3008"
     x2="40.759701"
     y2="115.4526" /><radialGradient
     inkscape:collect="always"
     xlink:href="#XMLID_24_"
     id="radialGradient5727"
     gradientUnits="userSpaceOnUse"
     gradientTransform="matrix(9.0067402e-2,0,0,9.0067402e-2,82.224569,17.968058)"
     cx="87.546898"
     cy="108.1338"
     r="112.4545" /><linearGradient
     inkscape:collect="always"
     xlink:href="#XMLID_25_"
     id="linearGradient5729"
     gradientUnits="userSpaceOnUse"
     gradientTransform="matrix(9.0067402e-2,0,0,9.0067402e-2,82.224569,17.968058)"
     x1="59.637199"
     y1="28.6401"
     x2="65.511497"
     y2="120.5861" /><linearGradient
     inkscape:collect="always"
     xlink:href="#XMLID_26_"
     id="linearGradient5731"
     gradientUnits="userSpaceOnUse"
     gradientTransform="matrix(9.0067402e-2,0,0,9.0067402e-2,82.224569,17.968058)"
     x1="103.9541"
     y1="11.4053"
     x2="108.0303"
     y2="106.0095" /><filter
     inkscape:collect="always"
     id="filter3812"><feGaussianBlur
       inkscape:collect="always"
       stdDeviation="1.1541666"
       id="feGaussianBlur3814" /></filter><filter
     inkscape:collect="always"
     id="filter3826"
     x="-0.018554622"
     width="1.0371092"
     y="-0.60218181"
     height="2.2043636"><feGaussianBlur
       inkscape:collect="always"
       stdDeviation="0.92"
       id="feGaussianBlur3828" /></filter><linearGradient
     inkscape:collect="always"
     xlink:href="#linearGradient3776"
     id="linearGradient2714"
     gradientUnits="userSpaceOnUse"
     x1="46.68898"
     y1="74.007736"
     x2="46.68898"
     y2="81.954689" /><linearGradient
     inkscape:collect="always"
     xlink:href="#linearGradient3776"
     id="linearGradient2716"
     gradientUnits="userSpaceOnUse"
     x1="46.68898"
     y1="74.007736"
     x2="46.68898"
     y2="81.954689" /><linearGradient
     inkscape:collect="always"
     xlink:href="#linearGradient3865"
     id="linearGradient2718"
     gradientUnits="userSpaceOnUse"
     x1="50.587173"
     y1="81.954689"
     x2="50.495941"
     y2="78.397881" /><linearGradient
     inkscape:collect="always"
     xlink:href="#linearGradient3776"
     id="linearGradient2720"
     gradientUnits="userSpaceOnUse"
     x1="46.68898"
     y1="74.007736"
     x2="46.68898"
     y2="81.954689" /><linearGradient
     inkscape:collect="always"
     xlink:href="#linearGradient3865"
     id="linearGradient2722"
     gradientUnits="userSpaceOnUse"
     x1="49.885685"
     y1="81.954689"
     x2="49.520824"
     y2="78.397881" /><linearGradient
     inkscape:collect="always"
     xlink:href="#linearGradient3776"
     id="linearGradient2724"
     gradientUnits="userSpaceOnUse"
     x1="46.68898"
     y1="74.007736"
     x2="46.68898"
     y2="81.954689" /><linearGradient
     inkscape:collect="always"
     xlink:href="#linearGradient3865"
     id="linearGradient2726"
     gradientUnits="userSpaceOnUse"
     x1="43.126053"
     y1="81.046455"
     x2="44.218273"
     y2="78.397881" /><linearGradient
     inkscape:collect="always"
     xlink:href="#linearGradient3776"
     id="linearGradient2728"
     gradientUnits="userSpaceOnUse"
     x1="46.68898"
     y1="73.841072"
     x2="46.68898"
     y2="81.954689" /><linearGradient
     inkscape:collect="always"
     xlink:href="#linearGradient4299"
     id="linearGradient2817"
     gradientUnits="userSpaceOnUse"
     gradientTransform="matrix(1.0020168,0,0,1.0020168,-68.536711,8.8007518)"
     x1="124.63371"
     y1="12.844601"
     x2="128.5047"
     y2="49.127014" /><linearGradient
     inkscape:collect="always"
     xlink:href="#linearGradient4309"
     id="linearGradient2821"
     gradientUnits="userSpaceOnUse"
     gradientTransform="translate(-68.262536,9.7996668)"
     x1="185.29352"
     y1="61.772274"
     x2="169.54645"
     y2="23.374943" /><linearGradient
     inkscape:collect="always"
     xlink:href="#linearGradient3467"
     id="linearGradient2825"
     gradientUnits="userSpaceOnUse"
     gradientTransform="matrix(2.6569884,0,0,2.6569884,253.51037,97.904207)"
     x1="-92.454216"
     y1="-29.745321"
     x2="-50.454216"
     y2="-8.7453213" /><linearGradient
     inkscape:collect="always"
     xlink:href="#linearGradient3654"
     id="linearGradient3698"
     gradientUnits="userSpaceOnUse"
     gradientTransform="matrix(1,0,0,1.1841396,146.66665,-22.844877)"
     x1="-81.004936"
     y1="146.06485"
     x2="-62.639893"
     y2="76.868217" /><linearGradient
     inkscape:collect="always"
     xlink:href="#linearGradient3901"
     id="linearGradient3701"
     gradientUnits="userSpaceOnUse"
     x1="28.930264"
     y1="38.224167"
     x2="32.976326"
     y2="38.399643"
     gradientTransform="matrix(2.6666667,0,0,2.6666667,0,-5.3333333e-6)" /><linearGradient
     inkscape:collect="always"
     xlink:href="#linearGradient3901"
     id="linearGradient3704"
     gradientUnits="userSpaceOnUse"
     x1="25.80007"
     y1="38.53125"
     x2="28.818081"
     y2="38.53125"
     gradientTransform="matrix(2.6666667,0,0,2.6666667,0,-5.3333333e-6)" /><linearGradient
     inkscape:collect="always"
     xlink:href="#linearGradient3901"
     id="linearGradient3707"
     gradientUnits="userSpaceOnUse"
     x1="15.373969"
     y1="38.919338"
     x2="19.476271"
     y2="38.856762"
     gradientTransform="matrix(2.6666667,0,0,2.6666667,0,-5.3333333e-6)" /><linearGradient
     inkscape:collect="always"
     xlink:href="#linearGradient3901"
     id="linearGradient3710"
     gradientUnits="userSpaceOnUse"
     x1="20.960947"
     y1="38.171875"
     x2="24.002075"
     y2="38.171875"
     gradientTransform="matrix(2.6666667,0,0,2.6666667,0,-5.3333333e-6)" /><radialGradient
     inkscape:collect="always"
     xlink:href="#linearGradient3838"
     id="radialGradient3719"
     gradientUnits="userSpaceOnUse"
     gradientTransform="matrix(1,0,0,0.7511266,0,7.2936314)"
     cx="46.665131"
     cy="33.30061"
     fx="46.665131"
     fy="33.30061"
     r="6.90416" /><linearGradient
     inkscape:collect="always"
     xlink:href="#linearGradient3830"
     id="linearGradient3721"
     gradientUnits="userSpaceOnUse"
     x1="39.760972"
     y1="29.30661"
     x2="53.56929"
     y2="32.30661"
     gradientTransform="translate(0,-5.3333333e-6)" /><linearGradient
     inkscape:collect="always"
     xlink:href="#linearGradient3435"
     id="linearGradient3725"
     gradientUnits="userSpaceOnUse"
     gradientTransform="matrix(1,0,0,1.1841396,-1e-5,-22.844877)"
     x1="53.583332"
     y1="52.317886"
     x2="46.66666"
     y2="53.090298" /><linearGradient
     inkscape:collect="always"
     xlink:href="#linearGradient3386"
     id="linearGradient3727"
     gradientUnits="userSpaceOnUse"
     gradientTransform="matrix(1,0,0,1.1841396,-1e-5,-22.844877)"
     x1="46.66666"
     y1="80.549843"
     x2="53.733334"
     y2="90.652481" /><linearGradient
     inkscape:collect="always"
     xlink:href="#linearGradient3435"
     id="linearGradient3731"
     gradientUnits="userSpaceOnUse"
     gradientTransform="matrix(2.6666667,0,0,3.1577056,-1e-5,-22.844877)"
     x1="34.09375"
     y1="32.997398"
     x2="30.954504"
     y2="33.704506" /><linearGradient
     inkscape:collect="always"
     xlink:href="#linearGradient3386"
     id="linearGradient3733"
     gradientUnits="userSpaceOnUse"
     gradientTransform="matrix(3,0,0,3.1577056,-22.22224,-22.844877)"
     x1="37.712963"
     y1="29.117413"
     x2="33.496296"
     y2="32.388763" /><linearGradient
     inkscape:collect="always"
     xlink:href="#linearGradient3435"
     id="linearGradient3737"
     gradientUnits="userSpaceOnUse"
     gradientTransform="matrix(1,0,0,1.1841396,-1e-5,-22.844877)"
     x1="77.266762"
     y1="67.88443"
     x2="69.382645"
     y2="72.711189" /><linearGradient
     inkscape:collect="always"
     xlink:href="#linearGradient3386"
     id="linearGradient3739"
     gradientUnits="userSpaceOnUse"
     gradientTransform="matrix(1.125,0,0,1.1841396,-8.33335,-22.844877)"
     x1="69.559471"
     y1="63.75"
     x2="69.559471"
     y2="85.895348" /><linearGradient
     inkscape:collect="always"
     xlink:href="#linearGradient3435"
     id="linearGradient3742"
     gradientUnits="userSpaceOnUse"
     gradientTransform="matrix(1,0,0,1.1841396,-1e-5,-22.844877)"
     x1="66.916679"
     y1="72.207947"
     x2="60.000015"
     y2="73.857864" /><linearGradient
     inkscape:collect="always"
     xlink:href="#linearGradient3386"
     id="linearGradient3744"
     gradientUnits="userSpaceOnUse"
     gradientTransform="matrix(1,0,0,1.1841396,-1e-5,-22.844877)"
     x1="53.583317"
     y1="55.803551"
     x2="53.583317"
     y2="85.034912" /><radialGradient
     inkscape:collect="always"
     xlink:href="#linearGradient3427"
     id="radialGradient3747"
     gradientUnits="userSpaceOnUse"
     gradientTransform="matrix(1.0575048,-0.1422573,0.2747669,2.8374093,12.669557,-93.201429)"
     cx="27.180492"
     cy="77.351418"
     fx="27.180492"
     fy="77.351418"
     r="28.000001" /><radialGradient
     inkscape:collect="always"
     xlink:href="#linearGradient3427"
     id="radialGradient3754"
     gradientUnits="userSpaceOnUse"
     gradientTransform="matrix(1.0575048,-0.1422573,0.2747669,2.8374093,12.669557,-93.201429)"
     cx="27.180492"
     cy="77.351418"
     fx="27.180492"
     fy="77.351418"
     r="28.000001" /><linearGradient
     inkscape:collect="always"
     xlink:href="#linearGradient3386"
     id="linearGradient3769"
     gradientUnits="userSpaceOnUse"
     gradientTransform="matrix(1,0,0,1.1841396,-9.6666667e-6,-22.844877)"
     x1="36.000011"
     y1="73.384064"
     x2="42.419624"
     y2="101.40114" /><linearGradient
     inkscape:collect="always"
     xlink:href="#linearGradient3773"
     id="linearGradient3771"
     gradientUnits="userSpaceOnUse"
     gradientTransform="matrix(1,0,0,1.1841396,-9.6666667e-6,-22.844877)"
     x1="42.124172"
     y1="85.225418"
     x2="36.000011"
     y2="86.119446" /></defs><sodipodi:namedview
   inkscape:window-height="1093"
   inkscape:window-width="1568"
   inkscape:pageshadow="2"
   inkscape:pageopacity="0.0"
   guidetolerance="10.0"
   gridtolerance="10.0"
   objecttolerance="10.0"
   borderopacity="1.0"
   bordercolor="#666666"
   pagecolor="#ffffff"
   id="base"
   showgrid="false"
   inkscape:zoom="5.6568542"
   inkscape:cx="19.899516"
   inkscape:cy="13.075997"
   inkscape:window-x="256"
   inkscape:window-y="57"
   inkscape:current-layer="Layer_1"
   showguides="true"
   inkscape:guide-bbox="true"><inkscape:grid
     type="xygrid"
     id="grid2582"
     visible="true"
     enabled="true" /></sodipodi:namedview>
<linearGradient
   id="XMLID_14_"
   gradientUnits="userSpaceOnUse"
   x1="53.915501"
   y1="91.115196"
   x2="55.820202"
   y2="110.6698">
	<stop
   offset="0"
   style="stop-color: rgb(153, 153, 153);"
   id="stop4" />
	<stop
   offset="1"
   style="stop-color: rgb(77, 77, 77);"
   id="stop6" />
</linearGradient>

<linearGradient
   id="XMLID_15_"
   gradientUnits="userSpaceOnUse"
   x1="56.851101"
   y1="91.507797"
   x2="58.826099"
   y2="111.7843">
	<stop
   offset="0"
   style="stop-color: rgb(153, 153, 153);"
   id="stop11" />
	<stop
   offset="1"
   style="stop-color: rgb(77, 77, 77);"
   id="stop13" />
</linearGradient>

<linearGradient
   id="XMLID_16_"
   gradientUnits="userSpaceOnUse"
   x1="57.940899"
   y1="89.600601"
   x2="60.232399"
   y2="113.1264">
	<stop
   offset="0"
   style="stop-color: rgb(153, 153, 153);"
   id="stop18" />
	<stop
   offset="1"
   style="stop-color: rgb(77, 77, 77);"
   id="stop20" />
</linearGradient>

<linearGradient
   id="XMLID_17_"
   gradientUnits="userSpaceOnUse"
   x1="47.311501"
   y1="10.7583"
   x2="58.862999"
   y2="110.2979">
	<stop
   offset="0"
   style="stop-color: rgb(153, 153, 153);"
   id="stop25" />
	<stop
   offset="1"
   style="stop-color: rgb(77, 77, 77);"
   id="stop27" />
</linearGradient>

<linearGradient
   id="XMLID_18_"
   gradientUnits="userSpaceOnUse"
   x1="35.979"
   y1="15.0229"
   x2="68.9291"
   y2="107.2834">
	<stop
   offset="0"
   style="stop-color: rgb(255, 255, 255);"
   id="stop32" />
	<stop
   offset="0.2191"
   style="stop-color: rgb(244, 244, 244);"
   id="stop34" />
	<stop
   offset="0.6013"
   style="stop-color: rgb(216, 216, 216);"
   id="stop36" />
	<stop
   offset="1"
   style="stop-color: rgb(179, 179, 179);"
   id="stop38" />
</linearGradient>


<linearGradient
   id="XMLID_19_"
   gradientUnits="userSpaceOnUse"
   x1="49.921902"
   y1="23.2446"
   x2="58.3703"
   y2="104.0195">
	<stop
   offset="0"
   style="stop-color: rgb(217, 217, 217);"
   id="stop45" />
	<stop
   offset="0.3749"
   style="stop-color: rgb(206, 206, 206);"
   id="stop47" />
	<stop
   offset="1"
   style="stop-color: rgb(179, 179, 179);"
   id="stop49" />
</linearGradient>

<linearGradient
   id="XMLID_20_"
   gradientUnits="userSpaceOnUse"
   x1="54.9907"
   y1="39.262199"
   x2="63.210098"
   y2="110.0893">
	<stop
   offset="0"
   style="stop-color: rgb(153, 153, 153);"
   id="stop54" />
	<stop
   offset="1"
   style="stop-color: rgb(77, 77, 77);"
   id="stop56" />
</linearGradient>

<radialGradient
   id="XMLID_21_"
   cx="79.615196"
   cy="116.7344"
   r="88.041702"
   gradientUnits="userSpaceOnUse">
	<stop
   offset="0"
   style="stop-color: rgb(255, 221, 112);"
   id="stop61" />
	<stop
   offset="0.4225"
   style="stop-color: rgb(255, 171, 67);"
   id="stop63" />
	<stop
   offset="0.8022"
   style="stop-color: rgb(255, 132, 31);"
   id="stop65" />
	<stop
   offset="1"
   style="stop-color: rgb(255, 117, 18);"
   id="stop67" />
</radialGradient>

<radialGradient
   id="XMLID_22_"
   cx="126.5"
   cy="130.1982"
   r="82.374199"
   gradientUnits="userSpaceOnUse">
	<stop
   offset="0"
   style="stop-color: rgb(242, 210, 106);"
   id="stop72" />
	<stop
   offset="0.2621"
   style="stop-color: rgb(246, 182, 80);"
   id="stop74" />
	<stop
   offset="0.7541"
   style="stop-color: rgb(252, 135, 35);"
   id="stop76" />
	<stop
   offset="1"
   style="stop-color: rgb(255, 117, 18);"
   id="stop78" />
</radialGradient>

<linearGradient
   id="XMLID_23_"
   gradientUnits="userSpaceOnUse"
   x1="132.50591"
   y1="35.3008"
   x2="40.759701"
   y2="115.4526">
	<stop
   offset="0"
   style="stop-color: rgb(255, 221, 112);"
   id="stop83" />
	<stop
   offset="0.3826"
   style="stop-color: rgb(255, 176, 71);"
   id="stop85" />
	<stop
   offset="0.791"
   style="stop-color: rgb(255, 133, 33);"
   id="stop87" />
	<stop
   offset="1"
   style="stop-color: rgb(255, 117, 18);"
   id="stop89" />
</linearGradient>

<radialGradient
   id="XMLID_24_"
   cx="87.546898"
   cy="108.1338"
   r="112.4545"
   gradientUnits="userSpaceOnUse">
	<stop
   offset="0"
   style="stop-color: rgb(255, 243, 204);"
   id="stop94" />
	<stop
   offset="0.1912"
   style="stop-color: rgb(255, 219, 170);"
   id="stop96" />
	<stop
   offset="0.5738"
   style="stop-color: rgb(255, 176, 108);"
   id="stop98" />
	<stop
   offset="0.854"
   style="stop-color: rgb(255, 148, 69);"
   id="stop100" />
	<stop
   offset="1"
   style="stop-color: rgb(255, 138, 54);"
   id="stop102" />
</radialGradient>

<linearGradient
   id="XMLID_25_"
   gradientUnits="userSpaceOnUse"
   x1="59.637199"
   y1="28.6401"
   x2="65.511497"
   y2="120.5861">
	<stop
   offset="0"
   style="stop-color: rgb(235, 219, 166);"
   id="stop107" />
	<stop
   offset="1"
   style="stop-color: rgb(255, 117, 18);"
   id="stop109" />
</linearGradient>

<linearGradient
   id="XMLID_26_"
   gradientUnits="userSpaceOnUse"
   x1="103.9541"
   y1="11.4053"
   x2="108.0303"
   y2="106.0095">
	<stop
   offset="0"
   style="stop-color: rgb(153, 153, 153);"
   id="stop114" />
	<stop
   offset="1"
   style="stop-color: rgb(77, 77, 77);"
   id="stop116" />
</linearGradient>




<path
   sodipodi:type="arc"
   style="opacity:0.5;fill:#000000;fill-opacity:0.35840705;fill-rule:nonzero;stroke:none;stroke-width:0.30000001;stroke-linecap:round;stroke-linejoin:round;marker:none;marker-start:none;marker-mid:none;marker-end:none;stroke-miterlimit:4;stroke-dasharray:none;stroke-dashoffset:0;stroke-opacity:1;visibility:visible;display:inline;overflow:visible;filter:url(#filter3826);enable-background:accumulate"
   id="path3816"
   sodipodi:cx="63.5"
   sodipodi:cy="93.5"
   sodipodi:rx="59.5"
   sodipodi:ry="1.8333334"
   d="M 123,93.5 A 59.5,1.8333334 0 1 1 4,93.5 A 59.5,1.8333334 0 1 1 123,93.5 z"
   transform="matrix(1,0,0,1.6428243,0,-58.925564)" /><g
   id="layer1"
   inkscape:label="Shadow"
   transform="matrix(1.0978097,0,0,1.0978097,-82.041039,3.1215153)" /><g
   transform="matrix(1.0978097,0,0,1.0978097,-82.041039,19.661151)"
   inkscape:label="Shadow"
   id="g2611" /><g
   transform="matrix(1.0978097,0,0,1.0978097,-82.041039,19.661151)"
   style="display:inline"
   inkscape:label="Lavoro"
   id="g2613" /><rect
   y="11.447928"
   x="4.1925254"
   height="80.037605"
   width="118.92959"
   id="rect3485"
   style="fill:#d7d9d4;fill-opacity:1;stroke:#686563;stroke-width:2.66666675000000009;stroke-linejoin:round;stroke-miterlimit:4;stroke-dasharray:none;stroke-opacity:1;display:inline"
   ry="1.3061265"
   rx="1.3061265" /><rect
   style="fill:#868982;fill-opacity:1;stroke:none;stroke-width:0.972;stroke-linejoin:round;stroke-miterlimit:4;stroke-dasharray:none;stroke-opacity:1;overflow:visible"
   id="rect4421"
   width="117.33334"
   height="2.6666667"
   x="4.7365394"
   y="19.038118" /><rect
   y="75.15097"
   x="7.5692501"
   height="14.968589"
   width="111.59467"
   id="rect4692"
   style="fill:#c5c8bf;fill-opacity:1;stroke:none;stroke-width:1;stroke-linejoin:miter;stroke-miterlimit:4;stroke-dasharray:none;stroke-opacity:1;display:inline;overflow:visible" /><rect
   y="77.351578"
   x="5.3372626"
   height="8"
   width="116.26667"
   id="rect4596"
   style="fill:#c5c8bf;fill-opacity:1;stroke:none;stroke-width:1;stroke-linejoin:miter;stroke-miterlimit:4;stroke-dasharray:none;stroke-opacity:1;display:inline;overflow:visible" /><rect
   y="77.555519"
   x="7.6071377"
   height="8"
   width="111.59467"
   id="rect4317"
   style="fill:#b4b7af;fill-opacity:1;stroke:none;stroke-width:1;stroke-linejoin:miter;stroke-miterlimit:4;stroke-dasharray:none;stroke-opacity:1;display:inline;overflow:visible" /><rect
   style="fill:#868982;fill-opacity:1;stroke:none;stroke-width:0.972;stroke-linejoin:round;stroke-miterlimit:4;stroke-dasharray:none;stroke-opacity:1"
   id="rect4417"
   width="117.33334"
   height="2.6666667"
   x="4.9699759"
   y="72.144699" /><rect
   y="18.871223"
   x="7.8605394"
   height="55.796749"
   width="111.59349"
   id="rect3441"
   style="fill:url(#linearGradient2825);fill-opacity:1;stroke:none;stroke-width:5;stroke-linejoin:round;stroke-miterlimit:4;stroke-dasharray:none;stroke-opacity:1" /><path
   style="opacity:0.61764706;fill:#b14700;fill-opacity:1;stroke:none;stroke-width:2;stroke-linejoin:round;stroke-miterlimit:4;stroke-dasharray:none;stroke-opacity:1"
   d="M 97.921382,21.532229 C 70.420925,31.546797 54.425928,47.116881 45.921388,71.448896 L 116.83806,71.448896 L 117.00472,56.53223 L 117.00472,21.532229 L 97.921382,21.532229 z"
   id="rect5002"
   sodipodi:nodetypes="cccccc" /><rect
   y="23.571936"
   x="10.364325"
   height="48"
   width="106.66666"
   id="rect4307"
   style="opacity:0.16176471;fill:url(#linearGradient2821);fill-opacity:1;stroke:none;stroke-width:1;stroke-linejoin:miter;stroke-miterlimit:4;stroke-dasharray:none;stroke-opacity:1;display:inline;overflow:visible" /><path
   style="opacity:0.14705882;fill:#b44e0a;fill-opacity:1;stroke:none;stroke-width:2;stroke-linejoin:round;stroke-miterlimit:4;stroke-dasharray:none;stroke-opacity:1;overflow:visible"
   d="M 13.728021,21.500003 C 27.207203,44.268393 67.336425,61.569799 116.72803,65.000004 L 116.72803,21.500003 L 13.728021,21.500003 z"
   id="rect5009" /><path
   style="opacity:0.45;fill:url(#linearGradient2817);fill-opacity:1"
   d="M 10.364318,21.671261 L 10.364318,58.026852 C 49.966008,38.817023 80.136565,41.162259 117.03099,43.121663 L 117.03099,21.671261 L 10.364318,21.671261 z"
   id="path4213"
   sodipodi:nodetypes="ccccc" /><g
   id="g5059"
   transform="matrix(0.824908,0,0,0.824908,-54.280175,11.585464)"><path
     id="path8"
     d="M 82.224569,26.701804 C 82.224569,27.133857 82.631674,27.335068 82.810007,27.335068 L 91.667416,27.335068 C 92.02066,27.313632 92.041916,27.032712 92.041916,26.695229 L 92.041916,26.705046 C 92.041916,26.36207 82.224569,26.701804 82.224569,26.701804 z"
     style="opacity:0.2;fill:url(#linearGradient5661)" /><path
     id="path15"
     d="M 82.224569,26.791871 C 82.224569,27.161958 82.518729,27.425135 82.810007,27.425135 L 91.956622,27.425135 C 92.309866,27.403699 92.597361,27.357224 92.597361,27.019832 L 92.58232,26.795114 C 92.58232,26.461054 82.224569,26.602009 82.224569,26.791871 z"
     style="opacity:0.2;fill:url(#linearGradient5663)" /><path
     id="path29"
     d="M 82.850177,19.418143 C 82.505219,19.418143 82.224569,19.698163 82.224569,20.0424 L 82.224569,26.620743 C 82.224569,26.964981 82.505219,27.245 82.850177,27.245 L 91.236173,27.245 C 91.581131,27.245 91.861691,26.964981 91.861691,26.620743 L 91.861691,20.858951 C 91.861691,20.514714 91.581131,20.234694 91.236173,20.234694 L 87.874407,20.234694 C 87.622849,20.234694 87.30428,20.100314 87.081724,19.900274 C 87.081724,19.900274 86.988504,19.816691 86.988504,19.816691 C 86.798102,19.645653 86.504662,19.418143 86.155741,19.418143 L 82.850177,19.418143 L 82.850177,19.418143 z"
     style="opacity:0.75;fill:url(#linearGradient5665)" /><path
     id="path40"
     d="M 91.771714,26.620743 C 91.771714,26.914633 91.530693,27.154933 91.236263,27.154933 L 82.850177,27.154933 C 82.555657,27.154933 82.314636,26.914633 82.314636,26.620743 L 82.314636,20.0424 C 82.314636,19.7486 82.555657,19.508211 82.850177,19.508211 L 86.155741,19.508211 C 86.450351,19.508211 86.709565,19.687175 86.928339,19.883702 L 87.021469,19.967284 C 87.240242,20.163811 87.579887,20.324762 87.874407,20.324762 L 91.236263,20.324762 C 91.530783,20.324762 91.771714,20.565061 91.771714,20.858951 L 91.771714,26.620743 z"
     style="fill:url(#linearGradient5667)" /><path
     id="path42"
     d="M 91.236263,20.324852 L 87.874407,20.324852 C 87.579887,20.324852 87.240242,20.163901 87.021469,19.967374 L 86.928339,19.883792 C 86.709655,19.687265 86.450351,19.508301 86.155741,19.508301 L 82.850177,19.508301 C 82.555657,19.508211 82.314636,19.7486 82.314636,20.0424 L 82.314636,20.132468 C 82.314636,19.838668 82.555657,19.598278 82.850177,19.598278 L 86.155741,19.598278 C 86.450351,19.598278 86.709565,19.777242 86.928339,19.973769 L 87.021469,20.057352 C 87.240242,20.253879 87.579887,20.414829 87.874407,20.414829 L 91.236263,20.414829 C 91.530783,20.414829 91.771714,20.655129 91.771714,20.949019 L 91.771714,20.858951 C 91.771714,20.565152 91.530693,20.324852 91.236263,20.324852 z"
     style="fill:#ffffff" /><path
     id="path51"
     d="M 82.525754,26.958226 C 82.525754,26.958226 82.614381,26.973357 82.671213,26.932647 C 82.731198,26.889594 82.764973,26.767193 82.764973,26.605162 L 82.764973,22.843587 C 82.764973,22.50061 83.045714,22.221671 83.390672,22.221671 L 86.750906,22.221671 C 87.020748,22.221671 87.34373,22.040906 87.54413,21.861672 L 87.63717,21.77845 C 87.922143,21.523469 88.194507,21.399536 88.470023,21.399536 L 91.771714,21.399536 L 91.771714,21.345496 L 88.379955,21.345496 C 88.104439,21.345496 87.832075,21.469428 87.547102,21.724409 L 87.454062,21.807631 C 87.253663,21.986775 86.930681,22.167631 86.660839,22.167631 L 83.300604,22.167631 C 82.955646,22.167631 82.674906,22.44666 82.674906,22.789636 L 82.674906,26.551121 C 82.68049,26.732787 82.630323,26.900403 82.569797,26.943004 C 82.557908,26.951291 82.525754,26.958226 82.525754,26.958226 z"
     style="fill:url(#linearGradient5669)" /><path
     id="path58"
     d="M 88.470023,21.399626 C 88.194507,21.399626 87.922143,21.523559 87.63717,21.77854 L 87.54413,21.861762 C 87.34373,22.040906 87.020748,22.221671 86.750906,22.221671 L 83.390672,22.221671 C 83.045714,22.221671 82.764973,22.5007 82.764973,22.843587 L 82.764973,26.605072 C 82.764973,26.771426 82.731648,26.890135 82.673555,26.931025 C 82.63951,26.954983 82.579435,26.972096 82.510173,26.954983 C 82.441541,26.938051 82.414071,26.904365 82.369397,26.862934 C 82.347691,26.900853 82.3993,27.052436 82.432895,27.080357 C 82.45262,27.09684 82.618614,27.235183 82.824148,27.235183 L 92.046689,27.245 C 92.400024,27.223564 92.672388,26.942554 92.672388,26.605162 L 92.672388,22.021541 C 92.672388,21.678655 92.391738,21.399626 92.046689,21.399626 L 88.470023,21.399626 z"
     style="opacity:0.75;fill:url(#linearGradient5671)" /><path
     id="path69"
     d="M 82.855041,26.605162 C 82.855041,26.912922 82.718499,27.131065 82.490538,27.015689 C 82.490538,27.015689 82.657973,27.155023 82.810007,27.155023 C 82.962041,27.155023 92.046689,27.155023 92.046689,27.155023 C 92.3413,27.13701 92.58232,26.897701 92.58232,26.605252 L 92.58232,22.021541 C 92.58232,21.729003 92.3413,21.489693 92.046689,21.489693 L 88.470023,21.489693 C 88.175412,21.489693 87.916018,21.649923 87.697244,21.84564 L 87.604205,21.928862 C 87.385341,22.124488 87.045607,22.311739 86.750906,22.311739 L 83.390672,22.311739 C 83.096061,22.311739 82.855041,22.551048 82.855041,22.843587 L 82.855041,26.605162 z"
     style="fill:url(#radialGradient5673)" /><path
     id="path80"
     d="M 92.046689,21.489693 L 91.771714,21.489693 L 91.771714,27.154933 C 92.003907,27.154933 92.046689,27.154933 92.046689,27.154933 C 92.3413,27.13692 92.58232,26.89761 92.58232,26.605162 L 92.58232,22.021541 C 92.58232,21.729003 92.3413,21.489693 92.046689,21.489693 z"
     style="fill:url(#radialGradient5675)" /><path
     id="path91"
     d="M 92.046689,26.974798 C 92.046689,26.974798 82.954655,26.927963 82.810007,26.974798 C 82.780825,26.984165 82.755246,26.991821 82.732009,26.998216 C 82.675897,27.041358 82.575382,27.074773 82.494411,27.015329 C 82.537913,27.049554 82.682382,27.154933 82.810007,27.154933 C 82.962041,27.154933 92.046689,27.154933 92.046689,27.154933 C 92.3413,27.13692 92.58232,26.89761 92.58232,26.605162 L 92.58232,26.515094 C 92.58232,26.807543 92.3413,26.956785 92.046689,26.974798 z"
     style="fill:url(#linearGradient5677)" /><path
     id="path104"
     d="M 87.505761,24.262959 C 90.037916,23.95754 92.58232,23.88999 92.58232,23.88999 L 92.58232,22.021541 C 92.58232,21.729003 92.3413,21.489693 92.046689,21.489693 L 88.470023,21.489693 C 88.175412,21.489693 87.916018,21.649923 87.697244,21.84564 L 87.604205,21.928862 C 87.385341,22.124488 87.045607,22.311739 86.750906,22.311739 L 83.390672,22.311739 C 83.096061,22.311739 82.855041,22.551048 82.855041,22.843587 L 82.855041,25.60127 C 82.855041,25.60127 84.973516,24.568287 87.505761,24.262959 z"
     style="fill:url(#radialGradient5679)" /><path
     id="path111"
     d="M 92.046689,21.489693 L 88.470023,21.489693 C 88.175412,21.489693 87.916018,21.649923 87.697244,21.84564 L 87.604205,21.928862 C 87.385341,22.124488 87.045607,22.311739 86.750906,22.311739 L 83.390672,22.311739 C 83.096061,22.311739 82.855041,22.551048 82.855041,22.843587 L 82.855041,22.933654 C 82.855041,22.641115 83.096061,22.401806 83.390672,22.401806 L 86.750906,22.401806 C 87.045517,22.401806 87.385341,22.214556 87.604205,22.018929 L 87.697244,21.935707 C 87.916018,21.739991 88.175412,21.579761 88.470023,21.579761 L 92.046689,21.579761 C 92.3413,21.579761 92.58232,21.81907 92.58232,22.111609 L 92.58232,22.021541 C 92.58232,21.729003 92.3413,21.489693 92.046689,21.489693 z"
     style="fill:url(#linearGradient5681)" /><rect
     id="rect118"
     height="5.6742463"
     width="0.090067402"
     style="opacity:0.15;fill:url(#linearGradient5683)"
     y="21.480686"
     x="91.771713" /><path
     id="path120"
     d="M 85.984063,20.129676 C 85.984063,20.22875 85.903002,20.30981 85.803928,20.30981 L 83.011838,20.30981 C 82.912764,20.30981 82.831704,20.22875 82.831704,20.129676 L 82.831704,19.949541 C 82.831704,19.850467 82.912764,19.769406 83.011838,19.769406 L 85.803928,19.769406 C 85.903002,19.769406 85.984063,19.850467 85.984063,19.949541 L 85.984063,20.129676 z"
     style="fill:#f3af61" /></g><g
   style="overflow:visible"
   id="g5075"
   transform="matrix(0.824908,0,0,0.824908,-54.280175,28.735985)"><path
     id="path5077"
     d="M 82.224569,26.701804 C 82.224569,27.133857 82.631674,27.335068 82.810007,27.335068 L 91.667416,27.335068 C 92.02066,27.313632 92.041916,27.032712 92.041916,26.695229 L 92.041916,26.705046 C 92.041916,26.36207 82.224569,26.701804 82.224569,26.701804 z"
     style="opacity:0.2;fill:url(#linearGradient5685)" /><path
     id="path5079"
     d="M 82.224569,26.791871 C 82.224569,27.161958 82.518729,27.425135 82.810007,27.425135 L 91.956622,27.425135 C 92.309866,27.403699 92.597361,27.357224 92.597361,27.019832 L 92.58232,26.795114 C 92.58232,26.461054 82.224569,26.602009 82.224569,26.791871 z"
     style="opacity:0.2;fill:url(#linearGradient5687)" /><path
     id="path5081"
     d="M 82.850177,19.418143 C 82.505219,19.418143 82.224569,19.698163 82.224569,20.0424 L 82.224569,26.620743 C 82.224569,26.964981 82.505219,27.245 82.850177,27.245 L 91.236173,27.245 C 91.581131,27.245 91.861691,26.964981 91.861691,26.620743 L 91.861691,20.858951 C 91.861691,20.514714 91.581131,20.234694 91.236173,20.234694 L 87.874407,20.234694 C 87.622849,20.234694 87.30428,20.100314 87.081724,19.900274 C 87.081724,19.900274 86.988504,19.816691 86.988504,19.816691 C 86.798102,19.645653 86.504662,19.418143 86.155741,19.418143 L 82.850177,19.418143 L 82.850177,19.418143 z"
     style="opacity:0.75;fill:url(#linearGradient5689)" /><path
     id="path5083"
     d="M 91.771714,26.620743 C 91.771714,26.914633 91.530693,27.154933 91.236263,27.154933 L 82.850177,27.154933 C 82.555657,27.154933 82.314636,26.914633 82.314636,26.620743 L 82.314636,20.0424 C 82.314636,19.7486 82.555657,19.508211 82.850177,19.508211 L 86.155741,19.508211 C 86.450351,19.508211 86.709565,19.687175 86.928339,19.883702 L 87.021469,19.967284 C 87.240242,20.163811 87.579887,20.324762 87.874407,20.324762 L 91.236263,20.324762 C 91.530783,20.324762 91.771714,20.565061 91.771714,20.858951 L 91.771714,26.620743 z"
     style="fill:url(#linearGradient5691)" /><path
     id="path5085"
     d="M 91.236263,20.324852 L 87.874407,20.324852 C 87.579887,20.324852 87.240242,20.163901 87.021469,19.967374 L 86.928339,19.883792 C 86.709655,19.687265 86.450351,19.508301 86.155741,19.508301 L 82.850177,19.508301 C 82.555657,19.508211 82.314636,19.7486 82.314636,20.0424 L 82.314636,20.132468 C 82.314636,19.838668 82.555657,19.598278 82.850177,19.598278 L 86.155741,19.598278 C 86.450351,19.598278 86.709565,19.777242 86.928339,19.973769 L 87.021469,20.057352 C 87.240242,20.253879 87.579887,20.414829 87.874407,20.414829 L 91.236263,20.414829 C 91.530783,20.414829 91.771714,20.655129 91.771714,20.949019 L 91.771714,20.858951 C 91.771714,20.565152 91.530693,20.324852 91.236263,20.324852 z"
     style="fill:#ffffff" /><path
     id="path5087"
     d="M 82.525754,26.958226 C 82.525754,26.958226 82.614381,26.973357 82.671213,26.932647 C 82.731198,26.889594 82.764973,26.767193 82.764973,26.605162 L 82.764973,22.843587 C 82.764973,22.50061 83.045714,22.221671 83.390672,22.221671 L 86.750906,22.221671 C 87.020748,22.221671 87.34373,22.040906 87.54413,21.861672 L 87.63717,21.77845 C 87.922143,21.523469 88.194507,21.399536 88.470023,21.399536 L 91.771714,21.399536 L 91.771714,21.345496 L 88.379955,21.345496 C 88.104439,21.345496 87.832075,21.469428 87.547102,21.724409 L 87.454062,21.807631 C 87.253663,21.986775 86.930681,22.167631 86.660839,22.167631 L 83.300604,22.167631 C 82.955646,22.167631 82.674906,22.44666 82.674906,22.789636 L 82.674906,26.551121 C 82.68049,26.732787 82.630323,26.900403 82.569797,26.943004 C 82.557908,26.951291 82.525754,26.958226 82.525754,26.958226 z"
     style="fill:url(#linearGradient5693)" /><path
     id="path5089"
     d="M 88.470023,21.399626 C 88.194507,21.399626 87.922143,21.523559 87.63717,21.77854 L 87.54413,21.861762 C 87.34373,22.040906 87.020748,22.221671 86.750906,22.221671 L 83.390672,22.221671 C 83.045714,22.221671 82.764973,22.5007 82.764973,22.843587 L 82.764973,26.605072 C 82.764973,26.771426 82.731648,26.890135 82.673555,26.931025 C 82.63951,26.954983 82.579435,26.972096 82.510173,26.954983 C 82.441541,26.938051 82.414071,26.904365 82.369397,26.862934 C 82.347691,26.900853 82.3993,27.052436 82.432895,27.080357 C 82.45262,27.09684 82.618614,27.235183 82.824148,27.235183 L 92.046689,27.245 C 92.400024,27.223564 92.672388,26.942554 92.672388,26.605162 L 92.672388,22.021541 C 92.672388,21.678655 92.391738,21.399626 92.046689,21.399626 L 88.470023,21.399626 z"
     style="opacity:0.75;fill:url(#linearGradient5695)" /><path
     id="path5091"
     d="M 82.855041,26.605162 C 82.855041,26.912922 82.718499,27.131065 82.490538,27.015689 C 82.490538,27.015689 82.657973,27.155023 82.810007,27.155023 C 82.962041,27.155023 92.046689,27.155023 92.046689,27.155023 C 92.3413,27.13701 92.58232,26.897701 92.58232,26.605252 L 92.58232,22.021541 C 92.58232,21.729003 92.3413,21.489693 92.046689,21.489693 L 88.470023,21.489693 C 88.175412,21.489693 87.916018,21.649923 87.697244,21.84564 L 87.604205,21.928862 C 87.385341,22.124488 87.045607,22.311739 86.750906,22.311739 L 83.390672,22.311739 C 83.096061,22.311739 82.855041,22.551048 82.855041,22.843587 L 82.855041,26.605162 z"
     style="fill:url(#radialGradient5697)" /><path
     id="path5093"
     d="M 92.046689,21.489693 L 91.771714,21.489693 L 91.771714,27.154933 C 92.003907,27.154933 92.046689,27.154933 92.046689,27.154933 C 92.3413,27.13692 92.58232,26.89761 92.58232,26.605162 L 92.58232,22.021541 C 92.58232,21.729003 92.3413,21.489693 92.046689,21.489693 z"
     style="fill:url(#radialGradient5699)" /><path
     id="path5095"
     d="M 92.046689,26.974798 C 92.046689,26.974798 82.954655,26.927963 82.810007,26.974798 C 82.780825,26.984165 82.755246,26.991821 82.732009,26.998216 C 82.675897,27.041358 82.575382,27.074773 82.494411,27.015329 C 82.537913,27.049554 82.682382,27.154933 82.810007,27.154933 C 82.962041,27.154933 92.046689,27.154933 92.046689,27.154933 C 92.3413,27.13692 92.58232,26.89761 92.58232,26.605162 L 92.58232,26.515094 C 92.58232,26.807543 92.3413,26.956785 92.046689,26.974798 z"
     style="fill:url(#linearGradient5701)" /><path
     id="path5097"
     d="M 87.505761,24.262959 C 90.037916,23.95754 92.58232,23.88999 92.58232,23.88999 L 92.58232,22.021541 C 92.58232,21.729003 92.3413,21.489693 92.046689,21.489693 L 88.470023,21.489693 C 88.175412,21.489693 87.916018,21.649923 87.697244,21.84564 L 87.604205,21.928862 C 87.385341,22.124488 87.045607,22.311739 86.750906,22.311739 L 83.390672,22.311739 C 83.096061,22.311739 82.855041,22.551048 82.855041,22.843587 L 82.855041,25.60127 C 82.855041,25.60127 84.973516,24.568287 87.505761,24.262959 z"
     style="fill:url(#radialGradient5703)" /><path
     id="path5099"
     d="M 92.046689,21.489693 L 88.470023,21.489693 C 88.175412,21.489693 87.916018,21.649923 87.697244,21.84564 L 87.604205,21.928862 C 87.385341,22.124488 87.045607,22.311739 86.750906,22.311739 L 83.390672,22.311739 C 83.096061,22.311739 82.855041,22.551048 82.855041,22.843587 L 82.855041,22.933654 C 82.855041,22.641115 83.096061,22.401806 83.390672,22.401806 L 86.750906,22.401806 C 87.045517,22.401806 87.385341,22.214556 87.604205,22.018929 L 87.697244,21.935707 C 87.916018,21.739991 88.175412,21.579761 88.470023,21.579761 L 92.046689,21.579761 C 92.3413,21.579761 92.58232,21.81907 92.58232,22.111609 L 92.58232,22.021541 C 92.58232,21.729003 92.3413,21.489693 92.046689,21.489693 z"
     style="fill:url(#linearGradient5705)" /><rect
     id="rect5101"
     height="5.6742463"
     width="0.090067402"
     style="opacity:0.15;fill:url(#linearGradient5707)"
     y="21.480686"
     x="91.771713" /><path
     id="path5103"
     d="M 85.984063,20.129676 C 85.984063,20.22875 85.903002,20.30981 85.803928,20.30981 L 83.011838,20.30981 C 82.912764,20.30981 82.831704,20.22875 82.831704,20.129676 L 82.831704,19.949541 C 82.831704,19.850467 82.912764,19.769406 83.011838,19.769406 L 85.803928,19.769406 C 85.903002,19.769406 85.984063,19.850467 85.984063,19.949541 L 85.984063,20.129676 z"
     style="fill:#f3af61" /></g><g
   style="overflow:visible"
   id="g5129"
   transform="matrix(0.824908,0,0,0.824908,-54.280175,44.428084)"><path
     id="path5131"
     d="M 82.224569,26.701804 C 82.224569,27.133857 82.631674,27.335068 82.810007,27.335068 L 91.667416,27.335068 C 92.02066,27.313632 92.041916,27.032712 92.041916,26.695229 L 92.041916,26.705046 C 92.041916,26.36207 82.224569,26.701804 82.224569,26.701804 z"
     style="opacity:0.2;fill:url(#linearGradient5709)" /><path
     id="path5133"
     d="M 82.224569,26.791871 C 82.224569,27.161958 82.518729,27.425135 82.810007,27.425135 L 91.956622,27.425135 C 92.309866,27.403699 92.597361,27.357224 92.597361,27.019832 L 92.58232,26.795114 C 92.58232,26.461054 82.224569,26.602009 82.224569,26.791871 z"
     style="opacity:0.2;fill:url(#linearGradient5711)" /><path
     id="path5135"
     d="M 82.850177,19.418143 C 82.505219,19.418143 82.224569,19.698163 82.224569,20.0424 L 82.224569,26.620743 C 82.224569,26.964981 82.505219,27.245 82.850177,27.245 L 91.236173,27.245 C 91.581131,27.245 91.861691,26.964981 91.861691,26.620743 L 91.861691,20.858951 C 91.861691,20.514714 91.581131,20.234694 91.236173,20.234694 L 87.874407,20.234694 C 87.622849,20.234694 87.30428,20.100314 87.081724,19.900274 C 87.081724,19.900274 86.988504,19.816691 86.988504,19.816691 C 86.798102,19.645653 86.504662,19.418143 86.155741,19.418143 L 82.850177,19.418143 L 82.850177,19.418143 z"
     style="opacity:0.75;fill:url(#linearGradient5713)" /><path
     id="path5137"
     d="M 91.771714,26.620743 C 91.771714,26.914633 91.530693,27.154933 91.236263,27.154933 L 82.850177,27.154933 C 82.555657,27.154933 82.314636,26.914633 82.314636,26.620743 L 82.314636,20.0424 C 82.314636,19.7486 82.555657,19.508211 82.850177,19.508211 L 86.155741,19.508211 C 86.450351,19.508211 86.709565,19.687175 86.928339,19.883702 L 87.021469,19.967284 C 87.240242,20.163811 87.579887,20.324762 87.874407,20.324762 L 91.236263,20.324762 C 91.530783,20.324762 91.771714,20.565061 91.771714,20.858951 L 91.771714,26.620743 z"
     style="fill:url(#linearGradient5715)" /><path
     id="path5139"
     d="M 91.236263,20.324852 L 87.874407,20.324852 C 87.579887,20.324852 87.240242,20.163901 87.021469,19.967374 L 86.928339,19.883792 C 86.709655,19.687265 86.450351,19.508301 86.155741,19.508301 L 82.850177,19.508301 C 82.555657,19.508211 82.314636,19.7486 82.314636,20.0424 L 82.314636,20.132468 C 82.314636,19.838668 82.555657,19.598278 82.850177,19.598278 L 86.155741,19.598278 C 86.450351,19.598278 86.709565,19.777242 86.928339,19.973769 L 87.021469,20.057352 C 87.240242,20.253879 87.579887,20.414829 87.874407,20.414829 L 91.236263,20.414829 C 91.530783,20.414829 91.771714,20.655129 91.771714,20.949019 L 91.771714,20.858951 C 91.771714,20.565152 91.530693,20.324852 91.236263,20.324852 z"
     style="fill:#ffffff" /><path
     id="path5141"
     d="M 82.525754,26.958226 C 82.525754,26.958226 82.614381,26.973357 82.671213,26.932647 C 82.731198,26.889594 82.764973,26.767193 82.764973,26.605162 L 82.764973,22.843587 C 82.764973,22.50061 83.045714,22.221671 83.390672,22.221671 L 86.750906,22.221671 C 87.020748,22.221671 87.34373,22.040906 87.54413,21.861672 L 87.63717,21.77845 C 87.922143,21.523469 88.194507,21.399536 88.470023,21.399536 L 91.771714,21.399536 L 91.771714,21.345496 L 88.379955,21.345496 C 88.104439,21.345496 87.832075,21.469428 87.547102,21.724409 L 87.454062,21.807631 C 87.253663,21.986775 86.930681,22.167631 86.660839,22.167631 L 83.300604,22.167631 C 82.955646,22.167631 82.674906,22.44666 82.674906,22.789636 L 82.674906,26.551121 C 82.68049,26.732787 82.630323,26.900403 82.569797,26.943004 C 82.557908,26.951291 82.525754,26.958226 82.525754,26.958226 z"
     style="fill:url(#linearGradient5717)" /><path
     id="path5143"
     d="M 88.470023,21.399626 C 88.194507,21.399626 87.922143,21.523559 87.63717,21.77854 L 87.54413,21.861762 C 87.34373,22.040906 87.020748,22.221671 86.750906,22.221671 L 83.390672,22.221671 C 83.045714,22.221671 82.764973,22.5007 82.764973,22.843587 L 82.764973,26.605072 C 82.764973,26.771426 82.731648,26.890135 82.673555,26.931025 C 82.63951,26.954983 82.579435,26.972096 82.510173,26.954983 C 82.441541,26.938051 82.414071,26.904365 82.369397,26.862934 C 82.347691,26.900853 82.3993,27.052436 82.432895,27.080357 C 82.45262,27.09684 82.618614,27.235183 82.824148,27.235183 L 92.046689,27.245 C 92.400024,27.223564 92.672388,26.942554 92.672388,26.605162 L 92.672388,22.021541 C 92.672388,21.678655 92.391738,21.399626 92.046689,21.399626 L 88.470023,21.399626 z"
     style="opacity:0.75;fill:url(#linearGradient5719)" /><path
     id="path5145"
     d="M 82.855041,26.605162 C 82.855041,26.912922 82.718499,27.131065 82.490538,27.015689 C 82.490538,27.015689 82.657973,27.155023 82.810007,27.155023 C 82.962041,27.155023 92.046689,27.155023 92.046689,27.155023 C 92.3413,27.13701 92.58232,26.897701 92.58232,26.605252 L 92.58232,22.021541 C 92.58232,21.729003 92.3413,21.489693 92.046689,21.489693 L 88.470023,21.489693 C 88.175412,21.489693 87.916018,21.649923 87.697244,21.84564 L 87.604205,21.928862 C 87.385341,22.124488 87.045607,22.311739 86.750906,22.311739 L 83.390672,22.311739 C 83.096061,22.311739 82.855041,22.551048 82.855041,22.843587 L 82.855041,26.605162 z"
     style="fill:url(#radialGradient5721)" /><path
     id="path5147"
     d="M 92.046689,21.489693 L 91.771714,21.489693 L 91.771714,27.154933 C 92.003907,27.154933 92.046689,27.154933 92.046689,27.154933 C 92.3413,27.13692 92.58232,26.89761 92.58232,26.605162 L 92.58232,22.021541 C 92.58232,21.729003 92.3413,21.489693 92.046689,21.489693 z"
     style="fill:url(#radialGradient5723)" /><path
     id="path5149"
     d="M 92.046689,26.974798 C 92.046689,26.974798 82.954655,26.927963 82.810007,26.974798 C 82.780825,26.984165 82.755246,26.991821 82.732009,26.998216 C 82.675897,27.041358 82.575382,27.074773 82.494411,27.015329 C 82.537913,27.049554 82.682382,27.154933 82.810007,27.154933 C 82.962041,27.154933 92.046689,27.154933 92.046689,27.154933 C 92.3413,27.13692 92.58232,26.89761 92.58232,26.605162 L 92.58232,26.515094 C 92.58232,26.807543 92.3413,26.956785 92.046689,26.974798 z"
     style="fill:url(#linearGradient5725)" /><path
     id="path5151"
     d="M 87.505761,24.262959 C 90.037916,23.95754 92.58232,23.88999 92.58232,23.88999 L 92.58232,22.021541 C 92.58232,21.729003 92.3413,21.489693 92.046689,21.489693 L 88.470023,21.489693 C 88.175412,21.489693 87.916018,21.649923 87.697244,21.84564 L 87.604205,21.928862 C 87.385341,22.124488 87.045607,22.311739 86.750906,22.311739 L 83.390672,22.311739 C 83.096061,22.311739 82.855041,22.551048 82.855041,22.843587 L 82.855041,25.60127 C 82.855041,25.60127 84.973516,24.568287 87.505761,24.262959 z"
     style="fill:url(#radialGradient5727)" /><path
     id="path5153"
     d="M 92.046689,21.489693 L 88.470023,21.489693 C 88.175412,21.489693 87.916018,21.649923 87.697244,21.84564 L 87.604205,21.928862 C 87.385341,22.124488 87.045607,22.311739 86.750906,22.311739 L 83.390672,22.311739 C 83.096061,22.311739 82.855041,22.551048 82.855041,22.843587 L 82.855041,22.933654 C 82.855041,22.641115 83.096061,22.401806 83.390672,22.401806 L 86.750906,22.401806 C 87.045517,22.401806 87.385341,22.214556 87.604205,22.018929 L 87.697244,21.935707 C 87.916018,21.739991 88.175412,21.579761 88.470023,21.579761 L 92.046689,21.579761 C 92.3413,21.579761 92.58232,21.81907 92.58232,22.111609 L 92.58232,22.021541 C 92.58232,21.729003 92.3413,21.489693 92.046689,21.489693 z"
     style="fill:url(#linearGradient5729)" /><rect
     id="rect5155"
     height="5.6742463"
     width="0.090067402"
     style="opacity:0.15;fill:url(#linearGradient5731)"
     y="21.480686"
     x="91.771713" /><path
     id="path5157"
     d="M 85.984063,20.129676 C 85.984063,20.22875 85.903002,20.30981 85.803928,20.30981 L 83.011838,20.30981 C 82.912764,20.30981 82.831704,20.22875 82.831704,20.129676 L 82.831704,19.949541 C 82.831704,19.850467 82.912764,19.769406 83.011838,19.769406 L 85.803928,19.769406 C 85.903002,19.769406 85.984063,19.850467 85.984063,19.949541 L 85.984063,20.129676 z"
     style="fill:#f3af61" /></g><g
   id="g3683"
   transform="translate(-68.320222,8.0000008)"><g
     id="g3295"
     transform="matrix(2.6778786,0,0,2.6778786,275.16572,65.217358)"><g
       id="g3285"><rect
         style="opacity:1;fill:#868982;fill-opacity:1;stroke:none;stroke-width:5;stroke-linejoin:round;stroke-miterlimit:4;stroke-dasharray:none;stroke-opacity:1"
         id="rect3269"
         width="1"
         height="1"
         x="-72.543587"
         y="2.6212144" /><rect
         style="opacity:1;fill:#868982;fill-opacity:1;stroke:none;stroke-width:5;stroke-linejoin:round;stroke-miterlimit:4;stroke-dasharray:none;stroke-opacity:1;display:inline"
         id="rect3271"
         width="1"
         height="1"
         x="-70.546021"
         y="2.6212144" /><rect
         style="opacity:1;fill:#868982;fill-opacity:1;stroke:none;stroke-width:5;stroke-linejoin:round;stroke-miterlimit:4;stroke-dasharray:none;stroke-opacity:1;display:inline"
         id="rect3273"
         width="1"
         height="1"
         x="-73.53405"
         y="3.6074431" /><rect
         style="opacity:1;fill:#868982;fill-opacity:1;stroke:none;stroke-width:5;stroke-linejoin:round;stroke-miterlimit:4;stroke-dasharray:none;stroke-opacity:1;display:inline"
         id="rect3275"
         width="1"
         height="1"
         x="-71.546844"
         y="3.6074431" /><rect
         style="opacity:1;fill:#868982;fill-opacity:1;stroke:none;stroke-width:5;stroke-linejoin:round;stroke-miterlimit:4;stroke-dasharray:none;stroke-opacity:1;display:inline"
         id="rect3277"
         width="1"
         height="1"
         x="-69.548592"
         y="3.6074431" /><rect
         style="opacity:1;fill:#868982;fill-opacity:1;stroke:none;stroke-width:5;stroke-linejoin:round;stroke-miterlimit:4;stroke-dasharray:none;stroke-opacity:1;display:inline"
         id="rect3279"
         width="1"
         height="1"
         x="-73.53405"
         y="1.6200037" /><rect
         style="opacity:1;fill:#868982;fill-opacity:1;stroke:none;stroke-width:5;stroke-linejoin:round;stroke-miterlimit:4;stroke-dasharray:none;stroke-opacity:1;display:inline"
         id="rect3281"
         width="1"
         height="1"
         x="-71.546844"
         y="1.6200037" /><rect
         style="opacity:1;fill:#868982;fill-opacity:1;stroke:none;stroke-width:5;stroke-linejoin:round;stroke-miterlimit:4;stroke-dasharray:none;stroke-opacity:1;display:inline"
         id="rect3283"
         width="1"
         height="1"
         x="-69.548592"
         y="1.6200037" /></g></g><g
     style="display:inline"
     id="g3306"
     transform="matrix(2.6778786,0,0,2.6778786,368.76374,65.217358)"><g
       id="g3308"><rect
         style="opacity:1;fill:#868982;fill-opacity:1;stroke:none;stroke-width:5;stroke-linejoin:round;stroke-miterlimit:4;stroke-dasharray:none;stroke-opacity:1"
         id="rect3310"
         width="1"
         height="1"
         x="-72.543587"
         y="2.6212144" /><rect
         style="opacity:1;fill:#868982;fill-opacity:1;stroke:none;stroke-width:5;stroke-linejoin:round;stroke-miterlimit:4;stroke-dasharray:none;stroke-opacity:1;display:inline"
         id="rect3312"
         width="1"
         height="1"
         x="-70.546021"
         y="2.6212144" /><rect
         style="opacity:1;fill:#868982;fill-opacity:1;stroke:none;stroke-width:5;stroke-linejoin:round;stroke-miterlimit:4;stroke-dasharray:none;stroke-opacity:1;display:inline"
         id="rect3314"
         width="1"
         height="1"
         x="-73.53405"
         y="3.6074431" /><rect
         style="opacity:1;fill:#868982;fill-opacity:1;stroke:none;stroke-width:5;stroke-linejoin:round;stroke-miterlimit:4;stroke-dasharray:none;stroke-opacity:1;display:inline"
         id="rect3316"
         width="1"
         height="1"
         x="-71.546844"
         y="3.6074431" /><rect
         style="opacity:1;fill:#868982;fill-opacity:1;stroke:none;stroke-width:5;stroke-linejoin:round;stroke-miterlimit:4;stroke-dasharray:none;stroke-opacity:1;display:inline"
         id="rect3318"
         width="1"
         height="1"
         x="-69.548592"
         y="3.6074431" /><rect
         style="opacity:1;fill:#868982;fill-opacity:1;stroke:none;stroke-width:5;stroke-linejoin:round;stroke-miterlimit:4;stroke-dasharray:none;stroke-opacity:1;display:inline"
         id="rect3320"
         width="1"
         height="1"
         x="-73.53405"
         y="1.6200037" /><rect
         style="opacity:1;fill:#868982;fill-opacity:1;stroke:none;stroke-width:5;stroke-linejoin:round;stroke-miterlimit:4;stroke-dasharray:none;stroke-opacity:1;display:inline"
         id="rect3322"
         width="1"
         height="1"
         x="-71.546844"
         y="1.6200037" /><rect
         style="opacity:1;fill:#868982;fill-opacity:1;stroke:none;stroke-width:5;stroke-linejoin:round;stroke-miterlimit:4;stroke-dasharray:none;stroke-opacity:1;display:inline"
         id="rect3324"
         width="1"
         height="1"
         x="-69.548592"
         y="1.6200037" /></g></g><g
     id="g3397"
     transform="matrix(2.6778786,0,0,2.6778786,226.53205,-72.245137)"><rect
       y="54.938412"
       x="-29.391191"
       height="1"
       width="1"
       id="rect3334"
       style="fill:#cdd2c8;fill-opacity:1;stroke:none;stroke-width:5;stroke-linejoin:round;stroke-miterlimit:4;stroke-dasharray:none;stroke-opacity:1;display:inline" /><rect
       y="54.938412"
       x="-27.403986"
       height="1"
       width="1"
       id="rect3336"
       style="fill:#cdd2c8;fill-opacity:1;stroke:none;stroke-width:5;stroke-linejoin:round;stroke-miterlimit:4;stroke-dasharray:none;stroke-opacity:1;display:inline" /><rect
       y="54.938412"
       x="-25.405733"
       height="1"
       width="1"
       id="rect3338"
       style="fill:#cdd2c8;fill-opacity:1;stroke:none;stroke-width:5;stroke-linejoin:round;stroke-miterlimit:4;stroke-dasharray:none;stroke-opacity:1;display:inline" /><rect
       y="52.954254"
       x="-29.391191"
       height="2"
       width="1"
       id="rect3340"
       style="fill:#868982;fill-opacity:1;stroke:none;stroke-width:5;stroke-linejoin:round;stroke-miterlimit:4;stroke-dasharray:none;stroke-opacity:1;display:inline" /><rect
       y="52.954254"
       x="-27.403986"
       height="2"
       width="1"
       id="rect3342"
       style="fill:#868982;fill-opacity:1;stroke:none;stroke-width:5;stroke-linejoin:round;stroke-miterlimit:4;stroke-dasharray:none;stroke-opacity:1;display:inline" /><rect
       y="52.954254"
       x="-25.405733"
       height="2"
       width="1"
       id="rect3344"
       style="fill:#868982;fill-opacity:1;stroke:none;stroke-width:5;stroke-linejoin:round;stroke-miterlimit:4;stroke-dasharray:none;stroke-opacity:1;display:inline" /></g><g
     id="g3405"
     transform="matrix(2.6778786,0,0,2.6778786,258.2856,-73.661194)"><rect
       transform="scale(1,-1)"
       y="-54.483051"
       x="-35.201279"
       height="1"
       width="1"
       id="rect3393"
       style="fill:#66cc00;fill-opacity:1;stroke:none;stroke-width:5;stroke-linejoin:round;stroke-miterlimit:4;stroke-dasharray:none;stroke-opacity:1;display:inline" /><rect
       transform="scale(1,-1)"
       y="-56.467209"
       x="-35.201279"
       height="2"
       width="1"
       id="rect3395"
       style="fill:#99ff00;fill-opacity:1;stroke:none;stroke-width:5;stroke-linejoin:round;stroke-miterlimit:4;stroke-dasharray:none;stroke-opacity:1;display:inline" /></g></g><path
   style="opacity:0.15;fill:#000000;fill-opacity:0.35840705;fill-rule:nonzero;stroke:#000000;stroke-width:2.68966222;stroke-linecap:round;stroke-linejoin:round;marker:none;marker-start:none;marker-mid:none;marker-end:none;stroke-miterlimit:4;stroke-dasharray:none;stroke-dashoffset:0;stroke-opacity:1;visibility:visible;display:inline;overflow:visible;filter:url(#filter3812);enable-background:accumulate"
   d="M 46.666652,24.520712 C 43.50391,24.520712 40.84931,25.55926 40.16665,29.059915 C 40.15686,29.08493 40.17572,29.133107 40.16665,29.158592 C 40.16079,29.190426 40.17218,29.225296 40.16665,29.257272 C 40.08506,29.516049 39.99998,29.753423 39.99998,30.046697 L 39.99998,30.836124 L 39.99998,69.21963 L 36.66665,66.552964 C 35.55865,66.552964 31.999983,88.731078 31.999983,90.043105 L 41.33332,120.04131 C 41.33332,121.35334 42.22532,122.4096 43.33332,122.40959 L 81.999985,122.40959 C 83.107985,122.40959 90.666654,100.82824 90.666651,99.516216 L 90.666651,59.799382 C 90.666651,58.487355 89.774654,57.431099 88.666651,57.431101 L 80.666651,56.097768 C 79.558651,56.097768 78.666654,57.154019 78.666651,58.466049 L 78.666651,55.308343 C 78.666651,53.996316 77.774651,52.940064 76.666651,52.940064 L 68.666651,52.940064 C 67.558651,52.940064 66.666651,53.996316 66.666651,55.308343 L 66.666651,52.150637 C 66.666651,50.83861 65.774651,49.782358 64.666651,49.782358 L 55.333319,49.782358 C 54.225319,49.782358 53.333319,50.83861 53.333319,52.150637 L 53.333319,30.836124 L 53.333319,30.046697 C 53.333319,29.753423 53.248241,29.516049 53.166652,29.257272 C 53.155591,29.193319 53.179012,29.123293 53.166652,29.059915 C 52.483996,25.559263 49.829391,24.520712 46.666652,24.520712 z"
   id="path3806"
   sodipodi:nodetypes="cssscccccccccccccccccccccccssc"
   transform="matrix(1,0,0,0.9829739,0,0.417487)" /><path
   style="fill:url(#radialGradient3747);fill-opacity:1;fill-rule:nonzero;stroke:none;stroke-width:1.33333337;stroke-linecap:round;stroke-linejoin:round;marker:none;marker-start:none;marker-mid:none;marker-end:none;stroke-miterlimit:4;stroke-dasharray:none;stroke-dashoffset:0;stroke-opacity:1;visibility:visible;display:inline;overflow:visible;enable-background:accumulate"
   d="M 46.666652,24.520707 C 43.50391,24.520707 40.84931,25.559255 40.16665,29.05991 C 40.15686,29.084925 40.17572,29.133102 40.16665,29.158587 C 40.16079,29.190421 40.17218,29.225291 40.16665,29.257267 C 40.08506,29.516044 39.99998,29.753418 39.99998,30.046692 L 39.99998,30.836119 L 39.99998,69.219625 L 36.66665,66.552959 C 35.55865,66.552959 31.999983,88.731073 31.999983,90.0431 L 41.33332,120.0413 C 41.33332,121.35333 42.22532,122.40959 43.33332,122.40958 L 81.999985,122.40958 C 83.107985,122.40958 90.666654,100.82823 90.666651,99.516211 L 89.333318,59.799377 C 89.333318,58.48735 88.441321,57.431094 87.333318,57.431096 L 80.666651,56.097763 C 79.558651,56.097763 78.666654,57.154014 78.666651,58.466044 L 78.666651,55.308338 C 78.666651,53.996311 77.774651,52.940059 76.666651,52.940059 L 68.666651,52.940059 C 67.558651,52.940059 66.666651,53.996311 66.666651,55.308338 L 66.666651,52.150632 C 66.666651,50.838605 65.774651,49.782353 64.666651,49.782353 L 55.333319,49.782353 C 54.225319,49.782353 53.333319,50.838605 53.333319,52.150632 L 53.333319,30.836119 L 53.333319,30.046692 C 53.333319,29.753418 53.248241,29.516044 53.166652,29.257267 C 53.155591,29.193314 53.179012,29.123288 53.166652,29.05991 C 52.483996,25.559258 49.829391,24.520707 46.666652,24.520707 z"
   id="rect3375"
   sodipodi:nodetypes="cssscccccccccccccccccccccccssc" /><rect
   style="fill:url(#linearGradient3742);fill-opacity:1;fill-rule:nonzero;stroke:url(#linearGradient3744);stroke-width:0.80000001;stroke-linecap:round;stroke-linejoin:round;marker:none;marker-start:none;marker-mid:none;marker-end:none;stroke-miterlimit:4;stroke-dasharray:none;stroke-dashoffset:0;stroke-opacity:1;visibility:visible;display:inline;overflow:visible;enable-background:accumulate"
   id="rect3356"
   width="13.333333"
   height="63.154121"
   x="53.333328"
   y="49.782352"
   rx="2"
   ry="1.9999999" /><path
   style="fill:url(#linearGradient3737);fill-opacity:1;fill-rule:nonzero;stroke:url(#linearGradient3739);stroke-width:0.80000001;stroke-linecap:round;stroke-linejoin:round;marker:none;marker-start:none;marker-mid:none;marker-end:none;stroke-miterlimit:4;stroke-dasharray:none;stroke-dashoffset:0;stroke-opacity:1;visibility:visible;display:inline;overflow:visible;enable-background:accumulate"
   d="M 68.916662,52.940057 L 76.416662,52.940057 C 77.663162,52.940057 78.666662,53.99631 78.666662,55.308337 L 78.666662,110.56818 C 78.666662,111.88021 77.663162,112.93646 76.416662,112.93646 L 68.916662,112.93646 C 67.670162,112.93646 66.666662,111.88021 66.666662,110.56818 L 66.666662,55.308337 C 66.666662,53.99631 67.670162,52.940057 68.916662,52.940057 z"
   id="rect3396"
   sodipodi:nodetypes="ccccccccc" /><path
   style="fill:url(#linearGradient3731);fill-opacity:1;fill-rule:nonzero;stroke:url(#linearGradient3733);stroke-width:0.80000001;stroke-linecap:round;stroke-linejoin:round;marker:none;marker-start:none;marker-mid:none;marker-end:none;stroke-miterlimit:4;stroke-dasharray:none;stroke-dashoffset:0;stroke-opacity:1;visibility:visible;display:inline;overflow:visible;enable-background:accumulate"
   d="M 80.666652,56.097765 C 80.13755,56.097765 79.690297,56.393957 79.333318,56.788512 C 79.129974,57.002544 78.946873,57.294411 78.833318,57.577939 C 78.719764,57.861466 78.666652,58.138037 78.666652,58.466044 L 78.666652,113.72588 C 78.666652,115.03791 79.67015,116.09416 80.916652,116.09416 L 83.999985,116.09416 C 86.60254,110.76969 90.666654,100.48448 90.666652,99.516211 L 89.333319,59.799377 C 89.333319,59.47137 89.280207,59.194799 89.166652,58.911272 C 89.053097,58.627744 88.869996,58.335877 88.666652,58.121845 C 88.481585,57.92705 88.323956,57.745899 88.083319,57.628453 C 88.057967,57.615797 88.025865,57.639895 87.999985,57.628453 C 87.801732,57.540484 87.556164,57.456109 87.333319,57.431098 L 80.666652,56.097765 z"
   id="path3401"
   sodipodi:nodetypes="cssccccccsssscc" /><path
   style="fill:url(#linearGradient3725);fill-opacity:1;fill-rule:nonzero;stroke:url(#linearGradient3727);stroke-width:0.80000001;stroke-linecap:round;stroke-linejoin:round;marker:none;marker-start:none;marker-mid:none;marker-end:none;stroke-miterlimit:4;stroke-dasharray:none;stroke-dashoffset:0;stroke-opacity:1;visibility:visible;display:inline;overflow:visible;enable-background:accumulate"
   d="M 46.666653,24.520707 C 43.54018,24.520707 40.96924,25.521081 40.24998,28.961232 C 40.23129,29.003823 40.18302,29.015831 40.16665,29.05991 C 40.15429,29.123288 40.17771,29.193314 40.16665,29.257267 C 40.10255,29.480222 39.99998,29.700141 39.99998,29.948014 L 39.99998,30.836119 L 39.99998,70.110083 L 39.99998,107.11444 C 39.99998,108.37232 40.89198,109.38404 41.99998,109.38404 L 51.333323,109.38404 C 52.441323,109.38404 53.333323,108.37232 53.333323,107.11444 L 53.333323,51.163849 L 53.333323,30.836119 L 53.333323,29.948014 C 53.333323,29.700141 53.230753,29.480222 53.166653,29.257267 C 53.148583,29.152812 53.104833,29.064141 53.083323,28.961232 C 52.364063,25.521081 49.793123,24.520707 46.666653,24.520707 z"
   id="path3413"
   sodipodi:nodetypes="csssccccccccccssc" /><path
   style="fill:url(#radialGradient3719);fill-opacity:1;fill-rule:nonzero;stroke:url(#linearGradient3721);stroke-width:0.80000001;stroke-linecap:round;stroke-linejoin:round;marker:none;marker-start:none;marker-mid:none;marker-end:none;stroke-miterlimit:4;stroke-dasharray:none;stroke-dashoffset:0;stroke-opacity:1;visibility:visible;display:inline;overflow:visible;enable-background:accumulate"
   d="M 46.666652,24.520707 C 43.54018,24.520707 40.96924,25.521081 40.24998,28.961232 C 40.23129,29.003823 40.18302,29.015831 40.16665,29.05991 C 40.18409,29.12176 40.14759,29.196133 40.16665,29.257267 C 41.04343,32.069335 43.62784,34.092506 46.666652,34.092503 C 49.712284,34.092503 52.295554,32.079125 53.166652,29.257267 C 53.17566,29.228082 53.15801,29.187935 53.166652,29.158587 C 53.146236,29.090208 53.09838,29.033268 53.083319,28.961232 C 52.364066,25.521081 49.793127,24.520707 46.666652,24.520707 z"
   id="path3530" /><path
   sodipodi:type="arc"
   style="fill:none;fill-opacity:1;fill-rule:nonzero;stroke:url(#linearGradient2714);stroke-width:0.49999997;stroke-linecap:round;stroke-linejoin:round;marker:none;marker-start:none;marker-mid:none;marker-end:none;stroke-miterlimit:4;stroke-dasharray:none;stroke-dashoffset:0;stroke-opacity:1;visibility:visible;display:inline;overflow:visible;enable-background:accumulate"
   id="path3774"
   sodipodi:cx="46.68898"
   sodipodi:cy="78.397881"
   sodipodi:rx="5.9050145"
   sodipodi:ry="3.306808"
   d="M 52.593995,78.397881 A 5.9050145,3.306808 0 1 1 40.783966,78.397881 A 5.9050145,3.306808 0 1 1 52.593995,78.397881 z"
   transform="translate(0,1.333328)" /><path
   sodipodi:type="arc"
   style="fill:none;fill-opacity:1;fill-rule:nonzero;stroke:url(#linearGradient2716);stroke-width:0.49999997;stroke-linecap:round;stroke-linejoin:round;marker:none;marker-start:none;marker-mid:none;marker-end:none;stroke-miterlimit:4;stroke-dasharray:none;stroke-dashoffset:0;stroke-opacity:1;visibility:visible;display:inline;overflow:visible;enable-background:accumulate"
   id="path3790"
   sodipodi:cx="46.68898"
   sodipodi:cy="78.397881"
   sodipodi:rx="5.9050145"
   sodipodi:ry="3.306808"
   d="M 52.593995,78.397881 A 5.9050145,3.306808 0 1 1 40.783966,78.397881 A 5.9050145,3.306808 0 1 1 52.593995,78.397881 z"
   transform="translate(0,-22.66667)" /><path
   sodipodi:type="arc"
   style="fill:url(#linearGradient2718);fill-opacity:1;fill-rule:nonzero;stroke:url(#linearGradient2720);stroke-width:0.49999997;stroke-linecap:round;stroke-linejoin:round;marker:none;marker-start:none;marker-mid:none;marker-end:none;stroke-miterlimit:4;stroke-dasharray:none;stroke-dashoffset:0;stroke-opacity:1;visibility:visible;display:inline;overflow:visible;enable-background:accumulate"
   id="path3794"
   sodipodi:cx="46.68898"
   sodipodi:cy="78.397881"
   sodipodi:rx="5.9050145"
   sodipodi:ry="3.306808"
   d="M 52.593995,78.397881 A 5.9050145,3.306808 0 1 1 40.783966,78.397881 A 5.9050145,3.306808 0 1 1 52.593995,78.397881 z"
   transform="translate(13.333333,-5.3e-6)" /><path
   sodipodi:type="arc"
   style="fill:url(#linearGradient2722);fill-opacity:1;fill-rule:nonzero;stroke:url(#linearGradient2724);stroke-width:0.52261519;stroke-linecap:round;stroke-linejoin:round;marker:none;marker-start:none;marker-mid:none;marker-end:none;stroke-miterlimit:4;stroke-dasharray:none;stroke-dashoffset:0;stroke-opacity:1;visibility:visible;display:inline;overflow:visible;enable-background:accumulate"
   id="path3798"
   sodipodi:cx="46.68898"
   sodipodi:cy="78.397881"
   sodipodi:rx="5.9050145"
   sodipodi:ry="3.306808"
   d="M 52.593995,78.397881 A 5.9050145,3.306808 0 1 1 40.783966,78.397881 A 5.9050145,3.306808 0 1 1 52.593995,78.397881 z"
   transform="matrix(0.9153262,0,0,1,29.786666,2.6666614)" /><path
   sodipodi:type="arc"
   style="fill:url(#linearGradient2726);fill-opacity:1;fill-rule:nonzero;stroke:url(#linearGradient2728);stroke-width:0.5266912;stroke-linecap:round;stroke-linejoin:round;marker:none;marker-start:none;marker-mid:none;marker-end:none;stroke-miterlimit:4;stroke-dasharray:none;stroke-dashoffset:0;stroke-opacity:1;visibility:visible;display:inline;overflow:visible;enable-background:accumulate"
   id="path3802"
   sodipodi:cx="46.68898"
   sodipodi:cy="78.397881"
   sodipodi:rx="5.9050145"
   sodipodi:ry="3.306808"
   d="M 52.593995,78.397881 A 5.9050145,3.306808 0 1 1 40.783966,78.397881 A 5.9050145,3.306808 0 1 1 52.593995,78.397881 z"
   transform="matrix(0.9012138,0,0,1,42.528886,5.333328)" /><path
   style="fill:#ffffff;fill-opacity:0.51327431;fill-rule:nonzero;stroke:none;stroke-width:0.80000001;stroke-linecap:round;stroke-linejoin:round;marker:none;marker-start:none;marker-mid:none;marker-end:none;stroke-miterlimit:4;stroke-dasharray:none;stroke-dashoffset:0;stroke-opacity:1;visibility:visible;display:inline;overflow:visible;enable-background:accumulate"
   d="M 46.666667,24.499995 C 43.540195,24.499996 40.969259,25.559844 40.250001,28.999995 C 40.23131,29.042584 40.183038,29.039248 40.166667,29.083328 C 40.184107,29.145176 40.147606,29.188862 40.166667,29.249995 C 40.23087,29.45591 40.334646,29.63636 40.416667,29.833328 C 41.274862,26.799931 43.699115,25.833329 46.666667,25.833328 C 49.634225,25.833328 52.058481,26.799928 52.916667,29.833328 C 52.998323,29.63584 53.102881,29.456624 53.166667,29.249995 C 53.175675,29.220811 53.158025,29.196011 53.166667,29.166662 C 53.146251,29.098283 53.098395,29.072032 53.083334,28.999995 C 52.364081,25.559844 49.793142,24.499995 46.666667,24.499995 z"
   id="path3846" /><path
   style="opacity:0.18;fill:url(#linearGradient3710);fill-opacity:1;fill-rule:nonzero;stroke:none;stroke-width:1.10000001999999997;stroke-linecap:round;stroke-linejoin:round;marker:none;marker-start:none;marker-mid:none;marker-end:none;stroke-miterlimit:4;stroke-dasharray:none;stroke-dashoffset:0;stroke-opacity:1;visibility:visible;display:inline;overflow:visible;enable-background:accumulate"
   d="M 63.333334,81.166662 C 62.390838,81.523332 61.222339,81.666662 60.000001,81.666662 C 58.945435,81.666662 58.023883,81.521604 57.166667,81.249996 L 55.750001,81.499996 C 54.663179,81.674217 53.83083,82.730468 53.916667,83.833329 L 56.833334,121.25 C 56.870742,121.73064 57.101769,122.11992 57.416667,122.41666 L 62.250001,122.41666 L 65.000001,122 C 66.086822,121.82578 66.919174,120.76952 66.833334,119.66666 L 63.916667,82.249996 C 63.882081,81.805606 63.599798,81.458625 63.333334,81.166662 z"
   id="rect3899" /><path
   style="opacity:0.20564515;fill:url(#linearGradient3707);fill-opacity:1;fill-rule:nonzero;stroke:none;stroke-width:1.10000002;stroke-linecap:round;stroke-linejoin:round;marker:none;marker-start:none;marker-mid:none;marker-end:none;stroke-miterlimit:4;stroke-dasharray:none;stroke-dashoffset:0;stroke-opacity:1;visibility:visible;display:inline;overflow:visible;enable-background:accumulate"
   d="M 41.500001,81.333329 C 40.509403,81.5887 39.752502,82.544801 39.833334,83.583329 L 42.750001,122.25 L 42.750001,122.33333 C 42.941313,122.40495 43.12151,122.41667 43.333334,122.41666 L 52.083334,122.41666 C 52.516963,121.99537 52.799486,121.38576 52.750001,120.75 L 49.916667,82.499996 C 48.98903,82.839748 47.857049,82.999996 46.666667,82.999996 C 44.425715,82.999998 42.500337,82.364118 41.500001,81.333329 z"
   id="rect3911"
   sodipodi:nodetypes="ccccccccsc" /><path
   style="opacity:0.20564515;fill:url(#linearGradient3704);fill-opacity:1;fill-rule:nonzero;stroke:none;stroke-width:1.10000002;stroke-linecap:round;stroke-linejoin:round;marker:none;marker-start:none;marker-mid:none;marker-end:none;stroke-miterlimit:4;stroke-dasharray:none;stroke-dashoffset:0;stroke-opacity:1;visibility:visible;display:inline;overflow:visible;enable-background:accumulate"
   d="M 76.833334,83.083329 C 75.846244,83.881086 74.260305,84.333329 72.500001,84.333329 C 71.038054,84.333329 69.72327,83.994225 68.750001,83.416662 C 68.638049,83.645457 68.513662,83.973516 68.500001,84.249996 L 66.666668,121.83333 C 66.656003,122.04912 66.695297,122.21788 66.750001,122.41666 L 76.666668,122.41666 L 78.500001,85.249996 C 78.55146,84.20859 77.838062,83.281713 76.833334,83.083329 z"
   id="rect3915" /><path
   style="opacity:0.20564515;fill:url(#linearGradient3701);fill-opacity:1;fill-rule:nonzero;stroke:none;stroke-width:1.10000002;stroke-linecap:round;stroke-linejoin:round;marker:none;marker-start:none;marker-mid:none;marker-end:none;stroke-miterlimit:4;stroke-dasharray:none;stroke-dashoffset:0;stroke-opacity:1;visibility:visible;display:inline;overflow:visible;enable-background:accumulate"
   d="M 79.416668,84.416662 L 75.750001,121.66666 C 75.725657,121.9144 75.774097,122.17905 75.833334,122.41666 L 82.000001,122.41666 C 82.57175,122.41667 84.834534,116.65943 86.916668,110.91666 L 89.333334,86.416662 C 89.366484,86.079337 89.283273,85.723414 89.166668,85.416662 C 88.239361,86.388116 86.531633,86.999996 84.583334,86.999996 C 82.012964,86.999993 79.913164,85.923068 79.416668,84.416662 z"
   id="rect3919" /><path
   style="opacity:0.08467742;fill:none;fill-rule:evenodd;stroke:#686868;stroke-width:1px;stroke-linecap:butt;stroke-linejoin:miter;stroke-opacity:1"
   d="M 49.293535,96.86866 C 48.369787,98.206387 48.102276,98.775253 49.210678,100.79581 C 50.82857,103.74514 53.511496,104.70883 55.176397,107.74384 C 55.660533,108.6264 54.046159,112.8493 53.767824,113.48353 C 52.85607,115.56113 52.524966,117.0484 52.524966,119.67635 C 52.524966,120.91005 53.304219,121.12926 53.436395,122.09306"
   id="path3895" /><path
   style="opacity:0.08467742;fill:none;fill-rule:evenodd;stroke:#686868;stroke-width:1px;stroke-linecap:butt;stroke-linejoin:miter;stroke-opacity:1"
   d="M 78.060574,96.931151 C 78.060574,100.3982 72.310921,102.52533 71.711081,106.74904 C 71.37521,109.11403 72.912336,111.14353 72.912336,113.54602 C 72.912336,115.54057 72.299906,116.34793 72.054297,118.07736 C 71.843601,119.56095 72.419569,119.69031 71.711081,121.24929 C 71.577728,121.54272 71.660108,121.69793 71.625277,122.00451"
   id="path3897" /><path
   style="fill:none;fill-rule:evenodd;stroke:#ffffff;stroke-width:1px;stroke-linecap:butt;stroke-linejoin:miter;stroke-opacity:0.30088495"
   d="M 57.166667,92.333328 C 56.970725,93.716289 57.629884,96.074704 58.333333,97.833328 C 59.427899,100.56974 61.5,101.6996 61.5,104.83332 C 61.5,106.80735 60.833333,108.56175 60.833333,110.49999 C 60.833333,112.16361 61.407778,113.51943 62,114.99999 C 62.142281,115.35569 62.073936,115.9624 62.166667,116.33332"
   id="path3973" /><path
   style="fill:none;fill-rule:evenodd;stroke:#ffffff;stroke-width:1px;stroke-linecap:butt;stroke-linejoin:miter;stroke-opacity:0.30088495"
   d="M 71.833333,91.333328 C 71.838366,91.345909 70.153211,94.873696 69.833333,95.833328 C 69.281908,97.487605 69.072133,99.455192 69.5,101.16666 C 69.934774,102.90575 69.925319,105.46538 69.5,107.16666 C 69.215206,108.30583 68.780506,109.37797 68.5,110.49999 C 68.084416,112.16233 67.328185,113.52573 67,115.16666 C 66.856795,115.88268 66.833333,116.58539 66.833333,117.33332"
   id="path3975" /><path
   style="overflow:visible;fill:url(#radialGradient3754);fill-opacity:1;fill-rule:nonzero;stroke:none;stroke-width:1.33333337000000007;stroke-linecap:round;stroke-linejoin:round;marker:none;marker-start:none;marker-mid:none;marker-end:none;stroke-miterlimit:4;stroke-dasharray:none;stroke-dashoffset:0;stroke-opacity:1;visibility:visible;display:inline;enable-background:accumulate"
   d="M 41.666667,26.083334 C 41.202171,26.523721 40.867686,27.073008 40.583334,27.75 C 40.873817,27.036827 41.268563,26.536517 41.750001,26.083334 C 41.733393,26.098619 41.683075,26.067778 41.666667,26.083334 z"
   id="path3767" /><path
   style="overflow:visible;fill:url(#radialGradient3754);fill-opacity:1;fill-rule:nonzero;stroke:none;stroke-width:1.33333337000000007;stroke-linecap:round;stroke-linejoin:round;marker:none;marker-start:none;marker-mid:none;marker-end:none;stroke-miterlimit:4;stroke-dasharray:none;stroke-dashoffset:0;stroke-opacity:1;visibility:visible;display:inline;enable-background:accumulate"
   d="M 40.583334,27.75 C 40.41871,28.141942 40.260534,28.601992 40.166667,29.083334 C 40.183038,29.039254 40.23131,29.04259 40.250001,29 C 40.339907,28.569982 40.438094,28.106587 40.583334,27.75 z"
   id="path3765" /><path
   style="overflow:visible;fill:url(#radialGradient3754);fill-opacity:1;fill-rule:nonzero;stroke:none;stroke-width:1.33333337000000007;stroke-linecap:round;stroke-linejoin:round;marker:none;marker-start:none;marker-mid:none;marker-end:none;stroke-miterlimit:4;stroke-dasharray:none;stroke-dashoffset:0;stroke-opacity:1;visibility:visible;display:inline;enable-background:accumulate"
   d="M 51.583334,26.083334 C 52.064771,26.536517 52.459518,27.036827 52.750001,27.75 C 52.455606,27.049096 52.070083,26.531346 51.583334,26.083334 z"
   id="path3763" /><path
   style="overflow:visible;fill:url(#radialGradient3754);fill-opacity:1;fill-rule:nonzero;stroke:none;stroke-width:1.33333337000000007;stroke-linecap:round;stroke-linejoin:round;marker:none;marker-start:none;marker-mid:none;marker-end:none;stroke-miterlimit:4;stroke-dasharray:none;stroke-dashoffset:0;stroke-opacity:1;visibility:visible;display:inline;enable-background:accumulate"
   d="M 52.750001,27.75 C 52.895241,28.106587 52.993427,28.569982 53.083334,29 C 53.091939,29.041163 53.154014,29.044806 53.166667,29.083334 C 53.072803,28.601995 52.914625,28.141942 52.750001,27.75 z"
   id="path3761" /><path
   style="opacity:1;fill:url(#linearGradient3771);fill-opacity:1;fill-rule:nonzero;stroke:url(#linearGradient3769);stroke-width:0.80000001;stroke-linecap:round;stroke-linejoin:round;marker:none;marker-start:none;marker-mid:none;marker-end:none;stroke-miterlimit:4;stroke-dasharray:none;stroke-dashoffset:0;stroke-opacity:1;visibility:visible;display:inline;overflow:visible;enable-background:accumulate"
   d="M 36.666667,66.583334 C 35.558667,66.583334 32,88.771308 32,90.083334 L 40,115.75 L 40,70.083334 L 40,69.250001 L 36.666667,66.583334 z"
   id="path3752" /><path
   style="fill:none;fill-opacity:1;fill-rule:nonzero;stroke:url(#linearGradient3698);stroke-width:1.33333325;stroke-linecap:round;stroke-linejoin:round;marker:none;marker-start:none;marker-mid:none;marker-end:none;stroke-miterlimit:4;stroke-dasharray:none;stroke-dashoffset:0;stroke-opacity:1;visibility:visible;display:inline;overflow:visible;enable-background:accumulate"
   d="M 46.666652,24.520707 C 43.50391,24.520707 40.84931,25.559255 40.16665,29.05991 C 40.15686,29.084925 40.17572,29.133102 40.16665,29.158587 C 40.16079,29.190421 40.17218,29.225291 40.16665,29.257267 C 40.08506,29.516044 39.99998,29.753418 39.99998,30.046692 L 39.99998,30.836119 L 39.99998,69.219625 L 36.66665,66.552959 C 35.55865,66.552959 31.999983,88.731073 31.999983,90.0431 L 41.33332,120.0413 C 41.33332,121.35333 42.22532,122.40959 43.33332,122.40958 L 81.999985,122.40958 C 83.107985,122.40958 90.666654,100.82823 90.666651,99.516211 L 89.333318,59.799377 C 89.333318,58.48735 88.441321,57.431094 87.333318,57.431096 L 80.666651,56.097763 C 79.558651,56.097763 78.666654,57.154014 78.666651,58.466044 L 78.666651,55.308338 C 78.666651,53.996311 77.774651,52.940059 76.666651,52.940059 L 68.666651,52.940059 C 67.558651,52.940059 66.666651,53.996311 66.666651,55.308338 L 66.666651,52.150632 C 66.666651,50.838605 65.774651,49.782353 64.666651,49.782353 L 55.333319,49.782353 C 54.225319,49.782353 53.333319,50.838605 53.333319,52.150632 L 53.333319,30.836119 L 53.333319,30.046692 C 53.333319,29.753418 53.248241,29.516044 53.166652,29.257267 C 53.155591,29.193314 53.179012,29.123288 53.166652,29.05991 C 52.483996,25.559258 49.829391,24.520707 46.666652,24.520707 z"
   id="path3768"
   sodipodi:nodetypes="cssscccccccccccccccccccccccssc" /></svg>